<?xml version="1.0" encoding="iso-8859-1"?>
<!-- Generator: Adobe Illustrator 17.0.2, SVG Export Plug-In . SVG Version: 6.00 Build 0)  -->
<!DOCTYPE svg PUBLIC "-//W3C//DTD SVG 1.1//EN" "http://www.w3.org/Graphics/SVG/1.1/DTD/svg11.dtd">
<svg version="1.1" xmlns="http://www.w3.org/2000/svg" xmlns:xlink="http://www.w3.org/1999/xlink" x="0px" y="0px" width="32px"
	 height="32px" viewBox="0 0 32 32" style="enable-background:new 0 0 32 32;" xml:space="preserve">
<g id="_x31__phonenumber" style="display:none;">
	<path style="display:inline;fill-rule:evenodd;clip-rule:evenodd;" d="M4.389,6.135v-6.154h6.154v6.154H4.389z M19.158,6.135
		v-6.154h-6.154v6.154H19.158z M10.543,14.751V8.597H4.389v6.154H10.543z M19.158,14.751V8.597h-6.154v6.154H19.158z M27.688,6.135
		v-6.154h-6.154v6.154H27.688z M27.688,14.751V8.597h-6.154v6.154H27.688z M10.466,23.366v-6.154H4.312v6.154H10.466z
		 M19.081,23.366v-6.154h-6.154v6.154H19.081z M27.611,23.366v-6.154h-6.154v6.154H27.611z M19.086,31.981v-6.154h-6.154v6.154
		H19.086z"/>
</g>
<g id="_x32__voip_account" style="display:none;">
	<path style="display:inline;" d="M29.843,23.151l-0.738-0.74c0.274-0.114,0.518-0.282,0.734-0.508
		c1.118-1.171,1.247-3.535,1.22-4.104c-0.127-3.665-4.63-3.802-4.822-3.806l-1.436-0.03l0.527-1.336
		c0.007-0.018,0.825-2.2-0.159-4.198c-0.688-1.397-2.113-2.425-4.235-3.055C20.351,5.2,19.785,5.112,19.25,5.112
		c-3.558,0-5.145,3.931-5.161,3.97l-0.926,2.356L12.23,9.094c-0.029-0.068-0.791-1.831-2.844-1.831
		c-0.466,0-0.977,0.111-1.518,0.286C4.301,8.717,4.789,12.78,4.812,12.95l0.127,1.053l-0.961,0.329
		c-0.294,0.05-2.917,0.929-2.917,3.664C1.076,22.248,3.467,23,3.943,24h12.552c0.283,0,0.582,0,0.891,1H3.82
		c0,0-3.74-1.424-3.759-7.003c0-3.7,3.759-5.003,3.759-5.003s-0.66-4.999,3.74-6.44c0.68-0.22,1.287-0.313,1.826-0.313
		c2.791,0,3.773,2.473,3.773,2.473s1.811-4.602,6.09-4.603c0.607,0,1.262,0.092,1.97,0.303c7.539,2.239,5.04,8.579,5.04,8.579
		s5.639,0.119,5.799,4.759C32.074,18.1,32.07,21.858,29.843,23.151z M27.118,21.672l-1.95,1.963l0.969,0.969
		c0,0-2.405-0.563-4.834-2.98c-1.986-1.986-2.8-3.853-2.824-4.678l0.814,0.813l1.962-1.95l-4.894-4.894l-1.95,1.962l0.036,0.036
		c-1.268,2.058,0.634,6.821,4.69,10.877c4.319,4.32,8.962,6.677,10.913,4.727l1.95-1.95L27.118,21.672z"/>
</g>
<g id="_x33__call_group" style="display:none;">
	<path style="display:inline;fill-rule:evenodd;clip-rule:evenodd;" d="M32,20.221v0.329c0,0.66-0.56,1.385-1.467,1.385h-2.226
		c-0.379-0.313-0.89-0.659-1.583-0.989c-1.286-0.643-3.165-2.209-5.967-2.72c0.379-0.445,0.708-1.038,1.021-1.715
		c0.035-0.011,0.285-0.105,0.808-0.198c-0.165-0.165-0.313-0.379-0.445-0.61l0.445-1.104c0.28-0.906,0.231-1.649,0.231-2.72
		c0-0.791,0.164-2.045-0.05-2.77c-0.132-0.494-0.296-0.906-0.494-1.269c0.511-0.296,1.121-0.412,1.797-0.412
		c1.369,0,2.523,0.478,2.984,2.21c0.165,0.527,0.033,1.434,0.033,2.028c0,0.774,0.049,1.319-0.165,1.995
		c-0.445,1.104-0.857,2.044-1.369,2.654c2.094,0.379,3.495,1.517,4.468,1.995C31.984,19.215,32,20.221,32,20.221z M24.087,20.946
		c-1.286-0.643-3.166-2.209-5.968-2.72c0.692-0.824,1.252-2.127,1.83-3.627c0.28-0.906,0.231-1.649,0.231-2.72
		c0-0.791,0.165-2.045-0.05-2.77c-0.609-2.357-2.159-3-3.99-3c-1.847,0-3.396,0.643-4.006,3c-0.182,0.725-0.05,1.995-0.05,2.77
		c0,1.071-0.049,1.814,0.297,2.72c0.544,1.501,1.071,2.819,1.781,3.627c-2.77,0.544-4.666,2.094-5.902,2.72
		c-2.638,1.236-2.638,2.621-2.638,2.621v0.511c0,0.907,0.972,1.814,1.929,1.814h17.229c1.204,0,1.945-0.989,1.945-1.896v-0.429
		C26.724,23.567,26.691,22.182,24.087,20.946z M0,20.221l0,0.329c0,0.66,0.56,1.385,1.467,1.385h2.226
		c0.379-0.313,0.89-0.659,1.583-0.989c1.286-0.643,3.165-2.209,5.967-2.72c-0.379-0.445-0.708-1.038-1.021-1.715
		c-0.264-0.083-0.528-0.148-0.808-0.198c0.165-0.165,0.313-0.379,0.445-0.61l-0.445-1.104c-0.28-0.906-0.231-1.649-0.231-2.72
		c0-0.791-0.164-2.045,0.05-2.77c0.132-0.494,0.296-0.906,0.494-1.269C9.216,7.543,8.606,7.427,7.93,7.427
		c-1.369,0-2.523,0.478-2.984,2.21c-0.165,0.527-0.033,1.434-0.033,2.028c0,0.774-0.049,1.319,0.165,1.995
		c0.445,1.104,0.857,2.044,1.369,2.654c-2.094,0.379-3.495,1.517-4.468,1.995C0.016,19.215,0,20.221,0,20.221z"/>
</g>
<g id="_x34__fixed_mobile">
	<g>
		<path style="fill-rule:evenodd;clip-rule:evenodd;" d="M27.925,9.84H14.288v15.341h13.637V9.84z M24.516,6.431h-6.818v1.705h6.818
			V6.431z M21.107,30.295c0.937,0,1.705-0.767,1.705-1.705s-0.767-1.705-1.705-1.705c-0.937,0-1.705,0.767-1.705,1.705
			S20.169,30.295,21.107,30.295z M26.22,32H15.993c-1.875,0-3.409-1.534-3.409-3.409V8.136c0-1.875,1.534-3.409,3.409-3.409H26.22
			c1.875,0,3.409,1.534,3.409,3.409v20.455C29.63,30.466,28.096,32,26.22,32z"/>
		<path d="M17.445,14.427l-2.617,2.154l1.063,1.3c0,0-2.863-0.98-5.528-4.223C8.184,10.994,7.42,8.619,7.492,7.61l0.893,1.091
			l2.631-2.137L5.648,0L3.031,2.154l0.04,0.048c-1.798,2.354-0.062,8.391,4.387,13.831c4.737,5.794,10.107,9.235,12.724,7.096
			l2.616-2.139L17.445,14.427z"/>
	</g>
</g>
<g id="_x35__voicemail" style="display:none;">
	<g style="display:inline;">
		<path d="M24.488,32L8.47,31.992c-3.306-0.171-5.942-2.914-5.942-6.262c0-3.457,2.813-6.27,6.27-6.27s6.27,2.813,6.27,6.27
			c0,1.576-0.585,3.018-1.548,4.121h5.859c-0.964-1.103-1.548-2.545-1.548-4.121c0-3.457,2.813-6.27,6.27-6.27s6.27,2.813,6.27,6.27
			c0,3.328-2.605,6.058-5.882,6.258V32z M24.101,29.851c2.272,0,4.12-1.848,4.12-4.121s-1.849-4.121-4.12-4.121
			c-2.272,0-4.121,1.848-4.121,4.121S21.828,29.851,24.101,29.851z M8.798,29.851c2.272,0,4.12-1.848,4.12-4.121
			s-1.849-4.121-4.12-4.121c-2.272,0-4.121,1.848-4.121,4.121S6.525,29.851,8.798,29.851z M11.225,8.963l0.004-3.481L9.504,5.475
			c0,0,2.648-1.628,6.959-1.621c3.534,0.014,5.915,0.961,6.668,1.677l-1.448-0.006l-0.025,3.481l8.709,0.036l0.004-3.481l-0.064,0
			C29.617,2.599,23.698,0.03,16.48,0C8.793-0.032,2.556,1.975,2.541,5.446l-0.015,3.47L11.225,8.963z M11.228,14.863l5.208,5.208
			l5.233-5.233l-3.466,0l-0.009-5.199h-3.518l-0.043,5.233L11.228,14.863z"/>
	</g>
</g>
<g id="_x36__sounds" style="display:none;">
	<g style="display:inline;">
		<path d="M25.326,12.953c0.219,0,0.406,0.179,0.406,0.406v2.031v8.125h-0.016c-0.13,0.812-1.349,2.031-2.827,2.031
			c-1.568,0-2.844-0.999-2.844-2.234c0-1.235,1.275-2.234,2.844-2.234c0.439,0,1.219,0.073,1.219,0.211v-5.086H18.42v7.109v0.203
			h-0.016c-0.13,0.812-1.349,2.031-2.827,2.031c-1.568,0-2.844-0.999-2.844-2.234c0-1.235,1.275-2.234,2.844-2.234
			c0.439,0,1.219,0.073,1.219,0.211v-5.898V13.36c0-0.227,0.179-0.406,0.406-0.406H25.326z M6,23H2V2h21v4h2V0H0v25h6V23z M30,9H9
			v21h21V9 M32,7v25H7V7H32L32,7z"/>
	</g>
</g>
<g id="_x37__opening_hours" style="display:none;">
	<path style="display:inline;fill-rule:evenodd;clip-rule:evenodd;" d="M16,8h-2v8v2h2h6v-2h-6V8z M16,28C9.38,28,4,22.62,4,16
		C4,9.38,9.38,4,16,4c6.62,0,12,5.38,12,12C28,22.62,22.62,28,16,28z M16,0C7.16,0,0,7.16,0,16c0,8.84,7.16,16,16,16
		c8.84,0,16-7.16,16-16C32,7.16,24.84,0,16,0z"/>
</g>
<g id="_x38__messages" style="display:none;">
	<path style="display:inline;fill-rule:evenodd;clip-rule:evenodd;" d="M24.111,5.47v2.903c2.08,1.875,3.429,4.595,3.429,7.612
		c0,3.017-1.348,5.737-3.429,7.612v2.903c3.429-2.24,5.714-6.103,5.714-10.515C29.825,11.572,27.54,7.71,24.111,5.47z M19.54,31.984
		v-32L8.454,11.413h-7.2v9.051h7.2L19.54,31.984z M20.294,29.607h-0.115l0.115,0.091V29.607z"/>
</g>
<g id="_x39__music_on_hold" style="display:none;">
	<path style="display:inline;" d="M26.663,28.325l-2.718,2.718c-2.719,2.718-9.188-0.567-15.207-6.587
		C3.085,18.804,0.435,12.168,2.202,9.299L2.152,9.25l2.718-2.735l6.82,6.819l-2.735,2.718l-1.134-1.133
		c0.033,1.151,1.168,3.752,3.936,6.519c3.385,3.368,6.737,4.152,6.737,4.152l-1.351-1.351l2.718-2.735L26.663,28.325z M28.956,9.097
		L28.956,9.097l-0.091-0.173l-0.182-0.346l-3.905-7.437c-0.15-0.287-0.505-0.397-0.791-0.246l-6.1,5.189c0,0-0.457,0.39-0.246,0.791
		l3.269,6.226l0.423,0.806c-0.298,0.064-0.613,0.176-0.925,0.34c-1.051,0.552-1.658,1.464-1.358,2.037
		c0.301,0.573,1.397,0.59,2.447,0.039c1.051-0.552,1.658-1.464,1.358-2.037L19.96,8.773l5.207-4.37l1.752,3.336l0.514,0.979
		c-0.298,0.064-0.613,0.176-0.925,0.34c-1.051,0.552-1.658,1.464-1.357,2.037c0.301,0.573,1.397,0.59,2.447,0.039
		C28.649,10.582,29.256,9.67,28.956,9.097L28.956,9.097z M11.287,0.007c0,0-1.116,0.735-0.905,1.136l3.269,6.226l0.423,0.806
		c-0.298,0.064-0.613,0.176-0.925,0.34c-1.051,0.552-1.658,1.464-1.358,2.037c0.301,0.573,1.397,0.59,2.447,0.039
		c1.051-0.552,1.658-1.464,1.358-2.037L11.287,0.007z"/>
</g>
<g id="_x31_0_fax_inbound" style="display:none;">
	<path style="display:inline;fill-rule:evenodd;clip-rule:evenodd;" d="M31.521,28.047c0,2.166-1.756,3.922-3.922,3.922H9.296
		c-2.166,0-3.922-1.756-3.922-3.922v-8.498c0-2.166,1.756-3.922,3.922-3.922h18.303c2.166,0,3.922,1.756,3.922,3.922V28.047z
		 M4.313,19.953c0-1.174-0.952-2.125-2.125-2.125l0,0c-1.174,0-2.125,0.952-2.125,2.125V28.1c0,1.174,0.952,2.125,2.125,2.125l0,0
		c1.174,0,2.125-0.952,2.125-2.125V19.953z M9.296,22.872c0.767,0,1.389-0.622,1.389-1.389s-0.622-1.389-1.389-1.389
		s-1.389,0.622-1.389,1.389S8.529,22.872,9.296,22.872z M9.296,27.202c0.767,0,1.389-0.622,1.389-1.389s-0.622-1.389-1.389-1.389
		s-1.389,0.622-1.389,1.389S8.529,27.202,9.296,27.202z M14.851,23.591l3.58,3.595l3.613-3.597l-2.387-0.005l-0.015-3.599
		l-2.407,0.013l-0.015,3.581L14.851,23.591z M10.603,15.627V-0.031h7.844l7.844,7.857v7.801h-2.615V9.12H17.14V2.583h-3.922v13.043
		H10.603z M18.447,7.813h5.229l-5.229-5.217V7.813z M14.525,14.35h7.844v-1.307h-7.844V14.35z M22.369,10.428h-7.844v1.307h7.844
		V10.428z"/>
</g>
<g id="_x31_1_fax_outbound" style="display:none;">
	<path style="display:inline;fill-rule:evenodd;clip-rule:evenodd;" d="M31.458,28.078c0,2.166-1.756,3.922-3.922,3.922H9.233
		c-2.166,0-3.922-1.756-3.922-3.922V19.58c0-2.166,1.756-3.922,3.922-3.922h18.303c2.166,0,3.922,1.756,3.922,3.922V28.078z
		 M4.251,19.984c0-1.174-0.952-2.125-2.125-2.125l0,0C0.952,17.859,0,18.811,0,19.984v8.147c0,1.174,0.952,2.125,2.125,2.125l0,0
		c1.174,0,2.125-0.952,2.125-2.125V19.984z M9.233,22.903c0.767,0,1.389-0.622,1.389-1.389S10,20.125,9.233,20.125
		s-1.389,0.622-1.389,1.389S8.466,22.903,9.233,22.903z M9.233,27.234c0.767,0,1.389-0.622,1.389-1.389
		c0-0.767-0.622-1.389-1.389-1.389s-1.389,0.622-1.389,1.389C7.844,26.612,8.466,27.234,9.233,27.234z M21.965,23.54l-3.58-3.595
		l-3.613,3.597l2.387,0.005l-0.002,3.581l2.466-0.004v-3.604L21.965,23.54z M10.541,15.658V0h7.844l7.844,7.857v7.801h-2.615V9.151
		h-6.537V2.615h-3.922v13.043H10.541z M18.385,7.844h5.229l-5.229-5.217V7.844z M22.307,10.459h-7.844v1.307h7.844V10.459z
		 M14.463,14.381h7.844v-1.307h-7.844V14.381z"/>
</g>
<g id="_x31_4_ivr" style="display:none;">
	<path style="display:inline;" d="M16.807,15.316h-1.368V3.527h1.368V15.316z M24,15.316H8v1.368h16V15.316z M24.574,3.527h-7.767
		v1.368h7.767V3.527z M24.574,27.105h-9.109v1.368h9.109V27.105z M32,0h-8v8h8V0z M32,24h-8v8h8V24z M32,12h-8v8h8V12z M8,12H0v8h8
		V12z M16.807,16.684h-1.368v10.421h1.368V16.684z"/>
</g>
<g id="_x31_5_queue" style="display:none;">
	<path style="display:inline;fill-rule:evenodd;clip-rule:evenodd;" d="M27.94,20.471v0.349c0,0.699-0.593,1.467-1.554,1.467h-2.358
		c-0.402-0.332-0.942-0.698-1.676-1.048c-1.362-0.681-3.353-2.34-6.321-2.881c0.402-0.471,0.75-1.1,1.082-1.816
		c0.28-0.088,0.559-0.157,0.856-0.21c-0.175-0.175-0.332-0.401-0.471-0.646l0.471-1.17c0.297-0.96,0.245-1.746,0.245-2.881
		c0-0.838,0.174-2.166-0.053-2.934c-0.14-0.524-0.314-0.96-0.524-1.345c0.542-0.314,1.187-0.437,1.903-0.437
		c1.45,0,2.672,0.506,3.161,2.341c0.175,0.559,0.035,1.519,0.035,2.148c0,0.82,0.052,1.397-0.175,2.113
		c-0.471,1.17-0.908,2.165-1.45,2.811c2.218,0.402,3.702,1.607,4.732,2.113C27.923,19.406,27.94,20.471,27.94,20.471z
		 M19.558,21.239c-1.363-0.681-3.354-2.34-6.322-2.881c0.733-0.873,1.327-2.253,1.938-3.842c0.297-0.96,0.245-1.746,0.245-2.881
		c0-0.838,0.175-2.166-0.053-2.934c-0.645-2.497-2.287-3.178-4.226-3.178c-1.956,0-3.597,0.681-4.243,3.178
		c-0.193,0.768-0.053,2.113-0.053,2.934c0,1.135-0.052,1.921,0.315,2.881c0.576,1.589,1.135,2.986,1.886,3.842
		c-2.934,0.576-4.942,2.218-6.252,2.881C0,22.548,0,24.015,0,24.015v0.542c0,0.961,1.03,1.921,2.043,1.921h18.249
		c1.275,0,2.06-1.048,2.06-2.008v-0.455C22.352,24.015,22.317,22.548,19.558,21.239z M30.571,15.749
		c-0.702-0.345-1.714-1.167-3.227-1.441c0.369-0.441,0.667-1.119,0.988-1.917c0.155-0.488,0.119-0.881,0.119-1.441
		c0-0.429,0.095-1.084-0.024-1.464c-0.333-1.25-1.167-1.596-2.155-1.596c-0.488,0-0.928,0.084-1.298,0.298
		c0.143,0.262,0.262,0.56,0.357,0.917c0.155,0.524,0.036,1.429,0.036,2c0,0.774,0.035,1.31-0.167,1.964l-0.321,0.798
		c0.095,0.167,0.202,0.321,0.321,0.441c-0.202,0.036-0.393,0.083-0.584,0.143c-0.226,0.488-0.464,0.917-0.738,1.238
		c2.024,0.369,3.381,1.5,4.309,1.964c0.501,0.238,0.869,0.488,1.143,0.714h1.607c0.655,0,1.06-0.524,1.06-1V17.13
		C32,17.13,31.988,16.404,30.571,15.749z"/>
</g>
<g id="_x31_6_conference" style="display:none;">
	<path style="display:inline;fill-rule:evenodd;clip-rule:evenodd;" d="M22.666,13.14v0.271c0,0.572-0.468,1.197-1.228,1.197H10.559
		c-0.604,0-1.218-0.572-1.218-1.145V13.14c0,0,0-0.874,1.666-1.655c0.781-0.395,1.978-1.374,3.727-1.718
		c-0.448-0.51-0.781-1.343-1.124-2.29c-0.219-0.572-0.188-1.041-0.188-1.718c0-0.489-0.083-1.291,0.032-1.749
		c0.385-1.488,1.363-1.894,2.529-1.894c1.156,0,2.134,0.406,2.519,1.894c0.136,0.458,0.032,1.249,0.032,1.749
		c0,0.677,0.031,1.145-0.146,1.718c-0.364,0.948-0.718,1.77-1.155,2.29c1.769,0.323,2.956,1.311,3.769,1.718
		C22.645,12.266,22.666,13.14,22.666,13.14z M30.335,26.605c-0.812-0.406-1.999-1.395-3.769-1.718
		c0.437-0.521,0.791-1.343,1.155-2.29c0.177-0.572,0.146-1.041,0.146-1.718c0-0.5,0.104-1.291-0.032-1.749
		c-0.385-1.488-1.363-1.894-2.519-1.894c-1.166,0-2.145,0.406-2.529,1.894c-0.115,0.458-0.032,1.26-0.032,1.749
		c0,0.677-0.031,1.145,0.188,1.718c0.344,0.948,0.677,1.78,1.124,2.29c-1.749,0.344-2.946,1.322-3.727,1.718
		c-1.666,0.781-1.666,1.655-1.666,1.655v0.323c0,0.573,0.614,1.145,1.218,1.145h10.879c0.76,0,1.228-0.625,1.228-1.197V28.26
		C32,28.26,31.979,27.385,30.335,26.605z M11.66,26.605c-0.812-0.406-1.999-1.395-3.769-1.718c0.437-0.521,0.791-1.343,1.155-2.29
		c0.177-0.572,0.146-1.041,0.146-1.718c0-0.5,0.104-1.291-0.032-1.749c-0.385-1.488-1.363-1.894-2.519-1.894
		c-1.166,0-2.145,0.406-2.529,1.894c-0.115,0.458-0.032,1.26-0.032,1.749c0,0.677-0.031,1.145,0.188,1.718
		c0.344,0.948,0.677,1.78,1.124,2.29c-1.749,0.344-2.946,1.322-3.727,1.718C0,27.385,0,28.26,0,28.26v0.323
		c0,0.573,0.614,1.145,1.218,1.145h10.879c0.76,0,1.228-0.625,1.228-1.197V28.26C13.325,28.26,13.304,27.385,11.66,26.605z
		 M20.207,24.213L17,20.924V17h-2v3.924l-3.205,3.289l1.22,1.178l2.967-2.944l2.996,2.944L20.207,24.213z"/>
</g>
<g id="_x31_7_pickup_group" style="display:none;">
	<path style="display:inline;" d="M0.793,9.846l0-3.793c0.001-3.794,6.808-6.017,15.211-6.016c7.89-0.001,14.372,2.781,15.14,6.016
		l0.07-0.001l0.012,3.805l-9.52,0.001l0.012-3.805L23.3,6.051c-0.826-0.78-3.433-1.804-7.297-1.803
		c-4.713,0.011-7.6,1.804-7.6,1.804l1.885,0l0.012,3.806L0.793,9.846z M19.283,18.81c-0.532-0.266-1.31-0.914-2.469-1.125
		c0.286-0.341,0.518-0.88,0.757-1.5c0.116-0.375,0.096-0.682,0.096-1.125c0-0.327,0.068-0.846-0.021-1.146
		c-0.252-0.975-0.893-1.241-1.65-1.241c-0.764,0-1.405,0.266-1.657,1.241c-0.075,0.3-0.021,0.825-0.021,1.146
		c0,0.443-0.02,0.75,0.123,1.125c0.225,0.621,0.443,1.166,0.737,1.5c-1.146,0.225-1.93,0.866-2.441,1.125
		c-1.091,0.511-1.091,1.084-1.091,1.084v0.211c0,0.375,0.402,0.75,0.798,0.75h7.126c0.498,0,0.804-0.409,0.804-0.784v-0.178
		C20.373,19.894,20.36,19.321,19.283,18.81z M30.135,18.81c-0.532-0.266-1.31-0.914-2.469-1.125c0.286-0.341,0.518-0.88,0.757-1.5
		c0.116-0.375,0.096-0.682,0.096-1.125c0-0.327,0.068-0.846-0.021-1.146c-0.252-0.975-0.893-1.241-1.65-1.241
		c-0.764,0-1.405,0.266-1.657,1.241c-0.075,0.3-0.021,0.825-0.021,1.146c0,0.443-0.02,0.75,0.123,1.125
		c0.225,0.621,0.443,1.166,0.737,1.5c-1.146,0.225-1.93,0.866-2.441,1.125c-1.091,0.511-1.091,1.084-1.091,1.084v0.211
		c0,0.375,0.402,0.75,0.798,0.75h7.126c0.498,0,0.804-0.409,0.804-0.784v-0.178C31.225,19.894,31.212,19.321,30.135,18.81z
		 M8.43,18.81c-0.532-0.266-1.31-0.914-2.469-1.125c0.286-0.341,0.518-0.88,0.757-1.5c0.116-0.375,0.096-0.682,0.096-1.125
		c0-0.327,0.068-0.846-0.021-1.146c-0.252-0.975-0.893-1.241-1.65-1.241c-0.764,0-1.405,0.266-1.657,1.241
		c-0.075,0.3-0.021,0.825-0.021,1.146c0,0.443-0.02,0.75,0.123,1.125c0.225,0.621,0.443,1.166,0.737,1.5
		c-1.146,0.225-1.93,0.866-2.441,1.125c-1.091,0.511-1.091,1.084-1.091,1.084v0.211c0,0.375,0.402,0.75,0.798,0.75h7.126
		c0.498,0,0.804-0.409,0.804-0.784v-0.178C9.521,19.894,9.508,19.321,8.43,18.81z M19.283,29.99
		c-0.532-0.266-1.31-0.914-2.469-1.125c0.286-0.341,0.518-0.88,0.757-1.5c0.116-0.375,0.096-0.682,0.096-1.125
		c0-0.327,0.068-0.846-0.021-1.146c-0.252-0.975-0.893-1.241-1.65-1.241c-0.764,0-1.405,0.266-1.657,1.241
		c-0.075,0.3-0.021,0.825-0.021,1.146c0,0.443-0.02,0.75,0.123,1.125c0.225,0.621,0.443,1.166,0.737,1.5
		c-1.146,0.225-1.93,0.866-2.441,1.125c-1.091,0.511-1.091,1.084-1.091,1.084v0.211c0,0.375,0.402,0.75,0.798,0.75h7.126
		c0.498,0,0.804-0.409,0.804-0.784v-0.178C20.373,31.074,20.36,30.501,19.283,29.99z M30.135,29.99
		c-0.532-0.266-1.31-0.914-2.469-1.125c0.286-0.341,0.518-0.88,0.757-1.5c0.116-0.375,0.096-0.682,0.096-1.125
		c0-0.327,0.068-0.846-0.021-1.146c-0.252-0.975-0.893-1.241-1.65-1.241c-0.764,0-1.405,0.266-1.657,1.241
		c-0.075,0.3-0.021,0.825-0.021,1.146c0,0.443-0.02,0.75,0.123,1.125c0.225,0.621,0.443,1.166,0.737,1.5
		c-1.146,0.225-1.93,0.866-2.441,1.125c-1.091,0.511-1.091,1.084-1.091,1.084v0.211c0,0.375,0.402,0.75,0.798,0.75h7.126
		c0.498,0,0.804-0.409,0.804-0.784v-0.178C31.225,31.074,31.212,30.501,30.135,29.99z M8.43,29.99
		c-0.532-0.266-1.31-0.914-2.469-1.125c0.286-0.341,0.518-0.88,0.757-1.5c0.116-0.375,0.096-0.682,0.096-1.125
		c0-0.327,0.068-0.846-0.021-1.146c-0.252-0.975-0.893-1.241-1.65-1.241c-0.764,0-1.405,0.266-1.657,1.241
		c-0.075,0.3-0.021,0.825-0.021,1.146c0,0.443-0.02,0.75,0.123,1.125c0.225,0.621,0.443,1.166,0.737,1.5
		c-1.146,0.225-1.93,0.866-2.441,1.125c-1.091,0.511-1.091,1.084-1.091,1.084v0.211c0,0.375,0.402,0.75,0.798,0.75h7.126
		c0.498,0,0.804-0.409,0.804-0.784v-0.178C9.521,31.074,9.508,30.501,8.43,29.99z"/>
</g>
<g id="_x31_8_listen_in" style="display:none;">
	<path style="display:inline;" d="M28.073,14.354c-0.179,0.676-0.322,1.365-0.545,2.027c-0.951,2.83-2.722,5.017-5.243,6.609
		c-0.421,0.266-0.843,0.554-1.194,0.903c-0.494,0.49-0.664,1.143-0.729,1.829c-0.314,3.32-2.849,5.932-6.155,6.242
		c-2.463,0.232-4.517-0.645-6.088-2.576c-0.719-0.883-0.591-2.099,0.257-2.783c0.861-0.695,2.046-0.575,2.781,0.303
		c0.779,0.931,1.757,1.325,2.947,1.098c1.345-0.257,2.231-1.356,2.374-2.799c0.226-2.293,1.303-4.092,3.287-5.279
		c1.576-0.944,2.853-2.145,3.643-3.819c2.461-5.216-0.716-11.192-6.416-12.078C13.156,3.435,9.346,5.638,7.89,9.315
		c-0.294,0.741-0.752,1.263-1.553,1.415C4.84,11.015,3.611,9.593,4.129,8.158C5.021,5.686,6.563,3.705,8.723,2.21
		c1.811-1.254,3.819-1.966,6.016-2.147c0.086-0.007,0.17-0.041,0.255-0.063c0.492,0,0.984,0,1.476,0
		c0.085,0.021,0.17,0.055,0.257,0.061c1.19,0.079,2.345,0.33,3.451,0.766c3.487,1.374,5.907,3.822,7.232,7.325
		c0.29,0.767,0.446,1.584,0.664,2.378C28.073,11.805,28.073,13.079,28.073,14.354z M15.469,6.389
		c-0.189,0.015-0.379,0.03-0.566,0.062c-2.442,0.424-4.105,1.801-4.982,4.114c-0.255,0.672,0.104,1.379,0.77,1.64
		c0.64,0.25,1.354-0.046,1.654-0.689c0.056-0.121,0.099-0.249,0.154-0.371c1.052-2.372,4.218-2.89,5.97-0.975
		c0.656,0.717,0.952,1.568,0.964,2.535c0.009,0.736,0.594,1.302,1.305,1.297c0.725-0.005,1.282-0.563,1.293-1.303
		c0.004-0.245,0.009-0.494-0.021-0.736c-0.395-3.231-2.967-5.54-6.206-5.576C15.693,6.387,15.58,6.38,15.469,6.389z M11.612,18.256
		c-0.979,0-1.772,0.794-1.772,1.772s0.794,1.772,1.772,1.772s1.772-0.794,1.772-1.772S12.591,18.256,11.612,18.256z"/>
</g>
<g id="_x31_9_filter" style="display:none;">
	<path style="display:inline;" d="M16.153,0C2.138,0,1.222,3.055,1.222,3.055l12.22,17.795v7.408L18.864,32V20.85L30.778,3.208
		C30.778,3.208,30.167,0,16.153,0z M16,5.422c-6.77,0-12.258-0.821-12.258-1.833S9.23,1.757,16,1.757
		c6.77,0,12.258,0.821,12.258,1.833S22.77,5.422,16,5.422z"/>
</g>
<g id="_x32_0_area_group" style="display:none;">
	<path style="display:inline;fill-rule:evenodd;clip-rule:evenodd;" d="M8.5,19.033c-1.482,2.99-3.214,5.848-3.214,5.848
		S0,16.169,0,13.252c0-2.918,2.368-5.286,5.286-5.286c1.209,0,2.311,0.423,3.202,1.107c-0.39,0.613-0.685,1.282-0.917,1.984
		c-0.577-0.6-1.384-0.977-2.285-0.977c-1.755,0-3.172,1.416-3.172,3.172c0,1.755,1.416,3.172,3.172,3.172
		c0.798,0,1.518-0.303,2.075-0.788C7.606,16.637,7.994,17.785,8.5,19.033z M20.546,13.464c0-2.516-2.03-4.546-4.546-4.546
		c-2.516,0-4.546,2.03-4.546,4.546c0,2.516,2.03,4.546,4.546,4.546C18.516,18.01,20.546,15.98,20.546,13.464z M23.576,13.464
		c0,4.182-7.576,16.667-7.576,16.667S8.424,17.646,8.424,13.464c0-4.182,3.394-7.576,7.576-7.576
		C20.182,5.888,23.576,9.282,23.576,13.464z M26.714,7.966c-1.189,0-2.275,0.408-3.158,1.071c0.383,0.616,0.675,1.285,0.9,1.988
		c0.575-0.583,1.373-0.945,2.258-0.945c1.755,0,3.172,1.416,3.172,3.172c0,1.755-1.416,3.172-3.172,3.172
		c-0.809,0-1.538-0.31-2.098-0.807c-0.251,0.996-0.642,2.133-1.143,3.362c1.488,3.01,3.241,5.902,3.241,5.902S32,16.169,32,13.252
		S29.632,7.966,26.714,7.966z"/>
</g>
<g id="_x32_1_area_routing" style="display:none;">
	<g style="display:inline;">
		<path style="fill-rule:evenodd;clip-rule:evenodd;" d="M30.412,0v5.109l-1.709-1.683l-2.546,2.547l-1.726-1.726l2.546-2.572
			L25.303,0H30.412z M4.932,30.331l2.55-2.575l-1.728-1.728l-2.558,2.55l-1.703-1.703V32h5.117L4.932,30.331z M7.465,4.254
			L4.926,1.706l1.678-1.696H1.51v5.104l1.67-1.67l2.556,2.539L7.465,4.254z M24.547,27.759l2.543,2.543L25.408,32h5.102v-5.094
			l-1.672,1.664l-2.56-2.543L24.547,27.759z M21.134,13.229c0-2.833-2.286-5.119-5.119-5.119c-2.833,0-5.119,2.286-5.119,5.119
			c0,2.833,2.286,5.119,5.119,5.119C18.847,18.348,21.134,16.062,21.134,13.229z M24.547,13.229c0,4.709-8.532,18.771-8.532,18.771
			S7.482,17.939,7.482,13.229c0-4.709,3.823-8.532,8.532-8.532C20.724,4.697,24.547,8.52,24.547,13.229z"/>
	</g>
</g>
<g id="_x32_2_voip_trunk" style="display:none;">
	<path style="display:inline;" d="M30.292,20.768c-0.495,0.518-1.087,0.86-1.766,1.022l-0.293-1.127
		c0.472-0.109,0.875-0.34,1.218-0.7c1.336-1.397,1.273-4.174,1.272-4.202c-0.133-3.832-4.781-3.99-4.978-3.995l-0.828-0.02
		l0.299-0.774c0.009-0.022,0.853-2.246-0.159-4.31c-0.705-1.437-2.145-2.487-4.283-3.122c-0.591-0.176-1.169-0.266-1.717-0.266
		c-3.637,0-5.266,3.993-5.282,4.032l-0.541,1.362l-0.541-1.361c-0.032-0.08-0.841-1.997-3.067-1.997
		c-0.484,0-1.012,0.091-1.565,0.271c-3.704,1.213-3.203,5.353-3.179,5.528l0.073,0.56l-0.557,0.095
		c-0.126,0.022-3.105,0.558-3.105,3.543c0.016,4.752,2.999,5.439,3.125,5.465l6.157,0.022L10.275,22h-5.97
		c-0.15,0-4.156-0.905-4.176-6.653c0-2.834,2.107-4.203,3.567-4.621C3.67,9.347,3.968,5.695,7.7,4.473
		c0.672-0.217,1.319-0.327,1.926-0.327c1.836,0,2.955,0.963,3.561,1.746c0.814-1.399,2.668-3.782,5.871-3.782
		c0.661,0,1.349,0.106,2.049,0.314c2.468,0.733,4.151,1.99,5.002,3.739c0.852,1.748,0.638,3.528,0.41,4.496
		c2.134,0.273,5.245,1.552,5.367,5.056C31.887,15.74,32.012,18.968,30.292,20.768z M29,26.818v0.629C29,28.681,27.87,30,26.675,30
		h-14.3C11.18,30,10,28.681,10,27.446v-0.629C10,25.583,11.18,25,12.375,25h14.3C27.87,25,29,25.583,29,26.818z M13.792,27.132
		c0-0.613-0.497-1.11-1.11-1.11c-0.613,0-1.11,0.497-1.11,1.11c0,0.613,0.497,1.11,1.11,1.11
		C13.295,28.242,13.792,27.745,13.792,27.132z M17.349,27.132c0-0.613-0.497-1.11-1.11-1.11c-0.613,0-1.11,0.497-1.11,1.11
		c0,0.613,0.497,1.11,1.11,1.11C16.852,28.242,17.349,27.745,17.349,27.132z M21.066,27.132c0-0.613-0.497-1.11-1.11-1.11
		c-0.613,0-1.11,0.497-1.11,1.11c0,0.613,0.497,1.11,1.11,1.11C20.569,28.242,21.066,27.745,21.066,27.132z M27.524,27.132
		c0-0.613-0.497-1.11-1.11-1.11c-0.613,0-1.11,0.497-1.11,1.11c0,0.613,0.497,1.11,1.11,1.11
		C27.027,28.242,27.524,27.745,27.524,27.132z M28.712,24.702c-1.224-0.611-1.942-0.768-2.231-0.768c-0.1,0-0.149,0.065-0.149,0.065
		H19.67h-0.323h-6.662c0,0-0.048-0.012-0.149-0.012c-0.289,0-1.007,0.076-2.231,0.687l2.243-8.527c0,0,0.204-1.147,1.836-1.147
		c1.632,0,5.133,0,5.133,0s3.484,0,5.116,0c1.632,0,1.835,1.147,1.835,1.147L28.712,24.702z M24.868,21.098L24.852,20h-0.025
		c-0.285-1-2.614-2.397-5.439-2.373c-3.008,0.025-5.439,0.577-5.428,1.935l0.011,1.358l3.404-0.024l-0.016-1.362l-0.675,0.006
		c0,0,1.028-0.65,2.716-0.669c1.383-0.012,2.32,0.347,2.618,0.624l-0.567,0.005l0.007,1.362L24.868,21.098z"/>
</g>
<g id="_x32_3_sip_analysis" style="display:none;">
	<path style="display:inline;fill-rule:evenodd;clip-rule:evenodd;" d="M4,28V0H0v28v4h4h28v-4H4z M17.5,24.1L28.12,4.48L26.38,3.52
		L17.5,19.9L10.66,7.26L8.02,17.76l1.961,0.48l1.359-5.5L17.5,24.1z"/>
</g>
<g id="_x32_4_call_me_now" style="display:none;">
	<path style="display:inline;" d="M16.133,13.015L16.133,13.015c0.191,0,0.385,0.021,0.575,0.062
		c1.443,0.315,2.361,1.745,2.047,3.188c-0.266,1.222-1.365,2.109-2.613,2.109c-0.191,0-0.385-0.021-0.575-0.062
		c-1.443-0.315-2.361-1.745-2.047-3.188C13.787,13.902,14.886,13.015,16.133,13.015 M16.133,11.408
		c-1.972,0-3.746,1.369-4.183,3.374c-0.504,2.313,0.962,4.596,3.275,5.1c0.308,0.067,0.615,0.099,0.917,0.099
		c1.972,0,3.746-1.369,4.183-3.374c0.504-2.313-0.962-4.596-3.275-5.1C16.743,11.44,16.436,11.408,16.133,11.408L16.133,11.408z
		 M12.616,14.623H3.22v2.143h9.396V14.623z M4.291,14.632H2.148v8.572h2.143V14.632z M3.904,22.743
		c-1.734-0.378-3.447,0.721-3.825,2.455s0.721,3.447,2.455,3.825c1.734,0.378,3.447-0.721,3.825-2.455
		C6.738,24.833,5.638,23.121,3.904,22.743z M19.394,17.023h9.396V14.88h-9.396V17.023z M27.719,17.014h2.143V8.442h-2.143V17.014z
		 M28.106,8.904c1.734,0.378,3.447-0.721,3.825-2.455c0.378-1.734-0.721-3.447-2.455-3.825c-1.734-0.378-3.447,0.721-3.825,2.455
		C25.273,6.813,26.372,8.525,28.106,8.904z"/>
</g>
<g id="_x32_5_http_routing" style="display:none;">
	<g style="display:inline;">
		<path style="fill:none;" d="M14.302,13.617c-0.179-0.039-0.36-0.059-0.541-0.059c-1.174,0-2.207,0.834-2.458,1.984
			c-0.296,1.357,0.568,2.702,1.925,2.998c0.179,0.039,0.36,0.059,0.541,0.059c1.174,0,2.207-0.834,2.458-1.984
			C16.523,15.258,15.66,13.913,14.302,13.617z"/>
		<path style="fill:none;" d="M14.046,26.96c-0.939,0-1.766,0.667-1.966,1.587c-0.237,1.086,0.454,2.162,1.54,2.399
			c0.143,0.031,0.288,0.047,0.432,0.047c0.939,0,1.766-0.667,1.966-1.587c0.115-0.526,0.018-1.065-0.273-1.518
			c-0.291-0.453-0.741-0.766-1.267-0.88C14.335,26.975,14.19,26.96,14.046,26.96z"/>
		<path style="fill:none;" d="M28.137,4.541c-0.143-0.031-0.288-0.047-0.432-0.047c-0.939,0-1.766,0.667-1.966,1.587
			c-0.115,0.526-0.018,1.065,0.273,1.518c0.291,0.453,0.741,0.766,1.267,0.88c0.143,0.031,0.288,0.047,0.432,0.047
			c0.939,0,1.766-0.667,1.966-1.587C29.914,5.854,29.223,4.777,28.137,4.541z"/>
		<path d="M10.201,3.983c0.149,0.034,0.298,0.046,0.445,0.046l0.207,0.892c0.054,0.232,0.262,0.39,0.491,0.39
			c0.037,0,0.076-0.004,0.114-0.013c0.271-0.063,0.44-0.334,0.377-0.605L11.621,3.77c0.483-0.27,0.857-0.729,0.988-1.312
			c0.244-1.086-0.439-2.164-1.525-2.408C9.998-0.195,8.92,0.488,8.676,1.574C8.432,2.661,9.115,3.739,10.201,3.983z"/>
		<path d="M25.445,24.777c-0.512-0.112-1.018-0.012-1.438,0.232l-1.197-1.19c-0.199-0.193-0.516-0.193-0.715,0.002
			c-0.195,0.199-0.195,0.518,0.002,0.715l1.193,1.186c-0.108,0.182-0.197,0.378-0.244,0.596c-0.237,1.088,0.452,2.162,1.54,2.399
			c1.088,0.237,2.162-0.452,2.399-1.54C27.222,26.088,26.532,25.014,25.445,24.777z"/>
		<path d="M28.352,3.556c-0.217-0.047-0.434-0.07-0.647-0.07c-1.391,0-2.643,0.966-2.951,2.38c-0.163,0.747-0.023,1.485,0.321,2.105
			l-8.095,5.703c-0.56-0.749-1.369-1.319-2.355-1.534c-0.289-0.063-0.578-0.093-0.863-0.093c-0.074,0-0.144,0.015-0.217,0.019
			l-0.343-1.483c-0.062-0.271-0.333-0.44-0.605-0.377c-0.271,0.063-0.44,0.334-0.377,0.605l0.332,1.433
			c-1.329,0.423-2.405,1.516-2.724,2.976c-0.138,0.633-0.103,1.258,0.046,1.845l-1.281,0.375c-0.267,0.079-0.42,0.358-0.341,0.626
			c0.064,0.22,0.265,0.362,0.483,0.362c0.046,0,0.094-0.006,0.142-0.02l1.37-0.401c0.541,0.987,1.476,1.751,2.662,2.01
			c0.167,0.036,0.332,0.039,0.497,0.054l0.122,5.926c-1.173,0.206-2.162,1.099-2.432,2.334c-0.356,1.632,0.679,3.242,2.31,3.598
			c0.217,0.047,0.434,0.07,0.647,0.07c1.391,0,2.643-0.966,2.951-2.38c0.356-1.631-0.679-3.242-2.31-3.598
			c-0.053-0.012-0.105-0.008-0.158-0.017l-0.122-5.949c0.799-0.13,1.528-0.506,2.109-1.053l1.262,1.253
			c0.098,0.096,0.227,0.146,0.355,0.146c0.13,0,0.26-0.049,0.358-0.15c0.195-0.197,0.195-0.516-0.004-0.713l-1.317-1.309
			c0.244-0.386,0.425-0.821,0.528-1.292c0.181-0.832,0.088-1.658-0.214-2.39l8.216-5.789c0.376,0.335,0.831,0.591,1.357,0.706
			c0.217,0.047,0.434,0.07,0.647,0.07c1.391,0,2.643-0.966,2.951-2.38C31.018,5.523,29.983,3.912,28.352,3.556z M15.745,27.887
			c0.291,0.453,0.388,0.992,0.273,1.518c-0.2,0.92-1.028,1.587-1.966,1.587c-0.144,0-0.29-0.016-0.432-0.047
			c-1.086-0.237-1.777-1.313-1.54-2.399c0.2-0.92,1.027-1.587,1.966-1.587c0.144,0,0.29,0.016,0.432,0.047
			C15.004,27.121,15.454,27.434,15.745,27.887z M13.77,18.599c-0.18,0-0.362-0.02-0.541-0.059c-1.357-0.296-2.221-1.641-1.925-2.998
			c0.251-1.149,1.284-1.984,2.458-1.984c0.18,0,0.362,0.02,0.541,0.059c1.357,0.296,2.221,1.641,1.925,2.998
			C15.977,17.765,14.943,18.599,13.77,18.599z M29.677,6.939c-0.2,0.92-1.027,1.587-1.966,1.587c-0.144,0-0.289-0.016-0.432-0.047
			c-0.526-0.115-0.976-0.427-1.267-0.88c-0.291-0.453-0.388-0.992-0.273-1.518c0.201-0.92,1.027-1.587,1.966-1.587
			c0.144,0,0.29,0.016,0.432,0.047C29.223,4.777,29.914,5.854,29.677,6.939z"/>
		<path d="M19.932,20.964c-0.197-0.195-0.516-0.195-0.713,0.004c-0.195,0.197-0.195,0.516,0.004,0.713l1.437,1.427
			c0.098,0.096,0.226,0.146,0.354,0.146c0.13,0,0.26-0.049,0.358-0.15c0.195-0.197,0.195-0.516-0.004-0.713L19.932,20.964z"/>
		<path d="M6.658,18.006l-1.604,0.47c-0.267-0.509-0.742-0.906-1.348-1.038c-1.088-0.237-2.162,0.452-2.399,1.54
			c-0.237,1.088,0.452,2.162,1.54,2.399c1.088,0.237,2.162-0.452,2.399-1.54c0.028-0.127,0.04-0.253,0.043-0.379l1.651-0.484
			c0.267-0.079,0.42-0.358,0.342-0.626C7.205,18.081,6.926,17.929,6.658,18.006z"/>
		<path d="M11.685,6.279c-0.271,0.063-0.44,0.334-0.377,0.605l0.456,1.964c0.054,0.232,0.262,0.39,0.491,0.39
			c0.037,0,0.076-0.004,0.114-0.013c0.271-0.063,0.44-0.334,0.377-0.605L12.29,6.656C12.228,6.386,11.963,6.219,11.685,6.279z"/>
	</g>
</g>
<g id="_x32_6_klik_en_bel" style="display:none;">
	<g style="display:inline;">
		<path d="M23.464,31.984c-1.024,0-2.048,0.015-3.072-0.005c-0.894-0.018-1.207-0.621-0.757-1.407
			c0.21-0.367,0.448-0.724,0.616-1.11c0.744-1.712-0.442-3.253-1.611-3.933c-1.757-1.022-4.616-0.988-6.222,0.423
			c-1.274,1.118-1.612,2.572-0.777,4.062c0.186,0.331,0.335,0.689,0.454,1.051c0.154,0.469-0.107,0.89-0.591,0.894
			c-2.221,0.017-4.45,0.104-6.662-0.037c-1.328-0.084-2.374-1.344-2.446-2.786c-0.099-1.956-0.045-3.92-0.005-5.88
			c0.007-0.321,0.212-0.819,0.449-0.909c0.328-0.124,0.879-0.074,1.15,0.138c2.028,1.579,4.353,0.476,5.194-1.733
			c0.648-1.702,0.596-3.368-0.297-4.955c-0.973-1.729-2.78-2.33-4.569-1.35c-0.465,0.254-0.911,0.732-1.482,0.417
			c-0.593-0.327-0.467-0.971-0.469-1.53c-0.002-0.937,0.043-1.876-0.009-2.81c-0.097-1.731,1.45-3.385,3.313-3.301
			C7.433,7.3,9.2,7.238,10.965,7.24c0.44,0,0.841-0.011,1.118-0.472c0.291-0.484-0.056-0.819-0.195-1.192
			c-0.186-0.499-0.545-0.949-0.653-1.458c-0.279-1.322,0.665-2.83,1.897-3.439c1.306-0.645,2.631-0.86,4.034-0.515
			c1.688,0.416,2.912,1.265,3.304,3.104c0.176,0.827-0.286,1.521-0.646,2.235c-0.189,0.375-0.387,0.881-0.281,1.239
			c0.149,0.502,0.732,0.507,1.224,0.504c1.721-0.008,3.444,0.042,5.162-0.019c2.108-0.074,3.357,1.572,3.356,3.372
			c-0.001,0.98,0.055,1.964-0.014,2.939c-0.033,0.462-0.176,1.05-0.492,1.324c-0.417,0.361-0.93-0.007-1.353-0.301
			c-1.504-1.047-3.431-0.713-4.538,1.009c-1.311,2.04-1.228,4.713,0.487,6.599c1.062,1.167,2.58,1.397,3.927,0.566
			c0.49-0.302,1.07-0.742,1.532-0.358c0.333,0.276,0.424,0.966,0.441,1.478c0.05,1.589-0.004,3.18,0.015,4.77
			c0.022,1.753-1.215,3.505-3.345,3.369C25.122,31.94,24.292,31.984,23.464,31.984z"/>
	</g>
</g>
</svg>
