<?xml version="1.0" encoding="utf-8"?>
<!-- Generated by IcoMoon.io -->
<!DOCTYPE svg PUBLIC "-//W3C//DTD SVG 1.1//EN" "http://www.w3.org/Graphics/SVG/1.1/DTD/svg11.dtd">
<svg version="1.1" xmlns="http://www.w3.org/2000/svg" xmlns:xlink="http://www.w3.org/1999/xlink" width="32" height="32" viewBox="0 0 32 32">
<path fill="#000" d="M30.412 0v5.109l-1.709-1.683-2.546 2.547-1.726-1.726 2.546-2.572-1.674-1.675h5.109zM4.932 30.331l2.55-2.575-1.728-1.728-2.558 2.55-1.703-1.703v5.125h5.117l-1.678-1.669zM7.465 4.254l-2.539-2.548 1.678-1.696h-5.094v5.104l1.67-1.67 2.556 2.539 1.729-1.729zM24.547 27.759l2.543 2.543-1.682 1.698h5.102v-5.094l-1.672 1.664-2.56-2.543-1.731 1.732zM21.134 13.229c0-2.833-2.286-5.119-5.119-5.119s-5.119 2.286-5.119 5.119c0 2.833 2.286 5.119 5.119 5.119s5.119-2.286 5.119-5.119zM24.547 13.229c0 4.709-8.532 18.771-8.532 18.771s-8.533-14.061-8.533-18.771c0-4.709 3.823-8.532 8.532-8.532s8.533 3.823 8.533 8.532z"></path>
</svg>
