<?xml version="1.0" encoding="utf-8"?>
<!-- Generated by IcoMoon.io -->
<!DOCTYPE svg PUBLIC "-//W3C//DTD SVG 1.1//EN" "http://www.w3.org/Graphics/SVG/1.1/DTD/svg11.dtd">
<svg version="1.1" xmlns="http://www.w3.org/2000/svg" xmlns:xlink="http://www.w3.org/1999/xlink" width="32" height="32" viewBox="0 0 32 32">
<path fill="#444444" d="M5.635 15.229c-1.792 0-3.136-1.494-3.136-3.136 0-1.792 1.494-3.136 3.136-3.136 1.139 0 2.134 0.646 2.688 1.642 0.285-0.742 0.675-1.44 1.168-2.077-1.008-0.944-2.362-1.52-3.856-1.52-3.123 0-5.635 2.512-5.635 5.635 0 0.95 0.272 1.968 0.816 2.851l4.819 6.992 3.312-4.784c-0.618-1.018-1.005-2.189-1.126-3.363-0.579 0.557-1.363 0.896-2.186 0.896z"></path>
<path fill="#444444" d="M26.365 7.002c-1.494 0-2.851 0.576-3.856 1.52 0.477 0.614 0.861 1.29 1.142 2.006 0.557-0.957 1.603-1.574 2.717-1.574 1.642 0 2.986 1.344 3.136 3.136 0 1.792-1.494 3.136-3.136 3.136-0.867 0-1.629-0.352-2.186-0.899-0.112 1.165-0.47 2.291-1.059 3.299l-0.032 0.054-0.013 0.019 3.29 4.771 4.886-7.059c0.474-0.816 0.746-1.766 0.746-2.784 0-3.114-2.512-5.626-5.635-5.626z"></path>
<path fill="#444444" d="M16 7.002c-2.272 0-4.266 1.146-5.44 2.89-0.701 1.043-1.11 2.304-1.11 3.661 0 0.854 0.189 1.757 0.566 2.595 0.112 0.246 0.237 0.486 0.381 0.72l5.603 8.131 5.683-8.208c0.118-0.205 0.227-0.416 0.323-0.637 0.349-0.794 0.544-1.674 0.544-2.602 0-1.357-0.41-2.618-1.11-3.661-1.174-1.744-3.168-2.89-5.44-2.89zM16 16.57c-2.083 0-3.648-1.738-3.648-3.648 0-2.083 1.738-3.648 3.648-3.648s3.472 1.562 3.648 3.648c0 2.083-1.738 3.648-3.648 3.648z"></path>
</svg>
