<?xml version="1.0" encoding="utf-8"?>
<!-- Generated by IcoMoon.io -->
<!DOCTYPE svg PUBLIC "-//W3C//DTD SVG 1.1//EN" "http://www.w3.org/Graphics/SVG/1.1/DTD/svg11.dtd">
<svg version="1.1" xmlns="http://www.w3.org/2000/svg" xmlns:xlink="http://www.w3.org/1999/xlink" width="32" height="32" viewBox="0 0 32 32">
<g id="icomoon-ignore">
	<line stroke-width="1" x1="" y1="" x2="" y2="" stroke="#449FDB" opacity=""></line>
</g>
	<path d="M8.5 19.033c-1.482 2.99-3.214 5.848-3.214 5.848s-5.286-8.712-5.286-11.629c0-2.918 2.368-5.286 5.286-5.286 1.209 0 2.311 0.423 3.202 1.107-0.39 0.613-0.685 1.282-0.917 1.984-0.577-0.6-1.384-0.977-2.285-0.977-1.755 0-3.172 1.416-3.172 3.172s1.416 3.172 3.172 3.172c0.798 0 1.518-0.303 2.075-0.788 0.245 1.001 0.633 2.149 1.139 3.397zM20.546 13.464c0-2.516-2.030-4.546-4.546-4.546s-4.546 2.030-4.546 4.546c0 2.516 2.030 4.546 4.546 4.546s4.546-2.030 4.546-4.546zM23.576 13.464c0 4.182-7.576 16.667-7.576 16.667s-7.576-12.485-7.576-16.667c0-4.182 3.394-7.576 7.576-7.576s7.576 3.394 7.576 7.576zM26.714 7.966c-1.189 0-2.275 0.408-3.158 1.071 0.383 0.616 0.675 1.285 0.9 1.988 0.575-0.583 1.373-0.945 2.258-0.945 1.755 0 3.172 1.416 3.172 3.172s-1.416 3.172-3.172 3.172c-0.809 0-1.538-0.31-2.098-0.807-0.251 0.996-0.642 2.133-1.143 3.362 1.488 3.010 3.241 5.902 3.241 5.902s5.286-8.712 5.286-11.629-2.368-5.286-5.286-5.286z" fill="#000000"></path>
</svg>
