<?xml version="1.0" encoding="utf-8"?>
<!-- Generated by IcoMoon.io -->
<!DOCTYPE svg PUBLIC "-//W3C//DTD SVG 1.1//EN" "http://www.w3.org/Graphics/SVG/1.1/DTD/svg11.dtd">
<svg version="1.1" xmlns="http://www.w3.org/2000/svg" xmlns:xlink="http://www.w3.org/1999/xlink" width="32" height="32" viewBox="0 0 32 32">
<path fill="#444444" d="M23.235 3.2h-1.066v-1.677c0-0.915-0.608-1.523-1.523-1.523s-1.523 0.608-1.523 1.523v1.677h-6.25v-1.677c0-0.915-0.608-1.523-1.523-1.523s-1.526 0.608-1.526 1.523v1.677h-1.066c-2.742 0-5.027 2.285-5.027 5.027v18.742c0 2.742 2.285 5.027 5.027 5.027h14.477c2.742 0 5.027-2.285 5.027-5.027v-18.742c0.154-2.742-2.131-5.027-5.027-5.027zM23.235 29.104h-14.477c-1.066 0-1.981-0.915-1.981-1.981v-17.37h18.592v17.373c-0.003 1.066-0.915 1.978-2.134 1.978z"></path>
<path fill="#444444" d="M16.378 11.427h-0.608c-0.915 0-1.523 0.608-1.523 1.523s0.608 1.523 1.523 1.523h0.608c0.915 0 1.523-0.608 1.523-1.523 0-0.912-0.762-1.523-1.523-1.523z"></path>
<path fill="#444444" d="M21.712 11.427h-0.608c-0.915 0-1.523 0.608-1.523 1.523s0.608 1.523 1.523 1.523h0.608c0.915 0 1.523-0.608 1.523-1.523 0-0.912-0.611-1.523-1.523-1.523z"></path>
<path fill="#444444" d="M10.893 15.846h-0.608c-0.915 0-1.523 0.608-1.523 1.523s0.608 1.523 1.523 1.523h0.608c0.915 0 1.523-0.608 1.523-1.523 0-0.912-0.611-1.523-1.523-1.523z"></path>
<path fill="#444444" d="M16.378 15.846h-0.608c-0.915 0-1.523 0.608-1.523 1.523s0.608 1.523 1.523 1.523h0.608c0.915 0 1.523-0.608 1.523-1.523 0-0.912-0.762-1.523-1.523-1.523z"></path>
<path fill="#444444" d="M21.712 15.846h-0.608c-0.915 0-1.523 0.608-1.523 1.523s0.608 1.523 1.523 1.523h0.608c0.915 0 1.523-0.608 1.523-1.523 0-0.912-0.611-1.523-1.523-1.523z"></path>
<path fill="#444444" d="M10.893 20.115h-0.608c-0.915 0-1.523 0.608-1.523 1.523s0.608 1.523 1.523 1.523h0.608c0.915 0 1.523-0.608 1.523-1.523s-0.611-1.523-1.523-1.523z"></path>
<path fill="#444444" d="M16.378 20.115h-0.608c-0.915 0-1.523 0.608-1.523 1.523s0.608 1.523 1.523 1.523h0.608c0.915 0 1.523-0.608 1.523-1.523s-0.762-1.523-1.523-1.523z"></path>
<path fill="#444444" d="M21.712 20.115h-0.608c-0.915 0-1.523 0.608-1.523 1.523s0.608 1.523 1.523 1.523h0.608c0.915 0 1.523-0.608 1.523-1.523s-0.611-1.523-1.523-1.523z"></path>
<path fill="#444444" d="M10.893 24.381h-0.608c-0.915 0-1.523 0.608-1.523 1.523s0.608 1.523 1.523 1.523h0.608c0.915 0 1.523-0.608 1.523-1.523 0-0.912-0.611-1.523-1.523-1.523z"></path>
<path fill="#444444" d="M16.378 24.381h-0.608c-0.915 0-1.523 0.608-1.523 1.523s0.608 1.523 1.523 1.523h0.608c0.915 0 1.523-0.608 1.523-1.523 0-0.912-0.762-1.523-1.523-1.523z"></path>
</svg>
