<?xml version="1.0" encoding="utf-8"?>
<!-- Generated by IcoMoon.io -->
<!DOCTYPE svg PUBLIC "-//W3C//DTD SVG 1.1//EN" "http://www.w3.org/Graphics/SVG/1.1/DTD/svg11.dtd">
<svg version="1.1" xmlns="http://www.w3.org/2000/svg" xmlns:xlink="http://www.w3.org/1999/xlink" width="32" height="32" viewBox="0 0 32 32">
<g id="icomoon-ignore">
	<line stroke-width="1" x1="" y1="" x2="" y2="" stroke="#449FDB" opacity=""></line>
</g>
	<path d="M31.54 13.447l-4.399-4.399c0.528-0.894 0.836-1.932 0.836-3.045 0.001-3.315-2.687-6.003-6.003-6.003-3.165 0-5.757 2.45-5.985 5.557 0.020-0.546 0.129-1.082 0.289-1.58h-16.259v28.023h19.986v-20.335c0.569 0.22 1.283 0.342 1.983 0.342 1.113 0 2.145-0.308 3.038-0.836l4.395 4.399c0.272 0.272 0.645 0.44 1.060 0.44 0.829 0 1.5-0.672 1.5-1.501 0-0.415-0.169-0.79-0.441-1.062zM7.203 28.302h-2.987v-3.058h2.987v3.058zM7.203 23.892h-2.987v-3.058h2.987v3.058zM7.203 19.482h-2.987v-3.058h2.987v3.058zM7.203 15.002h-2.987v-2.987h2.987v2.987zM7.203 10.592h-2.987v-2.987h2.987v2.987zM11.541 28.302h-3.058v-3.058h3.058v3.058zM11.541 23.892h-3.058v-3.058h3.058v3.058zM11.541 19.482h-3.058v-3.058h3.058v3.058zM11.541 15.002h-3.058v-2.987h3.058v2.987zM11.541 10.592h-3.058v-2.987h3.058v2.987zM15.809 28.302h-2.987v-3.058h2.987v3.058zM15.809 23.892h-2.987v-3.058h2.987v3.058zM15.809 19.482h-2.987v-3.058h2.987v3.058zM15.809 15.002h-2.987v-2.987h2.987v2.987zM15.809 10.592h-2.987v-2.987h2.987v2.987zM21.974 10.506c-2.487 0-4.503-2.016-4.503-4.503s2.016-4.503 4.503-4.503c2.487 0 4.503 2.016 4.503 4.503s-2.016 4.503-4.503 4.503z" fill="#000000"></path>
</svg>
