<?xml version="1.0" encoding="utf-8"?>
<!-- Generated by IcoMoon.io -->
<!DOCTYPE svg PUBLIC "-//W3C//DTD SVG 1.1//EN" "http://www.w3.org/Graphics/SVG/1.1/DTD/svg11.dtd">
<svg version="1.1" xmlns="http://www.w3.org/2000/svg" xmlns:xlink="http://www.w3.org/1999/xlink" width="32" height="32" viewBox="0 0 32 32">
<path fill="#444444" d="M9.923 15.309c0.042-0.051 0.086-0.102 0.131-0.154-0.55-0.39-1.146-0.685-1.773-0.874 0.922-0.557 1.533-1.568 1.533-2.733 0-1.773-1.418-3.19-3.19-3.19-1.597 0-3.19 1.418-3.19 3.19 0 1.165 0.611 2.176 1.533 2.733-1.171 0.349-2.237 1.072-3.101 2.115-1.203 1.456-1.866 3.382-1.866 5.421 0 0.63 0.509 1.139 1.139 1.139s1.139-0.509 1.139-1.139c0-1.437 0.438-2.749 1.155-3.728v4.035c0 0.838 0.682 1.52 1.52 1.52h3.344c0.010 0 0.022 0 0.032 0-0.413-0.496-0.666-1.133-0.666-1.827 0-2.435 0.803-4.746 2.259-6.509z"></path>
<path fill="#444444" d="M30.131 16.397c-0.864-1.043-1.93-1.766-3.101-2.115 0.922-0.557 1.533-1.568 1.533-2.733 0-1.773-1.418-3.19-3.19-3.19-1.597 0-3.19 1.418-3.19 3.19 0 1.165 0.611 2.176 1.533 2.733-0.624 0.186-1.222 0.48-1.773 0.874 0.045 0.051 0.090 0.102 0.131 0.154 1.456 1.763 2.259 4.074 2.259 6.509 0 0.694-0.25 1.331-0.666 1.827 0.010 0 0.019 0 0.032 0h3.344c0.838 0 1.52-0.682 1.52-1.52v-4.038c0.717 0.979 1.155 2.291 1.155 3.728 0 0.63 0.509 1.139 1.139 1.139s1.139-0.509 1.139-1.139c0.003-2.035-0.659-3.962-1.866-5.418z"></path>
<path fill="#444444" d="M21.965 18.413c-0.304-0.736-0.707-1.414-1.206-2.016-0.022-0.029-0.048-0.054-0.070-0.083-0.851-0.998-1.891-1.693-3.030-2.032 0.922-0.557 1.533-1.568 1.533-2.733 0-1.773-1.418-3.19-3.19-3.19-1.597 0-3.19 1.418-3.19 3.19 0 1.165 0.611 2.176 1.533 2.733-1.139 0.339-2.179 1.034-3.030 2.032-0.022 0.029-0.048 0.054-0.070 0.083-0.496 0.602-0.902 1.283-1.206 2.016-0.080 0.195-0.154 0.39-0.221 0.592-0.291 0.886-0.445 1.834-0.445 2.81 0 0.323 0.138 0.618 0.352 0.822 0.205 0.195 0.48 0.317 0.787 0.317 0.31 0 0.595-0.125 0.8-0.33 0.211-0.208 0.339-0.493 0.339-0.813 0-1.283 0.352-2.467 0.938-3.402 0.070-0.112 0.144-0.221 0.221-0.326v4.035c0 0.182 0.032 0.355 0.090 0.515 0.211 0.586 0.771 1.005 1.43 1.005h3.344c0.659 0 1.219-0.419 1.43-1.005 0.058-0.16 0.090-0.336 0.090-0.515v-4.035c0.077 0.106 0.15 0.214 0.221 0.326 0.586 0.938 0.938 2.118 0.938 3.402 0 0.317 0.131 0.605 0.339 0.813 0.205 0.202 0.486 0.33 0.8 0.33 0.304 0 0.582-0.122 0.787-0.317 0.218-0.208 0.352-0.499 0.352-0.822 0-0.976-0.154-1.926-0.445-2.81-0.067-0.198-0.138-0.397-0.218-0.592z"></path>
</svg>
