<?xml version="1.0" encoding="utf-8"?>
<!-- Generated by IcoMoon.io -->
<!DOCTYPE svg PUBLIC "-//W3C//DTD SVG 1.1//EN" "http://www.w3.org/Graphics/SVG/1.1/DTD/svg11.dtd">
<svg version="1.1" xmlns="http://www.w3.org/2000/svg" xmlns:xlink="http://www.w3.org/1999/xlink" width="32" height="32" viewBox="0 0 32 32">
<path fill="#000" d="M8.137 13.241h-1.799v2.302h1.751c0.084 0 0.324 0 0.563-0.084 0.684-0.228 0.708-0.875 0.708-1.091 0.001-1.103-0.851-1.127-1.223-1.127zM16 0c-8.837 0-16 7.163-16 16s7.163 16 16 16 16-7.163 16-16-7.163-16-16-16zM9.361 20.137l-1.691-3.022h-1.32v3.022h-2.134v-8.467h3.814c0.239 0 0.479 0 0.72 0.012 0.384 0.024 1.727 0.108 2.387 1.319 0.119 0.228 0.335 0.72 0.335 1.416 0 0.947-0.371 1.451-0.659 1.727-0.12 0.12-0.264 0.229-0.396 0.312-0.156 0.084-0.336 0.168-0.684 0.3l1.955 3.381h-2.327zM19.536 20.137h-6.644v-8.467h6.26v1.631h-4.149v1.547h3.873v1.607h-3.873v2.014h4.533v1.668zM24.418 20.389c-0.3 0-0.995-0.036-1.727-0.36-2.23-1.007-2.339-3.465-2.339-4.137 0-0.516 0.060-1.847 1.031-3.022 0.384-0.479 1.344-1.463 3.070-1.463 1.14 0 2.243 0.468 2.986 1.319 0.312 0.36 0.504 0.732 0.588 0.875l-1.667 0.828c-0.12-0.24-0.204-0.372-0.276-0.468-0.155-0.228-0.671-0.815-1.535-0.815-0.239 0-0.803 0.048-1.283 0.504-0.348 0.324-0.804 1.031-0.804 2.194 0 0.108 0 0.312 0.036 0.576 0.145 1.163 0.647 1.69 1.115 1.955 0.156 0.096 0.48 0.239 0.936 0.239 1.188 0 1.644-0.923 1.835-1.247l1.68 0.852c-0.252 0.384-0.432 0.636-0.552 0.779-0.383 0.431-1.439 1.391-3.094 1.391z"></path>
</svg>
