<svg xmlns="http://www.w3.org/2000/svg" width="32" height="32" viewBox="0 0 32 32">
  <path fill="#1F1F1F" fill-rule="evenodd" d="M30,6.33333333 L30.3333333,6.33333333 C31.2538079,6.33333333 32,7.07952542 32,8 L32,17.3333333 C32,18.2538079 31.2538079,19 30.3333333,19 L17.6666667,19 C16.7461921,19 16,18.2538079 16,17.3333333 L16,17 L28.3333333,17 C29.2538079,17 30,16.2538079 30,15.3333333 L30,6.33333333 Z M13.6666667,2.33333333 L26.3333333,2.33333333 C27.2538079,2.33333333 28,3.07952542 28,4 L28,13.3333333 C28,14.2538079 27.2538079,15 26.3333333,15 L13.6666667,15 C12.7461921,15 12,14.2538079 12,13.3333333 L12,4 C12,3.07952542 12.7461921,2.33333333 13.6666667,2.33333333 Z M16.3333333,5.66666667 C15.7810486,5.66666667 15.3333333,6.11438192 15.3333333,6.66666667 C15.3333333,7.21895142 15.7810486,7.66666667 16.3333333,7.66666667 L23.6666667,7.66666667 C24.2189514,7.66666667 24.6666667,7.21895142 24.6666667,6.66666667 C24.6666667,6.11438192 24.2189514,5.66666667 23.6666667,5.66666667 L16.3333333,5.66666667 Z M16.3333333,10 C15.7810486,10 15.3333333,10.4477153 15.3333333,11 C15.3333333,11.5522847 15.7810486,12 16.3333333,12 L20.3333333,12 C20.8856181,12 21.3333333,11.5522847 21.3333333,11 C21.3333333,10.4477153 20.8856181,10 20.3333333,10 L16.3333333,10 Z M6.4263042,18.8182255 C7.85010979,21.2843291 9.9849589,23.3845016 10.7151512,23.8916956 C10.8928608,24.0151333 11.0594927,23.9071613 11.0862801,23.8916956 C11.8737009,23.437078 12.8451954,22.8714758 14.0007634,22.194889 C14.2522016,22.0303555 14.6017336,21.756423 15.5918275,21.756423 C16.5819214,21.756423 21.9805673,24.2539202 22.1818204,24.6025008 C22.3830735,24.9510814 22.6814031,25.472929 21.7800395,28.3943864 C20.8786758,31.3158437 20.4274439,31.5702793 20.060634,31.7820571 C19.6938241,31.9938349 19.3092359,32.051272 18.9068579,31.95437 C15.4984796,31.1335533 12.4253128,29.6932075 9.68726534,27.6332892 C7.05376794,25.648568 4.91526781,23.2328729 3.2717008,20.3861313 C1.62813379,17.5393898 0.605330502,14.4795467 0.203260257,11.2065105 C-0.211657568,7.80533272 -0.0103390316,4.51080326 0.983002006,1.14865274 C1.10027143,0.751732196 1.43019622,0.360303595 1.79700616,0.148525776 C2.16381611,-0.0632520437 2.76267843,-0.125549576 5.47056471,0.49235725 C8.178451,1.11026408 9.05612171,1.80885642 9.05612171,2.50750506 C9.05612171,3.2061537 8.86218286,7.28340289 8.62069173,8.08991627 C8.37920061,8.89642966 7.94181803,9.64276725 7.33769626,10.0882258 C6.02546425,10.8012355 4.98316021,11.380706 4.21078414,11.8266376 C4.16314741,11.8541407 3.84886637,12.0194035 3.91571213,12.3386947 C4.19621547,13.6785287 5.0024986,16.3521219 6.4263042,18.8182255 Z"/>
</svg>
