<?xml version="1.0" encoding="utf-8"?>
<!-- Generated by IcoMoon.io -->
<!DOCTYPE svg PUBLIC "-//W3C//DTD SVG 1.1//EN" "http://www.w3.org/Graphics/SVG/1.1/DTD/svg11.dtd">
<svg version="1.1" xmlns="http://www.w3.org/2000/svg" xmlns:xlink="http://www.w3.org/1999/xlink" width="32" height="32" viewBox="0 0 32 32">
<g id="icomoon-ignore">
	<line stroke-width="1" x1="" y1="" x2="" y2="" stroke="#449FDB" opacity=""></line>
</g>
	<path d="M32 20.221v0.329c0 0.66-0.56 1.385-1.467 1.385h-2.226c-0.379-0.313-0.89-0.659-1.583-0.989-1.286-0.643-3.165-2.209-5.967-2.72 0.379-0.445 0.708-1.038 1.021-1.715 0.035-0.011 0.285-0.105 0.808-0.198-0.165-0.165-0.313-0.379-0.445-0.61l0.445-1.104c0.28-0.906 0.231-1.649 0.231-2.72 0-0.791 0.164-2.045-0.050-2.77-0.132-0.494-0.296-0.906-0.494-1.269 0.511-0.296 1.121-0.412 1.797-0.412 1.369 0 2.523 0.478 2.984 2.21 0.165 0.527 0.033 1.434 0.033 2.028 0 0.774 0.049 1.319-0.165 1.995-0.445 1.104-0.857 2.044-1.369 2.654 2.094 0.379 3.495 1.517 4.468 1.995 1.963 0.905 1.979 1.911 1.979 1.911zM24.087 20.946c-1.286-0.643-3.166-2.209-5.968-2.72 0.692-0.824 1.252-2.127 1.83-3.627 0.28-0.906 0.231-1.649 0.231-2.72 0-0.791 0.165-2.045-0.050-2.77-0.609-2.357-2.159-3-3.99-3-1.847 0-3.396 0.643-4.006 3-0.182 0.725-0.050 1.995-0.050 2.77 0 1.071-0.049 1.814 0.297 2.72 0.544 1.501 1.071 2.819 1.781 3.627-2.77 0.544-4.666 2.094-5.902 2.72-2.638 1.236-2.638 2.621-2.638 2.621v0.511c0 0.907 0.972 1.814 1.929 1.814h17.229c1.204 0 1.945-0.989 1.945-1.896v-0.429c-0.001 0-0.034-1.385-2.638-2.621zM0 20.221v0.329c0 0.66 0.56 1.385 1.467 1.385h2.226c0.379-0.313 0.89-0.659 1.583-0.989 1.286-0.643 3.165-2.209 5.967-2.72-0.379-0.445-0.708-1.038-1.021-1.715-0.264-0.083-0.528-0.148-0.808-0.198 0.165-0.165 0.313-0.379 0.445-0.61l-0.445-1.104c-0.28-0.906-0.231-1.649-0.231-2.72 0-0.791-0.164-2.045 0.050-2.77 0.132-0.494 0.296-0.906 0.494-1.269-0.511-0.297-1.121-0.413-1.797-0.413-1.369 0-2.523 0.478-2.984 2.21-0.165 0.527-0.033 1.434-0.033 2.028 0 0.774-0.049 1.319 0.165 1.995 0.445 1.104 0.857 2.044 1.369 2.654-2.094 0.379-3.495 1.517-4.468 1.995-1.963 0.906-1.979 1.912-1.979 1.912z" fill="#000000"></path>
</svg>
