<?xml version="1.0" encoding="utf-8"?>
<!-- Generated by IcoMoon.io -->
<!DOCTYPE svg PUBLIC "-//W3C//DTD SVG 1.1//EN" "http://www.w3.org/Graphics/SVG/1.1/DTD/svg11.dtd">
<svg version="1.1" xmlns="http://www.w3.org/2000/svg" xmlns:xlink="http://www.w3.org/1999/xlink" width="32" height="32" viewBox="0 0 32 32">
<g id="icomoon-ignore">
	<line stroke-width="1" x1="" y1="" x2="" y2="" stroke="#449FDB" opacity=""></line>
</g>
	<path d="M23.464 31.984c-1.024 0-2.048 0.015-3.072-0.005-0.894-0.018-1.207-0.621-0.757-1.407 0.21-0.367 0.448-0.724 0.616-1.11 0.744-1.712-0.442-3.253-1.611-3.933-1.757-1.022-4.616-0.988-6.222 0.423-1.274 1.118-1.612 2.572-0.777 4.062 0.186 0.331 0.335 0.689 0.454 1.051 0.154 0.469-0.107 0.89-0.591 0.894-2.221 0.017-4.45 0.104-6.662-0.037-1.328-0.084-2.374-1.344-2.446-2.786-0.099-1.956-0.045-3.92-0.005-5.88 0.007-0.321 0.212-0.819 0.449-0.909 0.328-0.124 0.879-0.074 1.15 0.138 2.028 1.579 4.353 0.476 5.194-1.733 0.648-1.702 0.596-3.368-0.297-4.955-0.973-1.729-2.78-2.33-4.569-1.35-0.465 0.254-0.911 0.732-1.482 0.417-0.593-0.327-0.467-0.971-0.469-1.53-0.002-0.937 0.043-1.876-0.009-2.81-0.097-1.731 1.45-3.385 3.313-3.301 1.762 0.077 3.529 0.015 5.294 0.017 0.44 0 0.841-0.011 1.118-0.472 0.291-0.484-0.056-0.819-0.195-1.192-0.186-0.499-0.545-0.949-0.653-1.458-0.279-1.322 0.665-2.83 1.897-3.439 1.306-0.645 2.631-0.86 4.034-0.515 1.688 0.416 2.912 1.265 3.304 3.104 0.176 0.827-0.286 1.521-0.646 2.235-0.189 0.375-0.387 0.881-0.281 1.239 0.149 0.502 0.732 0.507 1.224 0.504 1.721-0.008 3.444 0.042 5.162-0.019 2.108-0.074 3.357 1.572 3.356 3.372-0.001 0.98 0.055 1.964-0.014 2.939-0.033 0.462-0.176 1.050-0.492 1.324-0.417 0.361-0.93-0.007-1.353-0.301-1.504-1.047-3.431-0.713-4.538 1.009-1.311 2.040-1.228 4.713 0.487 6.599 1.062 1.167 2.58 1.397 3.927 0.566 0.49-0.302 1.070-0.742 1.532-0.358 0.333 0.276 0.424 0.966 0.441 1.478 0.050 1.589-0.004 3.18 0.015 4.77 0.022 1.753-1.215 3.505-3.345 3.369-0.823-0.054-1.653-0.010-2.481-0.010z" fill="#000000"></path>
</svg>
