<?xml version="1.0" encoding="utf-8"?>
<!-- Generated by IcoMoon.io -->
<!DOCTYPE svg PUBLIC "-//W3C//DTD SVG 1.1//EN" "http://www.w3.org/Graphics/SVG/1.1/DTD/svg11.dtd">
<svg version="1.1" xmlns="http://www.w3.org/2000/svg" xmlns:xlink="http://www.w3.org/1999/xlink" width="32" height="32" viewBox="0 0 32 32">
<path fill="#444444" d="M25.043 23.872c0.006-0.15-0.054-0.294-0.163-0.397l-5.267-4.96c-0.106-0.099-0.246-0.15-0.39-0.141s-0.275 0.080-0.368 0.192c-0.272 0.342-1.219 1.315-1.968 1.315-0.205 0-0.378-0.074-0.544-0.234-1.325-1.264-4.122-4.125-4.141-4.141-0.035-0.042-0.874-1.037 0.672-3.037 0.147-0.192 0.144-0.461-0.013-0.646l-4.163-5.018c-0.163-0.195-0.442-0.246-0.662-0.115-0.112 0.067-2.714 1.635-3.194 4.502-0.323 1.936 0.397 3.958 2.144 6.013 0.010 0.010 0.019 0.022 0.029 0.032l6.688 6.688c0.093 0.102 2.282 2.486 5.667 2.486 0.294 0 0.586-0.022 0.88-0.061 0.109 0.56 0.141 1.827-1.251 3.222-0.602 0.602-1.312 0.714-1.811 0.701-0.918-0.026-1.901-0.496-2.56-1.232-0.010-0.010-0.016-0.016-0.026-0.026l-7.552-7.75c-0.022-0.026-0.048-0.048-0.074-0.067-0.8-0.646-2.765-1.443-4.483 0.173-1.686 1.584-1.158 3.629-0.643 4.486 0.035 0.061 0.080 0.115 0.131 0.166l3.069 3.069c0.336 0.336 0.883 0.336 1.219 0s0.336-0.883 0-1.219l-2.982-2.982c-0.147-0.298-0.573-1.36 0.387-2.262 0.957-0.899 1.93-0.298 2.182-0.112l7.494 7.69c0.979 1.085 2.394 1.754 3.786 1.792 0.045 0 0.086 0.003 0.128 0.003 1.139 0 2.157-0.416 2.947-1.206 1.978-1.978 1.907-3.904 1.709-4.848 0.989-0.358 1.968-0.918 2.928-1.686 0.118-0.099 0.189-0.24 0.195-0.39z"></path>
<path fill="#444444" d="M28.762 8.15c-0.874-1.059-1.955-1.789-3.142-2.144 0.934-0.566 1.555-1.59 1.555-2.771 0-1.798-1.44-3.235-3.235-3.235-1.619 0-3.235 1.437-3.235 3.235 0 1.181 0.621 2.205 1.555 2.771-1.187 0.355-2.269 1.088-3.142 2.144-1.222 1.478-1.894 3.43-1.894 5.494 0 0.637 0.518 1.155 1.155 1.155s1.155-0.518 1.155-1.155c0-1.456 0.445-2.787 1.171-3.779v4.093c0 0.851 0.691 1.539 1.539 1.539h3.389c0.851 0 1.539-0.691 1.539-1.539v-4.093c0.726 0.995 1.171 2.323 1.171 3.779 0 0.637 0.518 1.155 1.155 1.155s1.155-0.518 1.155-1.155c0.003-2.067-0.669-4.016-1.891-5.494z"></path>
</svg>
