<?xml version="1.0" encoding="utf-8"?>
<!-- Generated by IcoMoon.io -->
<!DOCTYPE svg PUBLIC "-//W3C//DTD SVG 1.1//EN" "http://www.w3.org/Graphics/SVG/1.1/DTD/svg11.dtd">
<svg version="1.1" xmlns="http://www.w3.org/2000/svg" xmlns:xlink="http://www.w3.org/1999/xlink" width="32" height="32" viewBox="0 0 32 32">
<g id="icomoon-ignore">
	<line stroke-width="1" x1="" y1="" x2="" y2="" stroke="#449FDB" opacity=""></line>
</g>
	<path d="M16.133 13.015v0c0.191 0 0.385 0.021 0.575 0.062 1.443 0.315 2.361 1.745 2.047 3.188-0.266 1.222-1.365 2.109-2.613 2.109-0.191 0-0.385-0.021-0.575-0.062-1.443-0.315-2.361-1.745-2.047-3.188 0.267-1.222 1.366-2.109 2.613-2.109zM16.133 11.408c-1.972 0-3.746 1.369-4.183 3.374-0.504 2.313 0.962 4.596 3.275 5.1 0.308 0.067 0.615 0.099 0.917 0.099 1.972 0 3.746-1.369 4.183-3.374 0.504-2.313-0.962-4.596-3.275-5.1-0.307-0.067-0.614-0.099-0.917-0.099v0zM12.616 14.623h-9.396v2.143h9.396v-2.143zM4.291 14.632h-2.143v8.572h2.143v-8.572zM3.904 22.743c-1.734-0.378-3.447 0.721-3.825 2.455s0.721 3.447 2.455 3.825c1.734 0.378 3.447-0.721 3.825-2.455s-0.721-3.447-2.455-3.825zM19.394 17.023h9.396v-2.143h-9.396v2.143zM27.719 17.014h2.143v-8.572h-2.143v8.572zM28.106 8.904c1.734 0.378 3.447-0.721 3.825-2.455s-0.721-3.447-2.455-3.825c-1.734-0.378-3.447 0.721-3.825 2.455s0.721 3.446 2.455 3.825z" fill="#000000"></path>
</svg>
