<?xml version="1.0" encoding="utf-8"?>
<!-- Generated by IcoMoon.io -->
<!DOCTYPE svg PUBLIC "-//W3C//DTD SVG 1.1//EN" "http://www.w3.org/Graphics/SVG/1.1/DTD/svg11.dtd">
<svg version="1.1" xmlns="http://www.w3.org/2000/svg" xmlns:xlink="http://www.w3.org/1999/xlink" width="32" height="32" viewBox="0 0 32 32">
<path fill="#444444" d="M28 8.24h-6.4v-2.24c0-2.080-1.6-3.68-3.68-3.68h-3.84c-2.080 0-3.68 1.6-3.68 3.68v2.24h-6.4c-2.24 0-4 1.76-4 4v13.44c0 2.24 1.76 4 4 4h24c2.24 0 4-1.76 4-4v-13.44c-0.16-2.24-1.92-4-4-4zM13.6 6c0-0.32 0.16-0.48 0.48-0.48h3.84c0.32 0 0.48 0.16 0.48 0.48v2.24h-4.8v-2.24zM28.64 25.68c0 0.48-0.32 0.8-0.8 0.8h-24c-0.48 0-0.8-0.32-0.8-0.8v-13.44c0-0.48 0.32-0.8 0.8-0.8h24c0.48 0 0.8 0.32 0.8 0.8v13.44z"></path>
</svg>
