<?xml version="1.0" encoding="utf-8"?>
<!-- Generated by IcoMoon.io -->
<!DOCTYPE svg PUBLIC "-//W3C//DTD SVG 1.1//EN" "http://www.w3.org/Graphics/SVG/1.1/DTD/svg11.dtd">
<svg version="1.1" xmlns="http://www.w3.org/2000/svg" xmlns:xlink="http://www.w3.org/1999/xlink" width="32" height="32" viewBox="0 0 32 32">
<path fill="#444444" d="M30.938 21.754c0.006-0.189-0.067-0.371-0.205-0.502l-6.64-6.253c-0.131-0.125-0.31-0.189-0.493-0.176s-0.349 0.102-0.464 0.243c-0.342 0.432-1.536 1.658-2.483 1.658-0.259 0-0.477-0.093-0.688-0.294-1.667-1.59-5.197-5.197-5.216-5.216-0.045-0.054-1.101-1.309 0.848-3.83 0.186-0.243 0.179-0.582-0.016-0.816l-5.251-6.33c-0.205-0.246-0.557-0.31-0.835-0.144-0.141 0.083-3.421 2.061-4.026 5.677-0.41 2.442 0.502 4.992 2.704 7.581 0.013 0.013 0.022 0.026 0.035 0.038l8.432 8.429c0.115 0.128 2.877 3.133 7.142 3.133 0.371 0 0.739-0.029 1.107-0.077 0.138 0.707 0.179 2.304-1.578 4.064-0.758 0.758-1.654 0.899-2.282 0.883-1.158-0.032-2.397-0.627-3.226-1.555-0.010-0.010-0.019-0.022-0.032-0.032l-9.52-9.766c-0.029-0.029-0.061-0.061-0.096-0.086-1.008-0.816-3.485-1.818-5.651 0.218-2.125 2-1.456 4.576-0.806 5.658 0.045 0.077 0.102 0.147 0.163 0.211l3.869 3.869c0.426 0.426 1.114 0.426 1.539 0s0.426-1.114 0-1.539l-3.76-3.757c-0.186-0.374-0.723-1.715 0.486-2.854 1.206-1.136 2.435-0.378 2.752-0.144l9.45 9.696c1.235 1.366 3.018 2.211 4.771 2.259 0.054 0 0.109 0.003 0.163 0.003 1.437 0 2.72-0.525 3.715-1.52 2.493-2.493 2.406-4.925 2.154-6.112 1.248-0.451 2.483-1.155 3.693-2.128 0.147-0.122 0.237-0.298 0.243-0.486z"></path>
<path fill="#444444" d="M30.778 9.85l-3.722-3.722 2.71-1.168c0.211-0.090 0.342-0.304 0.33-0.531s-0.163-0.426-0.381-0.496l-8.883-2.829c-0.195-0.061-0.41-0.010-0.554 0.134s-0.198 0.358-0.134 0.554l2.829 8.883c0.070 0.218 0.266 0.371 0.496 0.381 0.227 0.013 0.442-0.122 0.531-0.33l1.168-2.71 3.722 3.722c0.102 0.102 0.243 0.16 0.387 0.16 0.147 0 0.285-0.058 0.387-0.16l1.11-1.11c0.218-0.214 0.218-0.563 0.003-0.778z"></path>
</svg>
