<?xml version="1.0" encoding="utf-8"?>
<!-- Generated by IcoMoon.io -->
<!DOCTYPE svg PUBLIC "-//W3C//DTD SVG 1.1//EN" "http://www.w3.org/Graphics/SVG/1.1/DTD/svg11.dtd">
<svg version="1.1" xmlns="http://www.w3.org/2000/svg" xmlns:xlink="http://www.w3.org/1999/xlink" width="32" height="32" viewBox="0 0 32 32">
<path fill="#444444" d="M22.032 4.72h-1.706c-0.525 0-0.787-0.394-0.787-0.787v-0.525c0.003-1.965-1.571-3.408-3.408-3.408-1.968 0-3.411 1.574-3.411 3.411v0.525c0 0.525-0.394 0.787-0.787 0.787h-2.099c-2.624 0-4.72 2.099-4.72 4.72v17.837c0 2.624 2.099 4.72 4.72 4.72h12.326c2.624 0 4.72-2.099 4.72-4.72v-17.706c0.006-2.624-2.093-4.854-4.848-4.854zM15.082 3.936v-0.525c0-0.525 0.394-0.787 0.787-0.787 0.525 0 0.787 0.394 0.787 0.787v0.525c0 1.968 1.574 3.411 3.411 3.411h0.131v1.181c0 0.394-0.262 0.656-0.656 0.656h-7.475c-0.394 0-0.656-0.262-0.656-0.656v-1.181h0.131c1.965-0.003 3.539-1.446 3.539-3.411zM24.262 27.28c0 1.181-0.918 2.099-2.099 2.099h-12.326c-1.181 0-2.099-0.918-2.099-2.099v-17.706c0-0.918 0.525-1.574 1.312-1.968v0.918c0 1.837 1.443 3.28 3.28 3.28h7.475c1.837 0 3.28-1.443 3.28-3.28v-0.918c0.787 0.394 1.312 1.050 1.312 1.968l-0.134 17.706z"></path>
<path fill="#444444" d="M9.706 14.688h12.458v2.624h-12.458v-2.624z"></path>
<path fill="#444444" d="M9.706 18.755h12.458v2.624h-12.458v-2.624z"></path>
<path fill="#444444" d="M9.706 22.819h12.458v2.624h-12.458v-2.624z"></path>
</svg>
