<?xml version="1.0" encoding="utf-8"?>
<!-- Generated by IcoMoon.io -->
<!DOCTYPE svg PUBLIC "-//W3C//DTD SVG 1.1//EN" "http://www.w3.org/Graphics/SVG/1.1/DTD/svg11.dtd">
<svg version="1.1" xmlns="http://www.w3.org/2000/svg" xmlns:xlink="http://www.w3.org/1999/xlink" width="32" height="32" viewBox="0 0 32 32">
<g id="icomoon-ignore">
	<line stroke-width="1" x1="" y1="" x2="" y2="" stroke="#449FDB" opacity=""></line>
</g>
	<path d="M22.666 13.14v0.271c0 0.572-0.468 1.197-1.228 1.197h-10.879c-0.604 0-1.218-0.572-1.218-1.145v-0.323c0 0 0-0.874 1.666-1.655 0.781-0.395 1.978-1.374 3.727-1.718-0.448-0.51-0.781-1.343-1.124-2.29-0.219-0.572-0.188-1.041-0.188-1.718 0-0.489-0.083-1.291 0.032-1.749 0.385-1.488 1.363-1.894 2.529-1.894 1.156 0 2.134 0.406 2.519 1.894 0.136 0.458 0.032 1.249 0.032 1.749 0 0.677 0.031 1.145-0.146 1.718-0.364 0.948-0.718 1.77-1.155 2.29 1.769 0.323 2.956 1.311 3.769 1.718 1.643 0.781 1.664 1.655 1.664 1.655zM30.335 26.605c-0.812-0.406-1.999-1.395-3.769-1.718 0.437-0.521 0.791-1.343 1.155-2.29 0.177-0.572 0.146-1.041 0.146-1.718 0-0.5 0.104-1.291-0.032-1.749-0.385-1.488-1.363-1.894-2.519-1.894-1.166 0-2.145 0.406-2.529 1.894-0.115 0.458-0.032 1.26-0.032 1.749 0 0.677-0.031 1.145 0.188 1.718 0.344 0.948 0.677 1.78 1.124 2.29-1.749 0.344-2.946 1.322-3.727 1.718-1.666 0.781-1.666 1.655-1.666 1.655v0.323c0 0.573 0.614 1.145 1.218 1.145h10.879c0.76 0 1.228-0.625 1.228-1.197v-0.271c0.001 0-0.020-0.875-1.664-1.655zM11.66 26.605c-0.812-0.406-1.999-1.395-3.769-1.718 0.437-0.521 0.791-1.343 1.155-2.29 0.177-0.572 0.146-1.041 0.146-1.718 0-0.5 0.104-1.291-0.032-1.749-0.385-1.488-1.363-1.894-2.519-1.894-1.166 0-2.145 0.406-2.529 1.894-0.115 0.458-0.032 1.26-0.032 1.749 0 0.677-0.031 1.145 0.188 1.718 0.344 0.948 0.677 1.78 1.124 2.29-1.749 0.344-2.946 1.322-3.727 1.718-1.665 0.78-1.665 1.655-1.665 1.655v0.323c0 0.573 0.614 1.145 1.218 1.145h10.879c0.76 0 1.228-0.625 1.228-1.197v-0.271c0 0-0.021-0.875-1.665-1.655zM20.207 24.213l-3.207-3.289v-3.924h-2v3.924l-3.205 3.289 1.22 1.178 2.967-2.944 2.996 2.944 1.229-1.178z" fill="#000000"></path>
</svg>
