<?xml version="1.0" encoding="utf-8"?>
<!-- Generated by IcoMoon.io -->
<!DOCTYPE svg PUBLIC "-//W3C//DTD SVG 1.1//EN" "http://www.w3.org/Graphics/SVG/1.1/DTD/svg11.dtd">
<svg version="1.1" xmlns="http://www.w3.org/2000/svg" xmlns:xlink="http://www.w3.org/1999/xlink" width="32" height="32" viewBox="0 0 32 32">
<path fill="#444444" d="M19.83 8.102c-0.694-0.842-1.552-1.421-2.496-1.702 0.742-0.448 1.235-1.264 1.235-2.198 0-1.427-1.142-2.57-2.57-2.57-1.283 0-2.57 1.142-2.57 2.57 0 0.938 0.493 1.75 1.235 2.198-0.941 0.282-1.802 0.864-2.496 1.702-0.97 1.174-1.504 2.723-1.504 4.362 0 0.506 0.41 0.918 0.918 0.918s0.918-0.41 0.918-0.918c0-1.158 0.352-2.211 0.931-3.002v3.248c0 0.675 0.547 1.222 1.222 1.222h2.688c0.675 0 1.222-0.547 1.222-1.222v-3.245c0.576 0.79 0.931 1.843 0.931 3.002 0 0.506 0.41 0.918 0.918 0.918s0.918-0.41 0.918-0.918c0-1.642-0.534-3.19-1.504-4.365z"></path>
<path fill="#444444" d="M30.496 24.534c-0.694-0.842-1.552-1.421-2.496-1.702 0.742-0.448 1.235-1.264 1.235-2.198 0-1.427-1.142-2.57-2.57-2.57-1.283 0-2.57 1.142-2.57 2.57 0 0.938 0.493 1.75 1.235 2.198-0.941 0.282-1.802 0.864-2.496 1.702-0.97 1.174-1.504 2.723-1.504 4.362 0 0.506 0.41 0.918 0.918 0.918s0.918-0.41 0.918-0.918c0-1.158 0.352-2.211 0.931-3.002v3.248c0 0.675 0.547 1.222 1.222 1.222h2.691c0.675 0 1.222-0.547 1.222-1.222v-3.248c0.576 0.79 0.931 1.843 0.931 3.002 0 0.506 0.41 0.918 0.918 0.918s0.918-0.41 0.918-0.918c-0.003-1.638-0.538-3.187-1.507-4.362z"></path>
<path fill="#444444" d="M9.162 24.534c-0.694-0.842-1.552-1.421-2.496-1.702 0.742-0.448 1.235-1.264 1.235-2.198 0-1.427-1.142-2.57-2.57-2.57-1.283 0-2.57 1.142-2.57 2.57 0 0.938 0.493 1.75 1.235 2.198-0.941 0.282-1.802 0.864-2.496 1.702-0.966 1.174-1.501 2.723-1.501 4.362 0 0.506 0.41 0.918 0.918 0.918s0.918-0.41 0.918-0.918c0-1.158 0.352-2.211 0.931-3.002v3.248c0 0.675 0.547 1.222 1.222 1.222h2.691c0.675 0 1.222-0.547 1.222-1.222v-3.248c0.576 0.79 0.931 1.843 0.931 3.002 0 0.506 0.41 0.918 0.918 0.918s0.918-0.41 0.918-0.918c-0.006-1.638-0.541-3.187-1.51-4.362z"></path>
<path fill="#444444" d="M19.501 21.533l-2.355-2.355v-2.461c0-0.634-0.512-1.146-1.146-1.146s-1.146 0.512-1.146 1.146v2.461l-2.355 2.355c-0.448 0.448-0.448 1.174 0 1.622 0.224 0.224 0.518 0.336 0.81 0.336 0.294 0 0.586-0.112 0.81-0.336l1.882-1.882 1.882 1.882c0.224 0.224 0.518 0.336 0.81 0.336 0.294 0 0.586-0.112 0.81-0.336 0.448-0.448 0.448-1.174 0-1.622z"></path>
</svg>
