<svg xmlns="http://www.w3.org/2000/svg" width="32" height="32" viewBox="0 0 32 32">
  <path fill="#2A3042" fill-rule="evenodd" d="M19.8044376,8.12784557 L19.8044376,5.75189705 C19.8044376,3.12749677 21.9319343,1 24.5563346,1 C27.1807349,1 29.3082316,3.12749677 29.3082316,5.75189705 L29.3082316,8.12784557 L29.6841802,8.12784557 C30.7887497,8.12784557 31.6841802,9.02327607 31.6841802,10.1278456 L31.6841802,15.0075882 C31.6841802,17.7690119 29.4456039,20.0075882 26.6841802,20.0075882 L22.428489,20.0075882 C19.6670653,20.0075882 17.428489,17.7690119 17.428489,15.0075882 L17.428489,10.1278456 C17.428489,9.02327607 18.3239195,8.12784557 19.428489,8.12784557 L19.8044376,8.12784557 Z M31.9437285,23.3445526 C31.6905615,24.5523983 30.6135328,25.4666667 29.3333333,25.4666667 L20.2666667,25.4666667 C20.2666667,26.8833333 21.3333333,28.0833333 21.3333333,28.6666667 C21.3333333,29.25 20.85,29.7333333 20.2666667,29.7333333 L11.7333333,29.7333333 C11.15,29.7333333 10.6666667,29.25 10.6666667,28.6666667 C10.6666667,28.05 11.7333333,26.9166667 11.7333333,25.4666667 L2.66666667,25.4666667 C1.2,25.4666667 0,24.2666667 0,22.8 L0,4.66666667 C0,3.2 1.2,2 2.66666667,2 L14.3016082,2 C13.8335581,2.62878001 13.4161109,3.29745616 13.0552951,4 L3,4 C2.44771525,4 2,4.44771525 2,5 L2,18 C2,18.5522847 2.44771525,19 3,19 L14.2959636,19 C16.8940321,22.4950743 21.0547297,24.7594852 25.7443089,24.7594852 C27.9661458,24.7594852 30.0692651,24.2511949 31.9437285,23.3445526 Z M22.1803861,8.12784557 L26.9322831,8.12784557 L26.9322831,6.01589133 C26.9322831,4.55789118 25.8685347,3.37594852 24.5563346,3.37594852 C23.2441345,3.37594852 22.1803861,4.55789118 22.1803861,6.01589133 L22.1803861,8.12784557 Z M24.5563346,17.0376525 C26.1965848,17.0376525 27.5262703,15.707967 27.5262703,14.0677169 C27.5262703,12.4274667 26.1965848,11.0977812 24.5563346,11.0977812 C22.9160844,11.0977812 21.5863989,12.4274667 21.5863989,14.0677169 C21.5863989,15.707967 22.9160844,17.0376525 24.5563346,17.0376525 Z"/>
</svg>
