<svg xmlns="http://www.w3.org/2000/svg" width="32" height="32" viewBox="0 0 32 32">
  <path fill="#2A3042" fill-rule="evenodd" d="M32,4.66666667 L32,22.8 C32,24.2666667 30.8,25.4666667 29.3333333,25.4666667 L20.2666667,25.4666667 C20.2666667,26.8833333 21.3333333,28.0833333 21.3333333,28.6666667 C21.3333333,29.25 20.85,29.7333333 20.2666667,29.7333333 L11.7333333,29.7333333 C11.15,29.7333333 10.6666667,29.25 10.6666667,28.6666667 C10.6666667,28.05 11.7333333,26.9166667 11.7333333,25.4666667 L2.66666667,25.4666667 C1.2,25.4666667 0,24.2666667 0,22.8 L0,4.66666667 C0,3.2 1.2,2 2.66666667,2 L29.3333333,2 C30.8,2 32,3.2 32,4.66666667 Z M3,4 C2.44771525,4 2,4.44771525 2,5 L2,18 C2,18.5522847 2.44771525,19 3,19 L29,19 C29.5522847,19 30,18.5522847 30,18 L30,5 C30,4.44771525 29.5522847,4 29,4 L3,4 Z"/>
</svg>
