<svg xmlns="http://www.w3.org/2000/svg" xmlns:xlink="http://www.w3.org/1999/xlink" width="32" height="32" viewBox="0 0 32 32">
  <defs>
    <path id="dot-secure-copy-a" d="M19.8044376,8.87974261 L19.8044376,6.50379409 C19.8044376,3.87939382 21.9319343,1.75189705 24.5563346,1.75189705 C27.1807349,1.75189705 29.3082316,3.87939382 29.3082316,6.50379409 L29.3082316,8.87974261 L29.6841802,8.87974261 C30.7887497,8.87974261 31.6841802,9.77517311 31.6841802,10.8797426 L31.6841802,15.7594852 C31.6841802,18.520909 29.4456039,20.7594852 26.6841802,20.7594852 L22.428489,20.7594852 C19.6670653,20.7594852 17.428489,18.520909 17.428489,15.7594852 L17.428489,10.8797426 C17.428489,9.77517311 18.3239195,8.87974261 19.428489,8.87974261 L19.8044376,8.87974261 Z M15.8197443,1.022019 C13.1486077,3.61296939 11.4886177,7.24047455 11.4886177,11.2556911 C11.4886177,19.1288919 17.8711081,25.5113823 25.7443089,25.5113823 C26.038762,25.5113823 26.3311301,25.502455 26.6211573,25.4848563 C23.8704707,28.8510586 19.6861914,31 15,31 C6.71572875,31 0,24.2842712 0,16 C0,7.71572875 6.71572875,1 15,1 C15.2750398,1 15.5483507,1.00740245 15.8197443,1.022019 Z M22.1803861,8.87974261 L26.9322831,8.87974261 L26.9322831,6.76778837 C26.9322831,5.30978822 25.8685347,4.12784557 24.5563346,4.12784557 C23.2441345,4.12784557 22.1803861,5.30978822 22.1803861,6.76778837 L22.1803861,8.87974261 Z M24.5563346,17.7895496 C26.1965848,17.7895496 27.5262703,16.4598641 27.5262703,14.8196139 C27.5262703,13.1793638 26.1965848,11.8496783 24.5563346,11.8496783 C22.9160844,11.8496783 21.5863989,13.1793638 21.5863989,14.8196139 C21.5863989,16.4598641 22.9160844,17.7895496 24.5563346,17.7895496 Z"/>
  </defs>
  <g fill="none" fill-rule="evenodd">
    <use fill="#2A3042" xlink:href="#dot-secure-copy-a"/>
  </g>
</svg>
