<svg id="Layer_1" data-name="Layer 1" xmlns="http://www.w3.org/2000/svg" viewBox="0 0 903.25 999"><title>Untitled-2</title><g id="HGxMWW.tif"><path d="M281.72,270.71c0-22.83-1-46.05.27-69.14,1.55-27.37,6.56-54.32,17.19-79.88,19.13-46,51.25-79.8,97-99.36,64.33-27.52,130.19-28.92,195.62-4.8,70.4,25.95,109.4,78.73,122.13,151.64,5.44,31.13,8.17,62.53,4.79,94.21-0.32,3,1.31,8.27,3.45,9.19,27,11.61,35,34.13,34.91,60.77-0.21,57.22-20.71,103.31-73.59,131.27-3.15,1.67-5.93,5.7-7.08,9.23a285.82,285.82,0,0,1-44.8,85.07c-5.09,6.71-3.36,18.87-3.72,28.57-0.06,1.58,5.16,3.78,8.22,5C680.53,609.94,725.58,626,769.34,645c42.6,18.51,80.76,44.43,111.74,79.72,37.84,43.1,56,95,65.88,150.33,2.55,14.27,2.8,28.93,4.46,43.37,1.35,11.8-3.6,18.46-14.62,22.93-42,17-85.6,27.79-130.06,35.21-126.68,21.13-254.33,25.62-382.47,21.56-73.17-2.32-146.05-7.63-218.36-19.35-49-7.94-97.19-18.74-143.33-37.64-10.53-4.31-14.73-10.75-14.15-22.21,6.37-125.86,61.82-219.81,178.9-272.35,42.89-19.24,87.46-34.72,131.16-52.16,5.07-2,13.32-5.34,13.54-8.51,0.64-9.16.91-20.73-4-27.46-16.08-22-31-44.56-39.14-70.54-4.52-14.44-11.95-23.67-25-31.56-37.09-22.37-54.8-57.45-59.55-99.68a221.82,221.82,0,0,1-1.44-22.83C242.58,302,252.95,285.14,281.72,270.71Z" transform="translate(-48.38 -0.5)"/></g></svg>