<?xml version="1.0" encoding="utf-8"?>
<!-- Generated by IcoMoon.io -->
<!DOCTYPE svg PUBLIC "-//W3C//DTD SVG 1.1//EN" "http://www.w3.org/Graphics/SVG/1.1/DTD/svg11.dtd">
<svg version="1.1" xmlns="http://www.w3.org/2000/svg" xmlns:xlink="http://www.w3.org/1999/xlink" width="32" height="32" viewBox="0 0 32 32">
<path fill="#444444" d="M16.87 26.17c0-0.013-0.003-0.026-0.006-0.035 0 0 0 0 0-0.003-0.006-0.026-0.013-0.051-0.022-0.077v0c-0.019-0.045-0.048-0.086-0.086-0.122l-3.744-3.53c-0.070-0.064-0.16-0.099-0.253-0.099-0.010 0-0.016 0-0.026 0-0.102 0.006-0.198 0.058-0.262 0.138-0.195 0.243-0.867 0.934-1.402 0.934-0.147 0-0.269-0.051-0.387-0.166-0.944-0.899-2.934-2.934-2.947-2.947-0.026-0.029-0.621-0.739 0.477-2.163 0.106-0.138 0.102-0.33-0.010-0.461l-2.963-3.574c-0.074-0.086-0.176-0.134-0.285-0.134-0.064 0-0.128 0.016-0.186 0.051-0.003 0-0.006 0.003-0.010 0.006 0 0-0.003 0-0.003 0.003-0.006 0.003-0.013 0.006-0.019 0.013-0.003 0-0.003 0.003-0.006 0.003-0.006 0.003-0.013 0.010-0.022 0.013-0.003 0.003-0.006 0.003-0.006 0.006-0.010 0.006-0.019 0.013-0.032 0.019-0.003 0.003-0.010 0.006-0.013 0.010-0.010 0.006-0.022 0.013-0.032 0.022-0.006 0.003-0.013 0.006-0.016 0.013-0.010 0.006-0.022 0.016-0.035 0.026-0.006 0.003-0.013 0.010-0.019 0.013-0.016 0.010-0.032 0.022-0.048 0.035-0.006 0.003-0.013 0.010-0.019 0.013-0.013 0.010-0.026 0.019-0.042 0.032-0.006 0.006-0.013 0.010-0.019 0.016-0.019 0.013-0.038 0.029-0.058 0.045-0.006 0.006-0.016 0.013-0.022 0.019-0.019 0.016-0.042 0.032-0.061 0.048-0.595 0.48-1.549 1.45-1.786 2.858-0.23 1.379 0.282 2.816 1.526 4.278 0.006 0.006 0.013 0.016 0.019 0.022l4.758 4.758c0.064 0.074 1.626 1.77 4.032 1.77 0.208 0 0.416-0.016 0.624-0.042 0.077 0.4 0.102 1.302-0.893 2.294-0.406 0.406-0.88 0.499-1.232 0.499-0.019 0-0.038 0-0.058 0-0.653-0.019-1.354-0.355-1.821-0.877-0.006-0.006-0.010-0.013-0.016-0.019l-5.373-5.517c-0.016-0.016-0.035-0.032-0.054-0.048-0.32-0.259-0.906-0.554-1.574-0.554-0.515 0-1.082 0.176-1.616 0.675-1.2 1.126-0.822 2.582-0.458 3.194 0.026 0.045 0.058 0.083 0.093 0.118l2.186 2.186c0.122 0.118 0.278 0.179 0.435 0.179s0.314-0.061 0.435-0.179c0.24-0.24 0.24-0.627 0-0.867l-2.122-2.122c-0.106-0.211-0.41-0.97 0.275-1.61 0.275-0.259 0.554-0.342 0.797-0.342 0.362 0 0.65 0.186 0.758 0.262l5.334 5.472c0.698 0.771 1.702 1.248 2.694 1.274 0.032 0 0.061 0 0.093 0 0.81 0 1.536-0.298 2.099-0.858 1.277-1.277 1.354-2.525 1.251-3.248 0 0 0 0 0 0-0.003-0.032-0.010-0.064-0.016-0.096 0-0.006-0.003-0.013-0.003-0.022-0.006-0.029-0.010-0.061-0.016-0.086 0.704-0.256 1.402-0.653 2.083-1.2 0.083-0.067 0.134-0.166 0.138-0.272 0-0.013 0-0.029 0-0.042-0.006-0.003-0.006-0.003-0.010-0.006z"></path>
<path fill="#444444" d="M10.566 8.362h14.96c0.915 0 1.658-0.742 1.658-1.658v0c0-0.915-0.742-1.658-1.658-1.658h-14.96c-0.915 0-1.658 0.742-1.658 1.658v0c0 0.915 0.742 1.658 1.658 1.658z"></path>
<path fill="#444444" d="M8.909 13.946c0 0.915 0.742 1.658 1.658 1.658h14.96c0.915 0 1.658-0.742 1.658-1.658v0c0-0.915-0.742-1.658-1.658-1.658h-14.96c-0.915 0-1.658 0.742-1.658 1.658v0z"></path>
<path fill="#444444" d="M25.526 19.526h-7.91c-0.915 0-1.658 0.742-1.658 1.658v0c0 0.915 0.742 1.658 1.658 1.658h7.91c0.915 0 1.658-0.742 1.658-1.658v0c0-0.915-0.742-1.658-1.658-1.658z"></path>
<path fill="#444444" d="M28.413 0h-20.73c-1.974 0-3.581 1.606-3.581 3.581v9.27c0.208-0.067 0.429-0.102 0.65-0.102 0 0 0 0 0 0s0 0 0 0c0.4 0 0.784 0.112 1.114 0.317v-9.485c0-1.002 0.816-1.818 1.818-1.818h20.73c1.002 0 1.818 0.816 1.818 1.818v20.73c0 1.002-0.816 1.818-1.818 1.818h-10.483c0.006 0.074 0.006 0.144 0.003 0.218v0.006c-0.026 0.598-0.301 1.155-0.758 1.536h11.235c1.974 0 3.581-1.606 3.581-3.581v-20.726c0-1.974-1.606-3.581-3.578-3.581z"></path>
</svg>
