<?xml version="1.0" encoding="utf-8"?>
<!-- Generated by IcoMoon.io -->
<!DOCTYPE svg PUBLIC "-//W3C//DTD SVG 1.1//EN" "http://www.w3.org/Graphics/SVG/1.1/DTD/svg11.dtd">
<svg version="1.1" xmlns="http://www.w3.org/2000/svg" xmlns:xlink="http://www.w3.org/1999/xlink" width="32" height="32" viewBox="0 0 32 32">
<g id="icomoon-ignore">
	<line stroke-width="1" x1="" y1="" x2="" y2="" stroke="#449FDB" opacity=""></line>
</g>
	<path d="M31.458 28.078c0 2.166-1.756 3.922-3.922 3.922h-18.303c-2.166 0-3.922-1.756-3.922-3.922v-8.498c0-2.166 1.756-3.922 3.922-3.922h18.303c2.166 0 3.922 1.756 3.922 3.922v8.498zM4.251 19.984c0-1.174-0.952-2.125-2.125-2.125v0c-1.174 0-2.126 0.952-2.126 2.125v8.147c0 1.174 0.952 2.125 2.125 2.125v0c1.174 0 2.125-0.952 2.125-2.125v-8.147zM9.233 22.903c0.767 0 1.389-0.622 1.389-1.389s-0.622-1.389-1.389-1.389-1.389 0.622-1.389 1.389 0.622 1.389 1.389 1.389zM9.233 27.234c0.767 0 1.389-0.622 1.389-1.389s-0.622-1.389-1.389-1.389-1.389 0.622-1.389 1.389c0 0.767 0.622 1.389 1.389 1.389zM21.965 23.54l-3.58-3.595-3.613 3.597 2.387 0.005-0.002 3.581 2.466-0.004v-3.604l2.342 0.020zM10.541 15.658v-15.658h7.844l7.844 7.857v7.801h-2.615v-6.507h-6.537v-6.536h-3.922v13.043h-2.614zM18.385 7.844h5.229l-5.229-5.217v5.217zM22.307 10.459h-7.844v1.307h7.844v-1.307zM14.463 14.381h7.844v-1.307h-7.844v1.307z" fill="#000000"></path>
</svg>
