<?xml version="1.0" encoding="utf-8"?>
<!-- Generated by IcoMoon.io -->
<!DOCTYPE svg PUBLIC "-//W3C//DTD SVG 1.1//EN" "http://www.w3.org/Graphics/SVG/1.1/DTD/svg11.dtd">
<svg version="1.1" xmlns="http://www.w3.org/2000/svg" xmlns:xlink="http://www.w3.org/1999/xlink" width="32" height="32" viewBox="0 0 32 32">
<g id="icomoon-ignore">
	<line stroke-width="1" x1="" y1="" x2="" y2="" stroke="#449FDB" opacity=""></line>
</g>
	<path d="M31.521 28.047c0 2.166-1.756 3.922-3.922 3.922h-18.303c-2.166 0-3.922-1.756-3.922-3.922v-8.498c0-2.166 1.756-3.922 3.922-3.922h18.303c2.166 0 3.922 1.756 3.922 3.922v8.498zM4.313 19.953c0-1.174-0.952-2.125-2.125-2.125v0c-1.174 0-2.125 0.952-2.125 2.125v8.147c0 1.174 0.952 2.125 2.125 2.125v0c1.174 0 2.125-0.952 2.125-2.125v-8.147zM9.296 22.872c0.767 0 1.389-0.622 1.389-1.389s-0.622-1.389-1.389-1.389-1.389 0.622-1.389 1.389 0.622 1.389 1.389 1.389zM9.296 27.202c0.767 0 1.389-0.622 1.389-1.389s-0.622-1.389-1.389-1.389-1.389 0.622-1.389 1.389 0.622 1.389 1.389 1.389zM14.851 23.591l3.58 3.595 3.613-3.597-2.387-0.005-0.015-3.599-2.407 0.013-0.015 3.581-2.369 0.012zM10.603 15.627v-15.658h7.844l7.844 7.857v7.801h-2.615v-6.507h-6.536v-6.537h-3.922v13.043h-2.615zM18.447 7.813h5.229l-5.229-5.217v5.217zM14.525 14.35h7.844v-1.307h-7.844v1.307zM22.369 10.428h-7.844v1.307h7.844v-1.307z" fill="#000000"></path>
</svg>
