<?xml version="1.0" encoding="utf-8"?>
<!-- Generated by IcoMoon.io -->
<!DOCTYPE svg PUBLIC "-//W3C//DTD SVG 1.1//EN" "http://www.w3.org/Graphics/SVG/1.1/DTD/svg11.dtd">
<svg version="1.1" xmlns="http://www.w3.org/2000/svg" xmlns:xlink="http://www.w3.org/1999/xlink" width="32" height="32" viewBox="0 0 32 32">
<path fill="#444444" d="M12.237 22.352v6.662c0 1.037 1.686 1.882 3.763 1.882s3.763-0.842 3.763-1.882v-6.662c1.885-3.763 12.237-12.579 12.237-16.342h-0.029c0.006-0.042 0.029-0.077 0.029-0.118 0-2.141-7.168-4.787-16-4.787s-16 2.646-16 4.787c0 0.042 0.022 0.077 0.029 0.118h-0.029c0 3.763 10.352 12.579 12.237 16.342zM16.138 2.154c7.75 0 14.061 2.016 14.061 3.997s-6.307 3.59-14.061 3.59-14.058-1.613-14.058-3.59 6.307-3.997 14.058-3.997z"></path>
</svg>
