<?xml version="1.0" encoding="utf-8"?>
<!-- Generated by IcoMoon.io -->
<!DOCTYPE svg PUBLIC "-//W3C//DTD SVG 1.1//EN" "http://www.w3.org/Graphics/SVG/1.1/DTD/svg11.dtd">
<svg version="1.1" xmlns="http://www.w3.org/2000/svg" xmlns:xlink="http://www.w3.org/1999/xlink" width="32" height="32" viewBox="0 0 32 32">
<path fill="#000" d="M27.925 9.84h-13.637v15.341h13.637v-15.341zM24.516 6.431h-6.818v1.705h6.818v-1.705zM21.107 30.295c0.937 0 1.705-0.767 1.705-1.705s-0.767-1.705-1.705-1.705c-0.937 0-1.705 0.767-1.705 1.705s0.767 1.705 1.705 1.705zM26.22 32h-10.227c-1.875 0-3.409-1.534-3.409-3.409v-20.455c0-1.875 1.534-3.409 3.409-3.409h10.227c1.875 0 3.409 1.534 3.409 3.409v20.455c0.001 1.875-1.533 3.409-3.409 3.409zM17.445 14.427l-2.617 2.154 1.063 1.3c0 0-2.863-0.98-5.528-4.223-2.179-2.664-2.943-5.039-2.871-6.048l0.893 1.091 2.631-2.137-5.368-6.564-2.617 2.154 0.040 0.048c-1.798 2.354-0.062 8.391 4.387 13.831 4.737 5.794 10.107 9.235 12.724 7.096l2.616-2.139-5.353-6.563z"></path>
</svg>
