<?xml version="1.0" encoding="utf-8"?>
<!-- Generated by IcoMoon.io -->
<!DOCTYPE svg PUBLIC "-//W3C//DTD SVG 1.1//EN" "http://www.w3.org/Graphics/SVG/1.1/DTD/svg11.dtd">
<svg version="1.1" xmlns="http://www.w3.org/2000/svg" xmlns:xlink="http://www.w3.org/1999/xlink" width="32" height="32" viewBox="0 0 32 32">
<path fill="#444444" d="M2.224 25.766c0.205 0.205 0.426 0.394 0.656 0.573 0 0 0.586 0.534 1.453 0.886 0.941 0.442 2.016 0.736 3.222 0.867 0.147 0.016 0.294-0.032 0.403-0.131 0.109-0.102 0.17-0.243 0.163-0.39l-0.214-7.139c-0.003-0.141-0.067-0.275-0.176-0.371-0.109-0.093-0.25-0.138-0.39-0.122-0.429 0.048-1.77 0.067-2.291-0.458-0.144-0.144-0.211-0.317-0.218-0.544-0.042-1.808 0-5.757 0-5.779 0.003-0.054 0.115-1.334 2.589-1.651 0.237-0.032 0.422-0.221 0.445-0.461l0.598-6.413c0.022-0.25-0.138-0.48-0.381-0.544-0.125-0.032-3.034-0.752-5.373 0.915-1.578 1.126-2.486 3.040-2.701 5.696 0 0.013-0.003 0.029-0.003 0.042v9.338c-0.010 0.131-0.144 3.325 2.218 5.686z"></path>
<path fill="#444444" d="M31.616 4.090c-0.125-0.032-3.034-0.752-5.373 0.915-1.578 1.126-2.486 3.040-2.701 5.696 0 0.013-0.003 0.029-0.003 0.042v9.338c-0.006 0.134-0.141 3.328 2.221 5.69 0.205 0.205 0.426 0.394 0.656 0.573 0 0 0.586 0.534 1.453 0.886 0.941 0.442 2.016 0.736 3.222 0.867 0.147 0.016 0.294-0.032 0.403-0.131 0.109-0.102 0.17-0.243 0.163-0.39l-0.214-7.139c-0.003-0.141-0.067-0.275-0.176-0.371-0.109-0.093-0.25-0.138-0.39-0.122-0.429 0.048-1.77 0.067-2.291-0.458-0.144-0.144-0.211-0.317-0.218-0.544-0.042-1.808 0-5.757 0-5.779 0.003-0.054 0.115-1.334 2.589-1.651 0.237-0.032 0.422-0.221 0.445-0.461l0.598-6.413c0.022-0.256-0.141-0.486-0.384-0.547z"></path>
<path fill="#444444" d="M21.894 16l-6.682-6.061v4.070h-5.107v3.981h5.107v4.070z"></path>
</svg>
