<?xml version="1.0" encoding="utf-8"?>
<!-- Generated by IcoMoon.io -->
<!DOCTYPE svg PUBLIC "-//W3C//DTD SVG 1.1//EN" "http://www.w3.org/Graphics/SVG/1.1/DTD/svg11.dtd">
<svg version="1.1" xmlns="http://www.w3.org/2000/svg" xmlns:xlink="http://www.w3.org/1999/xlink" width="32" height="32" viewBox="0 0 32 32">
<path fill="#444444" d="M31.309 8.458c-0.491-0.512-1.192-0.807-1.923-0.807h-6.088l0.546-3.096h-6.288l-0.546 3.096h-4.184v-0.482c0-1.441-1.172-2.613-2.611-2.613h-6.44c-1.44 0-2.612 1.172-2.612 2.613v0.92c-0.712 0.473-1.163 1.276-1.163 2.174v14.572c0 0.002 0 0.006 0.002 0.010l-0.002 0.006c0 1.432 1.171 2.594 2.611 2.594h24.266c0.090 0 0.178-0.004 0.265-0.014 0.016 0 0.032-0.005 0.048-0.006 0.070-0.008 0.142-0.017 0.211-0.032 0.012-0.002 0.022-0.005 0.031-0.009 0.074-0.016 0.148-0.033 0.221-0.057 0.004-0.002 0.007-0.002 0.010-0.004 0.898-0.282 1.584-1.033 1.771-1.961 0.002-0.002 0.002-0.006 0.002-0.008 0.016-0.076 0.027-0.151 0.035-0.229 0.002-0.021 0.004-0.042 0.006-0.064 0.003-0.035 0.008-0.067 0.010-0.104l2.496-14.525 0.016-0.141c0.027-0.69-0.216-1.342-0.689-1.834zM30.015 10.589l-2.467 13.988c-0.107 0.61-0.688 1.106-1.299 1.106h-23.31c-0.611 0-1.018-0.495-0.91-1.106l2.467-13.988c0.107-0.61 0.689-1.104 1.299-1.104h10.894l-0.696 3.949h-2.865l4.878 6.41 7.14-6.41h-2.864l0.696-3.949h6.13c0.609 0 1.017 0.494 0.909 1.104z"></path>
</svg>
