<?xml version="1.0" encoding="utf-8"?>
<!-- Generated by IcoMoon.io -->
<!DOCTYPE svg PUBLIC "-//W3C//DTD SVG 1.1//EN" "http://www.w3.org/Graphics/SVG/1.1/DTD/svg11.dtd">
<svg version="1.1" xmlns="http://www.w3.org/2000/svg" xmlns:xlink="http://www.w3.org/1999/xlink" width="32" height="32" viewBox="0 0 32 32">
<path fill="#444444" d="M32 16.739c0-1.76-0.48-2.4-1.28-3.2l-7.2-7.040-5.44-5.12c-1.12-1.12-3.040-1.12-4.16 0l-12.64 12c-0.8 0.8-1.28 1.44-1.28 3.2v10.88c0 2.24 1.76 4 4 4h24c2.24 0 4-1.76 4-4v-10.72zM18.4 28.419h-4.64v-11.84c0-0.32 0.16-0.48 0.48-0.48h3.84c0.32 0 0.48 0.16 0.48 0.48v11.84h-0.16zM28.16 28.419h-6.4v-11.84c0-2.080-1.6-3.68-3.68-3.68h-3.84c-2.080 0-3.68 1.6-3.68 3.68v11.84h-6.4c-0.48 0-0.8-0.32-0.8-0.8v-10.88c0-0.48 0-0.64 0-0.64v0c0 0 0.16-0.16 0.32-0.32l12.48-11.84 5.28 4.96 7.2 6.88c0.16 0.16 0.32 0.16 0.32 0.32 0 0 0 0.16 0 0.64v10.88c-0.16 0.48-0.48 0.8-0.8 0.8z"></path>
</svg>
