<?xml version="1.0" encoding="utf-8"?>
<!-- Generated by IcoMoon.io -->
<!DOCTYPE svg PUBLIC "-//W3C//DTD SVG 1.1//EN" "http://www.w3.org/Graphics/SVG/1.1/DTD/svg11.dtd">
<svg version="1.1" xmlns="http://www.w3.org/2000/svg" xmlns:xlink="http://www.w3.org/1999/xlink" width="32" height="32" viewBox="0 0 32 32">
<path fill="#444444" d="M26.829 10.182c2.813 0 5.091-2.278 5.091-5.091s-2.278-5.091-5.091-5.091c-2.813 0-5.091 2.278-5.091 5.091 0 0.422 0.067 0.829 0.163 1.222l-9.094 5.363c-1.299-1.683-3.318-2.79-5.613-2.79-3.93 0-7.114 3.184-7.114 7.114s3.184 7.114 7.114 7.114c2.314 0 4.346-1.12 5.648-2.832l9.078 5.354c-0.106 0.41-0.179 0.829-0.179 1.27 0 2.813 2.278 5.091 5.091 5.091s5.091-2.278 5.091-5.091-2.278-5.091-5.091-5.091c-1.315 0-2.502 0.512-3.408 1.331l-9.328-5.498c0.125-0.531 0.211-1.075 0.211-1.648 0-0.589-0.093-1.152-0.227-1.696l9.299-5.485c0.912 0.838 2.115 1.363 3.45 1.363z"></path>
</svg>
