<?xml version="1.0" encoding="utf-8"?>
<!-- Generated by IcoMoon.io -->
<!DOCTYPE svg PUBLIC "-//W3C//DTD SVG 1.1//EN" "http://www.w3.org/Graphics/SVG/1.1/DTD/svg11.dtd">
<svg version="1.1" xmlns="http://www.w3.org/2000/svg" xmlns:xlink="http://www.w3.org/1999/xlink" width="32" height="32" viewBox="0 0 32 32">
<g id="icomoon-ignore">
	<line stroke-width="1" x1="" y1="" x2="" y2="" stroke="#449FDB" opacity=""></line>
</g>
	<path d="M10.201 3.983c0.149 0.034 0.298 0.046 0.445 0.046l0.207 0.892c0.054 0.232 0.262 0.39 0.491 0.39 0.037 0 0.076-0.004 0.114-0.013 0.271-0.063 0.44-0.334 0.377-0.605l-0.214-0.923c0.483-0.27 0.857-0.729 0.988-1.312 0.244-1.086-0.439-2.164-1.525-2.408-1.086-0.245-2.164 0.438-2.408 1.524-0.244 1.087 0.439 2.165 1.525 2.409z" fill="#000000"></path>
	<path d="M25.445 24.777c-0.512-0.112-1.018-0.012-1.438 0.232l-1.197-1.19c-0.199-0.193-0.516-0.193-0.715 0.002-0.195 0.199-0.195 0.518 0.002 0.715l1.193 1.186c-0.108 0.182-0.197 0.378-0.244 0.596-0.237 1.088 0.452 2.162 1.54 2.399s2.162-0.452 2.399-1.54c0.237-1.089-0.453-2.163-1.54-2.4z" fill="#000000"></path>
	<path d="M28.352 3.556c-0.217-0.047-0.434-0.070-0.647-0.070-1.391 0-2.643 0.966-2.951 2.38-0.163 0.747-0.023 1.485 0.321 2.105l-8.095 5.703c-0.56-0.749-1.369-1.319-2.355-1.534-0.289-0.063-0.578-0.093-0.863-0.093-0.074 0-0.144 0.015-0.217 0.019l-0.343-1.483c-0.062-0.271-0.333-0.44-0.605-0.377s-0.44 0.334-0.377 0.605l0.332 1.433c-1.329 0.423-2.405 1.516-2.724 2.976-0.138 0.633-0.103 1.258 0.046 1.845l-1.281 0.375c-0.267 0.079-0.42 0.358-0.341 0.626 0.064 0.22 0.265 0.362 0.483 0.362 0.046 0 0.094-0.006 0.142-0.020l1.37-0.401c0.541 0.987 1.476 1.751 2.662 2.010 0.167 0.036 0.332 0.039 0.497 0.054l0.122 5.926c-1.173 0.206-2.162 1.099-2.432 2.334-0.356 1.632 0.679 3.242 2.31 3.598 0.217 0.047 0.434 0.070 0.647 0.070 1.391 0 2.643-0.966 2.951-2.38 0.356-1.631-0.679-3.242-2.31-3.598-0.053-0.012-0.105-0.008-0.158-0.017l-0.122-5.949c0.799-0.13 1.528-0.506 2.109-1.053l1.262 1.253c0.098 0.096 0.227 0.146 0.355 0.146 0.13 0 0.26-0.049 0.358-0.15 0.195-0.197 0.195-0.516-0.004-0.713l-1.317-1.309c0.244-0.386 0.425-0.821 0.528-1.292 0.181-0.832 0.088-1.658-0.214-2.39l8.216-5.789c0.376 0.335 0.831 0.591 1.357 0.706 0.217 0.047 0.434 0.070 0.647 0.070 1.391 0 2.643-0.966 2.951-2.38 0.356-1.631-0.679-3.242-2.31-3.598zM15.745 27.887c0.291 0.453 0.388 0.992 0.273 1.518-0.2 0.92-1.028 1.587-1.966 1.587-0.144 0-0.29-0.016-0.432-0.047-1.086-0.237-1.777-1.313-1.54-2.399 0.2-0.92 1.027-1.587 1.966-1.587 0.144 0 0.29 0.016 0.432 0.047 0.526 0.115 0.976 0.428 1.267 0.881zM13.77 18.599c-0.18 0-0.362-0.020-0.541-0.059-1.357-0.296-2.221-1.641-1.925-2.998 0.251-1.149 1.284-1.984 2.458-1.984 0.18 0 0.362 0.020 0.541 0.059 1.357 0.296 2.221 1.641 1.925 2.998-0.251 1.15-1.285 1.984-2.458 1.984zM29.677 6.939c-0.2 0.92-1.027 1.587-1.966 1.587-0.144 0-0.289-0.016-0.432-0.047-0.526-0.115-0.976-0.427-1.267-0.88s-0.388-0.992-0.273-1.518c0.201-0.92 1.027-1.587 1.966-1.587 0.144 0 0.29 0.016 0.432 0.047 1.086 0.236 1.777 1.313 1.54 2.398z" fill="#000000"></path>
	<path d="M19.932 20.964c-0.197-0.195-0.516-0.195-0.713 0.004-0.195 0.197-0.195 0.516 0.004 0.713l1.437 1.427c0.098 0.096 0.226 0.146 0.354 0.146 0.13 0 0.26-0.049 0.358-0.15 0.195-0.197 0.195-0.516-0.004-0.713l-1.436-1.427z" fill="#000000"></path>
	<path d="M6.658 18.006l-1.604 0.47c-0.267-0.509-0.742-0.906-1.348-1.038-1.088-0.237-2.162 0.452-2.399 1.54s0.452 2.162 1.54 2.399c1.088 0.237 2.162-0.452 2.399-1.54 0.028-0.127 0.040-0.253 0.043-0.379l1.651-0.484c0.267-0.079 0.42-0.358 0.342-0.626-0.077-0.267-0.356-0.419-0.624-0.342z" fill="#000000"></path>
	<path d="M11.685 6.279c-0.271 0.063-0.44 0.334-0.377 0.605l0.456 1.964c0.054 0.232 0.262 0.39 0.491 0.39 0.037 0 0.076-0.004 0.114-0.013 0.271-0.063 0.44-0.334 0.377-0.605l-0.456-1.964c-0.062-0.27-0.327-0.437-0.605-0.377z" fill="#000000"></path>
</svg>
