<?xml version="1.0" encoding="utf-8"?>
<!-- Generated by IcoMoon.io -->
<!DOCTYPE svg PUBLIC "-//W3C//DTD SVG 1.1//EN" "http://www.w3.org/Graphics/SVG/1.1/DTD/svg11.dtd">
<svg version="1.1" xmlns="http://www.w3.org/2000/svg" xmlns:xlink="http://www.w3.org/1999/xlink" width="32" height="32" viewBox="0 0 32 32">
<path fill="#444444" d="M24.73 9.312h4.224c1.398 0 2.544-1.146 2.544-2.544v-4.224c0-1.398-1.146-2.544-2.544-2.544h-4.224c-1.398 0-2.544 1.146-2.544 2.544v1.088h-3.709c-1.933-0.003-3.501 1.654-3.501 3.69v7.654h-5.162v-1.088c0-1.398-1.146-2.544-2.544-2.544h-4.224c-1.398 0-2.544 1.146-2.544 2.544v4.224c0 1.398 1.146 2.544 2.544 2.544h4.224c1.398 0 2.544-1.146 2.544-2.544v-1.088h5.162v7.651c0 2.035 1.571 3.693 3.501 3.693h3.709v1.088c0 1.398 1.146 2.544 2.544 2.544h4.224c1.398 0 2.544-1.146 2.544-2.544v-4.224c0-1.398-1.146-2.544-2.544-2.544h-4.224c-1.398 0-2.544 1.146-2.544 2.544v1.088h-3.709c-0.8 0-1.45-0.736-1.45-1.642v-7.654h5.162v1.088c0 1.398 1.146 2.544 2.544 2.544h4.224c1.398 0 2.544-1.146 2.544-2.544v-4.224c0-1.398-1.146-2.544-2.544-2.544h-4.224c-1.398 0-2.544 1.146-2.544 2.544v1.088h-5.165v-7.654c0-0.906 0.65-1.642 1.45-1.642h3.709v1.088c0.003 1.398 1.149 2.544 2.547 2.544z"></path>
</svg>
