<?xml version="1.0" encoding="utf-8"?>
<!-- Generated by IcoMoon.io -->
<!DOCTYPE svg PUBLIC "-//W3C//DTD SVG 1.1//EN" "http://www.w3.org/Graphics/SVG/1.1/DTD/svg11.dtd">
<svg version="1.1" xmlns="http://www.w3.org/2000/svg" xmlns:xlink="http://www.w3.org/1999/xlink" width="32" height="32" viewBox="0 0 32 32">
<path fill="#444444" d="M14.848 0.115c-2.95 0.47-5.28 1.885-6.886 4.422-0.749 1.184-1.139 2.493-1.187 3.894-0.035 1.018 0.822 1.664 1.709 1.29 0.544-0.23 0.739-0.701 0.758-1.258 0.038-1.21 0.461-2.285 1.21-3.213 1.782-2.202 4.131-3.043 6.902-2.694 2.886 0.362 5.536 2.749 6.298 5.555 0.378 1.402 0.397 2.81 0.253 4.24-0.227 2.237-1.040 4.24-2.451 5.978-0.918 1.13-1.92 2.192-2.89 3.283-0.95 1.072-1.789 2.214-2.387 3.53-0.365 0.803-0.746 1.603-1.194 2.362-0.666 1.126-1.67 1.811-2.982 1.99-1.248 0.17-2.346-0.077-3.114-1.181-0.502-0.723-0.781-1.536-0.883-2.406-0.048-0.397-0.154-0.758-0.486-1.005-0.422-0.314-0.877-0.365-1.344-0.099-0.48 0.272-0.691 0.71-0.608 1.232 0.112 0.694 0.234 1.402 0.47 2.058 0.614 1.699 1.686 3.008 3.453 3.619 0.41 0.141 0.845 0.198 1.27 0.298h1.187c0.112-0.026 0.221-0.058 0.333-0.070 1.613-0.214 2.966-0.922 4.048-2.138 0.858-0.96 1.395-2.106 1.933-3.261 0.349-0.749 0.733-1.507 1.235-2.157 0.829-1.066 1.76-2.054 2.666-3.059 1.37-1.517 2.56-3.149 3.312-5.069 0.56-1.427 0.848-2.912 0.944-4.438 0.112-1.782-0.048-3.526-0.691-5.219-1.648-4.362-6.307-7.213-10.877-6.483z"></path>
<path fill="#444444" d="M15.587 8.218c0.726-0.73 1.629-0.89 2.618-0.806 1.232 0.102 1.974 0.752 2.195 1.962 0.080 0.438 0.15 0.88 0.25 1.315 0.048 0.214 0.176 0.381 0.435 0.368 0.262-0.013 0.358-0.198 0.397-0.413 0.042-0.234 0.077-0.477 0.061-0.714-0.035-0.496-0.077-0.998-0.17-1.485-0.41-2.106-2.067-3.459-4.173-3.523-1.866-0.058-3.222 0.691-4.022 2.381-0.378 0.797-0.726 1.613-1.024 2.442-0.291 0.816-0.742 1.504-1.366 2.093-0.259 0.243-0.515 0.486-0.755 0.746-0.346 0.368-0.624 0.774-0.736 1.283-0.163 0.742-0.035 1.050 0.634 1.405 0.31 0.166 0.64 0.304 0.954 0.464 0.49 0.25 0.806 0.627 0.816 1.197 0.006 0.611-0.182 1.152-0.662 1.555-0.256 0.214-0.518 0.419-0.794 0.608-0.688 0.48-1.011 1.142-1.002 1.971 0.010 0.848 0.253 1.594 1.053 2.019 0.611 0.326 1.28 0.39 1.942 0.234 1.306-0.307 2.131-1.21 2.73-2.342 0.861-1.632 0.947-3.334 0.39-5.082-0.448-1.402-0.787-2.826-0.829-4.31 0.032-0.416 0.045-0.832 0.106-1.242 0.112-0.794 0.371-1.539 0.954-2.125z"></path>
</svg>
