<?xml version="1.0" encoding="utf-8"?>
<!-- Generated by IcoMoon.io -->
<!DOCTYPE svg PUBLIC "-//W3C//DTD SVG 1.1//EN" "http://www.w3.org/Graphics/SVG/1.1/DTD/svg11.dtd">
<svg version="1.1" xmlns="http://www.w3.org/2000/svg" xmlns:xlink="http://www.w3.org/1999/xlink" width="32" height="32" viewBox="0 0 32 32">
<g id="icomoon-ignore">
	<line stroke-width="1" x1="" y1="" x2="" y2="" stroke="#449FDB" opacity=""></line>
</g>
	<path d="M28.073 14.354c-0.179 0.676-0.322 1.365-0.545 2.027-0.951 2.83-2.722 5.017-5.243 6.609-0.421 0.266-0.843 0.554-1.194 0.903-0.494 0.49-0.664 1.143-0.729 1.829-0.314 3.32-2.849 5.932-6.155 6.242-2.463 0.232-4.517-0.645-6.088-2.576-0.719-0.883-0.591-2.099 0.257-2.783 0.861-0.695 2.046-0.575 2.781 0.303 0.779 0.931 1.757 1.325 2.947 1.098 1.345-0.257 2.231-1.356 2.374-2.799 0.226-2.293 1.303-4.092 3.287-5.279 1.576-0.944 2.853-2.145 3.643-3.819 2.461-5.216-0.716-11.192-6.416-12.078-3.836-0.596-7.646 1.607-9.102 5.284-0.294 0.741-0.752 1.263-1.553 1.415-1.497 0.285-2.726-1.137-2.208-2.572 0.892-2.472 2.434-4.453 4.594-5.948 1.811-1.254 3.819-1.966 6.016-2.147 0.086-0.007 0.17-0.041 0.255-0.063 0.492 0 0.984 0 1.476 0 0.085 0.021 0.17 0.055 0.257 0.061 1.19 0.079 2.345 0.33 3.451 0.766 3.487 1.374 5.907 3.822 7.232 7.325 0.29 0.767 0.446 1.584 0.664 2.378-0.001 1.275-0.001 2.549-0.001 3.824zM15.469 6.389c-0.189 0.015-0.379 0.030-0.566 0.062-2.442 0.424-4.105 1.801-4.982 4.114-0.255 0.672 0.104 1.379 0.77 1.64 0.64 0.25 1.354-0.046 1.654-0.689 0.056-0.121 0.099-0.249 0.154-0.371 1.052-2.372 4.218-2.89 5.97-0.975 0.656 0.717 0.952 1.568 0.964 2.535 0.009 0.736 0.594 1.302 1.305 1.297 0.725-0.005 1.282-0.563 1.293-1.303 0.004-0.245 0.009-0.494-0.021-0.736-0.395-3.231-2.967-5.54-6.206-5.576-0.111 0-0.224-0.007-0.335 0.002zM11.612 18.256c-0.979 0-1.772 0.794-1.772 1.772s0.794 1.772 1.772 1.772 1.772-0.794 1.772-1.772-0.793-1.772-1.772-1.772z" fill="#000000"></path>
</svg>
