<?xml version="1.0" encoding="utf-8"?>
<!-- Generated by IcoMoon.io -->
<!DOCTYPE svg PUBLIC "-//W3C//DTD SVG 1.1//EN" "http://www.w3.org/Graphics/SVG/1.1/DTD/svg11.dtd">
<svg version="1.1" xmlns="http://www.w3.org/2000/svg" xmlns:xlink="http://www.w3.org/1999/xlink" width="32" height="32" viewBox="0 0 32 32">
<path fill="#444444" d="M32 9.712c0-2.867-2.387-5.254-5.254-5.254h-21.491c-2.867 0-5.254 2.387-5.254 5.254v12.736c0 2.864 2.387 5.094 5.254 5.094v0h21.491c2.867 0 5.254-2.387 5.254-5.094v-12.736zM28.816 9.712v12.736c0 1.114-0.957 1.91-2.070 1.91h-21.491c-1.114 0-2.070-0.957-2.070-2.070v-12.896l12.736 11.146 12.736-11.146c0.16 0.16 0.16 0.16 0.16 0.32zM26.109 7.642l-9.869 8.755-9.872-8.755h19.741z"></path>
</svg>
