<?xml version="1.0" encoding="utf-8"?>
<!-- Generated by IcoMoon.io -->
<!DOCTYPE svg PUBLIC "-//W3C//DTD SVG 1.1//EN" "http://www.w3.org/Graphics/SVG/1.1/DTD/svg11.dtd">
<svg version="1.1" xmlns="http://www.w3.org/2000/svg" xmlns:xlink="http://www.w3.org/1999/xlink" width="32" height="32" viewBox="0 0 32 32">
<g id="icomoon-ignore">
	<line stroke-width="1" x1="" y1="" x2="" y2="" stroke="#449FDB" opacity=""></line>
</g>
	<path d="M26.663 28.325l-2.718 2.718c-2.719 2.718-9.188-0.567-15.207-6.587-5.653-5.652-8.303-12.288-6.536-15.157l-0.050-0.049 2.718-2.735 6.82 6.819-2.735 2.718-1.134-1.133c0.033 1.151 1.168 3.752 3.936 6.519 3.385 3.368 6.737 4.152 6.737 4.152l-1.351-1.351 2.718-2.735 6.802 6.821zM28.956 9.097v0l-0.273-0.519-3.905-7.437c-0.15-0.287-0.505-0.397-0.791-0.246l-6.1 5.189c0 0-0.457 0.39-0.246 0.791l3.692 7.032c-0.298 0.064-0.613 0.176-0.925 0.34-1.051 0.552-1.658 1.464-1.358 2.037s1.397 0.59 2.447 0.039c1.051-0.552 1.658-1.464 1.358-2.037l-2.895-5.513 5.207-4.37 2.266 4.315c-0.298 0.064-0.613 0.176-0.925 0.34-1.051 0.552-1.658 1.464-1.357 2.037s1.397 0.59 2.447 0.039c1.051-0.552 1.658-1.464 1.358-2.037v0zM11.287 0.007c0 0-1.116 0.735-0.905 1.136l3.692 7.032c-0.298 0.064-0.613 0.176-0.925 0.34-1.051 0.552-1.658 1.464-1.358 2.037 0.301 0.573 1.397 0.59 2.447 0.039 1.051-0.552 1.658-1.464 1.358-2.037l-4.309-8.547z" fill="#000000"></path>
</svg>
