<?xml version="1.0" encoding="utf-8"?>
<!-- Generated by IcoMoon.io -->
<!DOCTYPE svg PUBLIC "-//W3C//DTD SVG 1.1//EN" "http://www.w3.org/Graphics/SVG/1.1/DTD/svg11.dtd">
<svg version="1.1" xmlns="http://www.w3.org/2000/svg" xmlns:xlink="http://www.w3.org/1999/xlink" width="32" height="32" viewBox="0 0 32 32">
<path fill="#444444" d="M22.099 24.672c0.006-0.134-0.048-0.266-0.147-0.358l-4.749-4.474c-0.096-0.090-0.221-0.134-0.352-0.125s-0.25 0.074-0.333 0.176c-0.246 0.307-1.098 1.187-1.776 1.187-0.186 0-0.339-0.067-0.493-0.211-1.194-1.142-3.715-3.722-3.731-3.734-0.032-0.038-0.787-0.938 0.605-2.739 0.134-0.173 0.128-0.416-0.010-0.582l-3.754-4.531c-0.147-0.176-0.4-0.221-0.598-0.102-0.099 0.061-2.445 1.475-2.88 4.061-0.291 1.747 0.358 3.571 1.933 5.421 0.010 0.010 0.016 0.019 0.026 0.029l6.032 6.029c0.083 0.093 2.058 2.24 5.11 2.24 0.266 0 0.528-0.022 0.794-0.054 0.099 0.506 0.128 1.648-1.13 2.906-0.544 0.544-1.184 0.643-1.632 0.63-0.829-0.022-1.715-0.448-2.307-1.11-0.006-0.006-0.013-0.016-0.022-0.022l-6.81-6.982c-0.022-0.022-0.045-0.042-0.067-0.061-0.72-0.582-2.493-1.302-4.042 0.157-1.523 1.424-1.046 3.267-0.579 4.042 0.032 0.054 0.074 0.106 0.118 0.15l2.768 2.768c0.304 0.304 0.797 0.304 1.101 0s0.304-0.797 0-1.101l-2.688-2.688c-0.134-0.269-0.518-1.226 0.349-2.042 0.864-0.813 1.741-0.269 1.968-0.102l6.758 6.934c0.883 0.979 2.157 1.581 3.414 1.616 0.038 0 0.077 0.003 0.115 0.003 1.027 0 1.946-0.374 2.659-1.088 1.782-1.782 1.722-3.523 1.539-4.371 0.893-0.323 1.776-0.826 2.64-1.523 0.099-0.083 0.163-0.211 0.17-0.346z"></path>
<path fill="#444444" d="M31.27 3.334l-9.322 0.579-0.022 8.95c-0.349-0.179-0.746-0.282-1.165-0.282-1.405 0-2.541 1.139-2.541 2.541s1.139 2.541 2.541 2.541c1.405 0 2.541-1.139 2.541-2.541v-8.541l6.563-0.406v4.954c-0.349-0.179-0.746-0.282-1.165-0.282-1.405 0-2.541 1.139-2.541 2.541s1.139 2.541 2.541 2.541c1.405 0 2.541-1.139 2.541-2.541l0.029-10.054z"></path>
<path fill="#444444" d="M16.768 0l-4.979 0.307-0.013 4.781c-0.186-0.096-0.397-0.15-0.621-0.15-0.749 0-1.357 0.608-1.357 1.357s0.608 1.357 1.357 1.357c0.749 0 1.357-0.608 1.357-1.357v-4.56l3.504-0.218v2.643c-0.186-0.096-0.397-0.15-0.621-0.15-0.749 0-1.357 0.608-1.357 1.357s0.608 1.357 1.357 1.357c0.749 0 1.357-0.608 1.357-1.357l0.016-5.366z"></path>
</svg>
