<?xml version="1.0" encoding="utf-8"?>
<!-- Generated by IcoMoon.io -->
<!DOCTYPE svg PUBLIC "-//W3C//DTD SVG 1.1//EN" "http://www.w3.org/Graphics/SVG/1.1/DTD/svg11.dtd">
<svg version="1.1" xmlns="http://www.w3.org/2000/svg" xmlns:xlink="http://www.w3.org/1999/xlink" width="32" height="32" viewBox="0 0 32 32">
<path fill="#444444" d="M23.235 32h-14.477c-2.742 0-5.027-2.285-5.027-5.027v-21.946c0-2.742 2.285-5.027 5.027-5.027h14.477c2.742 0 5.027 2.285 5.027 5.027v21.792c0.154 2.896-2.131 5.181-5.027 5.181zM8.758 3.046c-1.066 0-1.981 0.915-1.981 1.981v21.792c0 1.066 0.915 1.981 1.981 1.981h14.477c1.066 0 1.981-0.915 1.981-1.981v-21.792c0-1.066-0.915-1.981-1.981-1.981h-14.477z"></path>
<path fill="#444444" d="M21.712 16h-11.43c-0.915 0-1.523-0.608-1.523-1.523s0.608-1.523 1.523-1.523h11.427c0.915 0 1.523 0.608 1.523 1.523s-0.608 1.523-1.52 1.523z"></path>
<path fill="#444444" d="M21.712 9.754h-11.43c-0.915 0-1.523-0.608-1.523-1.523s0.608-1.523 1.523-1.523h11.427c0.915 0 1.523 0.608 1.523 1.523s-0.608 1.523-1.52 1.523z"></path>
<path fill="#444444" d="M21.712 22.096h-11.43c-0.915 0-1.523-0.608-1.523-1.523s0.608-1.523 1.523-1.523h11.427c0.915 0 1.523 0.608 1.523 1.523s-0.608 1.523-1.52 1.523z"></path>
</svg>
