<?xml version="1.0" encoding="utf-8"?>
<!-- Generated by IcoMoon.io -->
<!DOCTYPE svg PUBLIC "-//W3C//DTD SVG 1.1//EN" "http://www.w3.org/Graphics/SVG/1.1/DTD/svg11.dtd">
<svg version="1.1" xmlns="http://www.w3.org/2000/svg" xmlns:xlink="http://www.w3.org/1999/xlink" width="32" height="32" viewBox="0 0 32 32">
<path fill="#444444" d="M8.32 16c0 2.297-1.862 4.16-4.16 4.16s-4.16-1.863-4.16-4.16c0-2.297 1.863-4.16 4.16-4.16s4.16 1.863 4.16 4.16z"></path>
<path fill="#444444" d="M32 16c0 2.297-1.863 4.16-4.16 4.16s-4.16-1.863-4.16-4.16c0-2.297 1.863-4.16 4.16-4.16s4.16 1.863 4.16 4.16z"></path>
<path fill="#444444" d="M20.16 16c0 2.297-1.863 4.16-4.16 4.16s-4.16-1.863-4.16-4.16c0-2.297 1.863-4.16 4.16-4.16s4.16 1.863 4.16 4.16z"></path>
</svg>
