<?xml version="1.0" encoding="utf-8"?>
<!-- Generated by IcoMoon.io -->
<!DOCTYPE svg PUBLIC "-//W3C//DTD SVG 1.1//EN" "http://www.w3.org/Graphics/SVG/1.1/DTD/svg11.dtd">
<svg version="1.1" xmlns="http://www.w3.org/2000/svg" xmlns:xlink="http://www.w3.org/1999/xlink" width="32" height="32" viewBox="0 0 32 32">
<path fill="#444444" d="M23.277 30.672l-14.579-0.022 0.013-9.28h-1.328l-0.013 9.942c0 0.176 0.070 0.346 0.195 0.47s0.291 0.195 0.467 0.195l15.904 0.026c0.365 0 0.662-0.298 0.662-0.662l0.016-9.968h-1.328l-0.010 9.299z"></path>
<path fill="#444444" d="M11.274 28.698h9.475c0.243 0 0.442-0.198 0.442-0.442s-0.198-0.442-0.442-0.442h-9.475c-0.243 0-0.442 0.198-0.442 0.442s0.198 0.442 0.442 0.442z"></path>
<path fill="#444444" d="M11.274 26.045h9.475c0.243 0 0.442-0.198 0.442-0.442s-0.198-0.442-0.442-0.442h-9.475c-0.243 0-0.442 0.198-0.442 0.442s0.198 0.442 0.442 0.442z"></path>
<path fill="#444444" d="M11.274 23.392h9.475c0.243 0 0.442-0.198 0.442-0.442s-0.198-0.442-0.442-0.442h-9.475c-0.243 0-0.442 0.198-0.442 0.442s0.198 0.442 0.442 0.442z"></path>
<path fill="#444444" d="M29.098 3.078h-4.477l0.003-0.595c0-0.173-0.067-0.339-0.186-0.464l-1.738-1.795c-0.125-0.128-0.298-0.202-0.477-0.202l-14.157-0.022c0 0 0 0 0 0-0.365 0-0.662 0.294-0.662 0.659l-0.013 2.419h-4.49c-1.51 0-2.742 1.229-2.742 2.742v11.507c0 1.514 1.232 2.746 2.746 2.746h26.192c1.514 0 2.746-1.232 2.746-2.746v-11.507c-0.003-1.514-1.232-2.742-2.746-2.742zM19.968 17.091h-7.936c-0.134 0-0.176-0.099-0.093-0.205l3.917-7.494c0.080-0.106 0.214-0.099 0.298 0.006l3.917 7.488c0.074 0.106 0.032 0.205-0.102 0.205zM23.274 7.053l-14.576-0.022 0.029-5.702 13.216 0.022 1.354 1.398-0.022 4.304z"></path>
</svg>
