<?xml version="1.0" encoding="utf-8"?>
<!-- Generated by IcoMoon.io -->
<!DOCTYPE svg PUBLIC "-//W3C//DTD SVG 1.1//EN" "http://www.w3.org/Graphics/SVG/1.1/DTD/svg11.dtd">
<svg version="1.1" xmlns="http://www.w3.org/2000/svg" xmlns:xlink="http://www.w3.org/1999/xlink" width="32" height="32" viewBox="0 0 32 32">
<path fill="#444444" d="M7.808 31.99c-2.064 0-4.016-0.816-5.498-2.294-3.082-3.082-3.082-7.91 0-10.992 0.573-0.573 1.498-0.573 2.067 0 0.573 0.573 0.573 1.498 0 2.067-1.92 1.923-1.92 4.931 0 6.854 1.853 1.853 5.002 1.853 6.854 0l16.384-16.384c1.92-1.923 1.92-4.934 0-6.854s-4.931-1.92-6.854 0l-10.070 10.077c-0.746 0.746-0.746 2.16 0 2.906s2.157 0.746 2.906 0l7.149-7.149c0.573-0.573 1.498-0.573 2.067 0 0.573 0.573 0.573 1.498 0 2.067l-7.146 7.149c-1.875 1.875-5.168 1.875-7.043 0s-1.875-5.168 0-7.043l10.074-10.074c3.082-3.082 7.91-3.082 10.992 0s3.082 7.91 0 10.992l-16.384 16.384c-1.482 1.482-3.434 2.294-5.498 2.294z"></path>
</svg>
