<?xml version="1.0" encoding="utf-8"?>
<!-- Generated by IcoMoon.io -->
<!DOCTYPE svg PUBLIC "-//W3C//DTD SVG 1.1//EN" "http://www.w3.org/Graphics/SVG/1.1/DTD/svg11.dtd">
<svg version="1.1" xmlns="http://www.w3.org/2000/svg" xmlns:xlink="http://www.w3.org/1999/xlink" width="32" height="32" viewBox="0 0 32 32">
<path fill="#444444" d="M15.997 12.010c3.354 0 5.907-2.714 5.907-5.907s-2.717-5.907-5.907-5.907c-3.354 0-5.907 2.714-5.907 5.907s2.714 5.907 5.907 5.907zM15.997 3.069c1.597 0 2.874 1.277 2.874 2.874s-1.277 2.874-2.874 2.874-2.874-1.277-2.874-2.874 1.437-2.874 2.874-2.874z"></path>
<path fill="#444444" d="M31.962 20.79c-0.16-1.277-0.64-2.394-1.597-3.194l-5.11-4.31c-0.957-0.797-2.554-1.277-3.99-1.277-1.597 0-2.714 0.48-3.67 1.437-0.48 0.64-0.957 1.597-1.597 1.597v0c-0.64 0-1.117-0.957-1.597-1.597-0.797-0.957-2.077-1.437-3.67-1.437s-3.034 0.48-3.99 1.277l-5.114 4.31c-0.957 0.797-1.594 1.917-1.594 3.194-0.16 1.277 0.32 2.394 1.117 3.354 0.957 1.117 2.234 1.597 3.514 1.597 1.117 0 2.234-0.32 3.034-1.117l0.797-0.64v2.714c0 3.034 3.034 5.11 7.504 5.11v0 0 0 0c4.47 0 7.504-2.077 7.504-5.11v-2.714l0.797 0.64c0.797 0.64 1.917 1.117 3.034 1.117 1.437 0 2.714-0.64 3.514-1.597 0.957-0.96 1.277-2.237 1.117-3.354zM28.608 22.067c-0.32 0.32-0.64 0.48-1.117 0.48-0.32 0-0.64 0-0.957-0.32l-3.354-2.874c-0.48-0.48-1.117-0.48-1.757-0.16s-0.797 0.957-0.797 1.597v5.907c0 1.117-2.234 1.917-4.31 1.917s-4.31-0.797-4.31-1.917v-5.907c0-0.64-0.32-1.277-0.797-1.597-0.64-0.32-1.277-0.16-1.757 0.16l-3.354 2.874c-0.32 0.32-0.797 0.32-0.957 0.32-0.48 0-0.797-0.16-1.117-0.48s-0.32-0.64-0.32-1.117c0-0.48 0.16-0.797 0.48-0.957 0 0 5.267-4.47 5.427-4.47 0.32-0.32 0.797-0.48 1.437-0.48 0.48 0 0.797 0.16 1.117 0.32s0.797 0.64 0.957 0.797c1.277 1.437 1.757 2.234 3.354 2.234v0c1.597 0 2.077-0.957 3.354-2.234 0.16-0.16 0.64-0.64 0.957-0.797 0.32-0.16 0.797-0.32 1.117-0.32 0.48 0 0.957 0.16 1.437 0.48 0.16 0 5.427 4.47 5.427 4.47 0.32 0.32 0.48 0.64 0.48 0.957-0.32 0.477-0.48 0.797-0.64 1.117z"></path>
</svg>
