<?xml version="1.0" encoding="utf-8"?>
<!-- Generated by IcoMoon.io -->
<!DOCTYPE svg PUBLIC "-//W3C//DTD SVG 1.1//EN" "http://www.w3.org/Graphics/SVG/1.1/DTD/svg11.dtd">
<svg version="1.1" xmlns="http://www.w3.org/2000/svg" xmlns:xlink="http://www.w3.org/1999/xlink" width="32" height="32" viewBox="0 0 32 32">
<path fill="#444444" d="M32 13.2c0-3.168-2.579-5.747-5.747-5.747-0.317 0-0.634 0.026-0.947 0.077-0.515-1.533-1.965-2.614-3.642-2.614-0.317 0-0.627 0.038-0.928 0.112-0.349-0.918-0.938-1.741-1.706-2.368-0.992-0.806-2.246-1.251-3.53-1.251-2.25 0-4.253 1.344-5.13 3.354-0.448-0.166-0.922-0.25-1.405-0.25-1.85 0-3.437 1.248-3.904 2.986-1.293 0.154-2.486 0.736-3.411 1.677-1.066 1.082-1.651 2.512-1.651 4.026 0 3.168 2.579 5.747 5.747 5.747h6.474l4.995 4.995c0.077 0.083 1.882 2.048 4.666 2.048 0.243 0 0.483-0.019 0.723-0.048 0.090 0.461 0.118 1.507-1.030 2.656-0.496 0.496-1.082 0.589-1.491 0.576-0.755-0.019-1.565-0.41-2.109-1.014-0.006-0.006-0.013-0.013-0.019-0.019l-6.218-6.387c-0.019-0.019-0.042-0.038-0.061-0.058-0.659-0.534-2.275-1.187-3.69 0.141-1.389 1.306-0.954 2.989-0.528 3.696 0.029 0.051 0.067 0.096 0.106 0.138l2.528 2.528c0.278 0.278 0.726 0.278 1.005 0s0.278-0.726 0-1.005l-2.454-2.454c-0.122-0.246-0.474-1.12 0.317-1.862 0.787-0.742 1.59-0.246 1.798-0.093l6.173 6.333c0.806 0.893 1.971 1.443 3.117 1.475 0.035 0 0.070 0.003 0.106 0.003 0.938 0 1.776-0.342 2.429-0.995 1.629-1.629 1.571-3.216 1.405-3.994 0.816-0.294 1.622-0.755 2.413-1.389 0.096-0.077 0.154-0.192 0.16-0.317 0.003-0.125-0.045-0.243-0.134-0.326l-4.342-4.086c-0.086-0.080-0.202-0.122-0.323-0.115-0.118 0.010-0.227 0.067-0.304 0.16-0.224 0.282-1.002 1.082-1.622 1.082-0.17 0-0.31-0.061-0.448-0.192-0.397-0.378-0.95-0.928-1.498-1.475h8.362c3.171 0 5.75-2.576 5.75-5.747zM15.978 17.014c-0.029-0.035-0.72-0.854 0.554-2.502 0.122-0.16 0.118-0.381-0.010-0.534l-3.427-4.134c-0.134-0.16-0.365-0.202-0.544-0.096-0.093 0.054-2.234 1.347-2.63 3.709-0.221 1.315 0.147 2.682 1.091 4.067h-5.264c-2.384 0-4.323-1.939-4.323-4.323 0-1.142 0.442-2.218 1.242-3.030s1.866-1.27 3.005-1.293c0.355-0.006 0.653-0.275 0.694-0.627 0.154-1.322 1.274-2.317 2.605-2.317 0.506 0 0.998 0.144 1.424 0.419 0.192 0.125 0.432 0.147 0.643 0.067 0.211-0.083 0.371-0.262 0.432-0.483 0.483-1.83 2.144-3.107 4.038-3.107 0.957 0 1.894 0.333 2.634 0.938 0.733 0.595 1.245 1.427 1.443 2.342 0.048 0.214 0.189 0.394 0.387 0.49s0.429 0.093 0.624-0.003c0.336-0.166 0.698-0.253 1.075-0.253 1.226 0 2.256 0.915 2.403 2.131 0.026 0.208 0.141 0.397 0.317 0.512s0.397 0.147 0.595 0.083c0.41-0.125 0.838-0.189 1.27-0.189 2.384 0 4.323 1.939 4.323 4.323s-1.939 4.323-4.323 4.323h-9.773c-0.304-0.307-0.499-0.509-0.506-0.512z"></path>
</svg>
