<?xml version="1.0" encoding="utf-8"?>
<!-- Generated by IcoMoon.io -->
<!DOCTYPE svg PUBLIC "-//W3C//DTD SVG 1.1//EN" "http://www.w3.org/Graphics/SVG/1.1/DTD/svg11.dtd">
<svg version="1.1" xmlns="http://www.w3.org/2000/svg" xmlns:xlink="http://www.w3.org/1999/xlink" width="32" height="32" viewBox="0 0 32 32">
<g id="icomoon-ignore">
	<line stroke-width="1" x1="" y1="" x2="" y2="" stroke="#449FDB" opacity=""></line>
</g>
	<path d="M4.389 6.135v-6.154h6.154v6.154h-6.154zM19.158 6.135v-6.154h-6.154v6.154h6.154zM10.543 14.751v-6.154h-6.154v6.154h6.154zM19.158 14.751v-6.154h-6.154v6.154h6.154zM27.688 6.135v-6.154h-6.154v6.154h6.154zM27.688 14.751v-6.154h-6.154v6.154h6.154zM10.466 23.366v-6.154h-6.154v6.154h6.154zM19.081 23.366v-6.154h-6.154v6.154h6.154zM27.611 23.366v-6.154h-6.154v6.154h6.154zM19.086 31.981v-6.154h-6.154v6.154h6.154z" fill="#000000"></path>
</svg>
