<?xml version="1.0" encoding="utf-8"?>
<!-- Generated by IcoMoon.io -->
<!DOCTYPE svg PUBLIC "-//W3C//DTD SVG 1.1//EN" "http://www.w3.org/Graphics/SVG/1.1/DTD/svg11.dtd">
<svg version="1.1" xmlns="http://www.w3.org/2000/svg" xmlns:xlink="http://www.w3.org/1999/xlink" width="32" height="32" viewBox="0 0 32 32">
<path fill="#444444" d="M16.547 26.618c0.102-0.096 0.157-0.227 0.154-0.368l-0.202-6.71c-0.003-0.134-0.064-0.259-0.166-0.349-0.102-0.086-0.234-0.128-0.368-0.115-0.403 0.045-1.661 0.064-2.157-0.429-0.134-0.134-0.198-0.298-0.205-0.512-0.038-1.699 0-5.411 0-5.434 0.003-0.051 0.109-1.254 2.435-1.552 0.224-0.029 0.397-0.208 0.416-0.432l0.563-6.029c0.022-0.234-0.128-0.451-0.358-0.509-0.115-0.029-2.854-0.707-5.050 0.861-1.485 1.059-2.336 2.858-2.538 5.354 0 0.013-0.003 0.026-0.003 0.038v8.778c-0.006 0.128-0.134 3.13 2.086 5.35 0.192 0.192 0.4 0.368 0.618 0.538-0.298 0.442-1.107 1.293-2.938 1.293-0.79 0-1.331-0.394-1.648-0.73-0.586-0.618-0.922-1.574-0.87-2.49 0-0.010 0-0.022 0-0.032l0.131-10.038c0-0.032 0-0.064-0.003-0.093-0.099-0.95-0.867-2.762-3.056-2.829-2.147-0.067-3.139 1.622-3.366 2.522-0.016 0.064-0.022 0.128-0.026 0.195v4.029c0 0.442 0.358 0.8 0.8 0.8s0.8-0.358 0.8-0.8v-3.914c0.099-0.291 0.515-1.27 1.738-1.232 1.219 0.038 1.462 1.072 1.507 1.36l-0.128 9.965c-0.067 1.354 0.419 2.723 1.309 3.661 0.029 0.029 0.054 0.058 0.083 0.086 0.749 0.749 1.69 1.142 2.726 1.142 2.595 0 3.814-1.312 4.304-2.061 0.883 0.416 1.894 0.691 3.030 0.813 0.141 0.013 0.282-0.032 0.381-0.128z"></path>
<path fill="#444444" d="M19.318 19.523c0.077 0.013 0.15 0.019 0.224 0.019 0.451 0 0.861-0.221 0.97-0.547 0.32-0.986 0.483-1.994 0.49-3.002-0.003-1.002-0.163-2-0.483-2.976-0.128-0.381-0.659-0.618-1.194-0.525-0.531 0.086-0.864 0.467-0.739 0.848h-0.003c0.288 0.867 0.429 1.76 0.429 2.653 0.003 0.899-0.147 1.802-0.435 2.682-0.134 0.378 0.205 0.758 0.742 0.848z"></path>
<path fill="#444444" d="M27.2 7.066h-0.006c1.875 2.829 2.81 5.878 2.81 8.931 0 3.056-0.934 6.109-2.81 8.934-0.237 0.355-0.022 0.774 0.48 0.944 0.138 0.045 0.278 0.064 0.416 0.064 0.374 0 0.733-0.15 0.906-0.406 1.997-3.018 3.005-6.275 3.005-9.536 0-3.258-1.005-6.515-3.005-9.533-0.234-0.355-0.829-0.506-1.322-0.339-0.496 0.166-0.707 0.589-0.474 0.941z"></path>
<path fill="#444444" d="M25.104 21.699c0.886-1.84 1.341-3.773 1.341-5.712 0-1.923-0.438-3.846-1.334-5.674-0.182-0.368-0.749-0.563-1.264-0.435-0.515 0.125-0.794 0.528-0.611 0.896 0.816 1.674 1.222 3.44 1.222 5.21 0 1.779-0.416 3.562-1.235 5.251-0.179 0.368 0.096 0.771 0.614 0.896 0.109 0.026 0.214 0.038 0.323 0.038 0.413 0.006 0.8-0.179 0.944-0.47z"></path>
</svg>
