<?xml version="1.0" encoding="utf-8"?>
<!-- Generated by IcoMoon.io -->
<!DOCTYPE svg PUBLIC "-//W3C//DTD SVG 1.1//EN" "http://www.w3.org/Graphics/SVG/1.1/DTD/svg11.dtd">
<svg version="1.1" xmlns="http://www.w3.org/2000/svg" xmlns:xlink="http://www.w3.org/1999/xlink" width="32" height="32" viewBox="0 0 32 32">
<path fill="#444444" d="M14.97 31.997c0.038 0 0.077 0.003 0.115 0.003z"></path>
<path fill="#444444" d="M9.555 6.874h-3.12c-1.034 0-1.878-0.845-1.878-1.878v-3.117c0-1.034 0.845-1.878 1.878-1.878h3.12c1.034 0 1.878 0.845 1.878 1.878v3.12c0 1.030-0.845 1.875-1.878 1.875z"></path>
<path fill="#444444" d="M17.558 6.874h-3.12c-1.034 0-1.878-0.845-1.878-1.878v-3.117c0.003-1.034 0.848-1.878 1.882-1.878h3.12c1.034 0 1.878 0.845 1.878 1.878v3.12c-0.003 1.030-0.848 1.875-1.882 1.875z"></path>
<path fill="#444444" d="M25.565 6.874h-3.12c-1.034 0-1.878-0.845-1.878-1.878v-3.117c0-1.034 0.845-1.878 1.878-1.878h3.12c1.034 0 1.878 0.845 1.878 1.878v3.12c0 1.030-0.845 1.875-1.878 1.875z"></path>
<path fill="#444444" d="M9.555 15.251h-3.12c-1.034 0-1.878-0.845-1.878-1.878v-3.12c0-1.034 0.845-1.878 1.878-1.878h3.12c1.034 0 1.878 0.845 1.878 1.878v3.12c0 1.034-0.845 1.878-1.878 1.878z"></path>
<path fill="#444444" d="M17.558 15.251h-3.12c-1.034 0-1.878-0.845-1.878-1.878v-3.12c0-1.034 0.845-1.878 1.878-1.878h3.12c1.034 0 1.878 0.845 1.878 1.878v3.12c0 1.034-0.845 1.878-1.878 1.878z"></path>
<path fill="#444444" d="M25.565 15.251h-3.12c-1.034 0-1.878-0.845-1.878-1.878v-3.12c0-1.034 0.845-1.878 1.878-1.878h3.12c1.034 0 1.878 0.845 1.878 1.878v3.12c0 1.034-0.845 1.878-1.878 1.878z"></path>
<path fill="#444444" d="M17.558 32h-3.12c-1.034 0-1.878-0.845-1.878-1.878v-3.12c0-1.034 0.845-1.878 1.878-1.878h3.12c1.034 0 1.878 0.845 1.878 1.878v3.12c0 1.034-0.845 1.878-1.878 1.878z"></path>
<path fill="#444444" d="M9.555 23.626h-3.12c-1.034 0-1.878-0.845-1.878-1.878v-3.12c0-1.034 0.845-1.878 1.878-1.878h3.12c1.034 0 1.878 0.845 1.878 1.878v3.12c0 1.034-0.845 1.878-1.878 1.878z"></path>
<path fill="#444444" d="M17.558 23.626h-3.12c-1.034 0-1.878-0.845-1.878-1.878v-3.12c0-1.034 0.845-1.878 1.878-1.878h3.12c1.034 0 1.878 0.845 1.878 1.878v3.12c0 1.034-0.845 1.878-1.878 1.878z"></path>
<path fill="#444444" d="M25.565 23.626h-3.12c-1.034 0-1.878-0.845-1.878-1.878v-3.12c0-1.034 0.845-1.878 1.878-1.878h3.12c1.034 0 1.878 0.845 1.878 1.878v3.12c0 1.034-0.845 1.878-1.878 1.878z"></path>
</svg>
