<?xml version="1.0" encoding="utf-8"?>
<!-- Generated by IcoMoon.io -->
<!DOCTYPE svg PUBLIC "-//W3C//DTD SVG 1.1//EN" "http://www.w3.org/Graphics/SVG/1.1/DTD/svg11.dtd">
<svg version="1.1" xmlns="http://www.w3.org/2000/svg" xmlns:xlink="http://www.w3.org/1999/xlink" width="32" height="32" viewBox="0 0 32 32">
<path fill="#444444" d="M32 7.725c0-1.011-0.819-1.83-1.83-1.83h-6.518c-1.011 0-1.83 0.819-1.83 1.83v14.41c0 1.011 0.819 1.83 1.83 1.83h6.518c1.011 0 1.83-0.819 1.83-1.83v-14.41zM27.050 23.037c-0.435 0.077-0.851-0.214-0.928-0.65s0.214-0.851 0.65-0.928c0.435-0.077 0.851 0.214 0.928 0.65 0.077 0.438-0.214 0.851-0.65 0.928zM22.794 20.646v-13.267h8.234v13.267h-8.234z"></path>
<path fill="#444444" d="M18.867 19.635c0.003-0.118-0.042-0.234-0.131-0.317l-4.192-3.949c-0.083-0.080-0.195-0.118-0.31-0.112s-0.221 0.064-0.291 0.154c-0.218 0.272-0.97 1.046-1.568 1.046-0.163 0-0.301-0.058-0.435-0.186-1.056-1.008-3.283-3.283-3.296-3.296-0.029-0.032-0.694-0.826 0.534-2.419 0.118-0.154 0.115-0.368-0.010-0.515l-3.315-3.997c-0.128-0.157-0.352-0.195-0.528-0.093-0.090 0.051-2.16 1.302-2.541 3.584-0.259 1.542 0.317 3.152 1.706 4.787 0.006 0.010 0.016 0.016 0.022 0.026l5.325 5.325c0.074 0.080 1.818 1.978 4.512 1.978 0.234 0 0.467-0.019 0.701-0.048 0.086 0.448 0.112 1.456-0.998 2.566-0.48 0.48-1.046 0.57-1.44 0.557-0.73-0.019-1.514-0.397-2.038-0.982-0.006-0.006-0.013-0.013-0.019-0.019l-6.013-6.166c-0.019-0.019-0.038-0.038-0.061-0.054-0.637-0.515-2.202-1.149-3.568 0.138-1.344 1.261-0.922 2.89-0.512 3.571 0.029 0.048 0.064 0.093 0.102 0.131l2.445 2.445c0.269 0.269 0.704 0.269 0.973 0s0.269-0.704 0-0.97l-2.374-2.374c-0.118-0.237-0.458-1.085 0.307-1.802 0.762-0.717 1.536-0.237 1.738-0.090l5.968 6.122c0.781 0.864 1.904 1.395 3.014 1.427 0.035 0 0.067 0.003 0.102 0.003 0.909 0 1.718-0.33 2.346-0.96 1.574-1.574 1.52-3.11 1.36-3.859 0.787-0.285 1.568-0.73 2.333-1.344 0.093-0.077 0.15-0.189 0.154-0.307z"></path>
</svg>
