<?xml version="1.0" encoding="utf-8"?>
<!-- Generated by IcoMoon.io -->
<!DOCTYPE svg PUBLIC "-//W3C//DTD SVG 1.1//EN" "http://www.w3.org/Graphics/SVG/1.1/DTD/svg11.dtd">
<svg version="1.1" xmlns="http://www.w3.org/2000/svg" xmlns:xlink="http://www.w3.org/1999/xlink" width="32" height="32" viewBox="0 0 32 32">
<path fill="#444444" d="M6.339 31.587c0.083 0.090 0.198 0.138 0.317 0.134l5.802-0.173c0.115-0.003 0.224-0.054 0.301-0.144 0.077-0.086 0.112-0.202 0.099-0.317-0.038-0.349-0.054-1.437 0.371-1.862 0.115-0.115 0.256-0.173 0.442-0.176 1.469-0.035 4.678 0 4.698 0 0.045 0.003 1.085 0.093 1.344 2.106 0.026 0.192 0.179 0.342 0.374 0.362l5.213 0.486c0.202 0.019 0.39-0.112 0.442-0.31 0.026-0.099 0.611-2.467-0.742-4.368-0.915-1.283-2.474-2.022-4.627-2.195-0.013 0-0.022 0-0.032-0.003h-7.587c-0.109-0.006-2.707-0.115-4.624 1.805-0.166 0.166-0.32 0.346-0.464 0.534-0.381-0.256-1.117-0.957-1.12-2.541 0-0.685 0.339-1.149 0.63-1.424 0.534-0.506 1.36-0.797 2.15-0.752 0.010 0 0.019 0 0.029 0l8.682 0.112c0.026 0 0.054 0 0.080-0.003 0.822-0.086 2.387-0.749 2.445-2.64 0.058-1.856-1.402-2.717-2.182-2.912-0.054-0.013-0.112-0.019-0.17-0.019h-2.339c-0.384 0-0.691 0.31-0.691 0.691 0 0.384 0.31 0.691 0.691 0.691h2.24c0.253 0.083 1.098 0.445 1.066 1.504-0.032 1.056-0.925 1.264-1.174 1.302l-8.618-0.112c-1.171-0.061-2.352 0.362-3.165 1.133-0.026 0.026-0.051 0.048-0.074 0.074-0.646 0.646-0.989 1.459-0.989 2.358 0 2.243 1.133 3.299 1.782 3.722-0.358 0.765-0.598 1.638-0.704 2.621-0.016 0.112 0.026 0.23 0.106 0.317z"></path>
<path fill="#444444" d="M9.859 6.95c0.042-0.051 0.086-0.102 0.131-0.154-0.55-0.39-1.146-0.685-1.773-0.874 0.922-0.557 1.533-1.568 1.533-2.733 0-1.773-1.418-3.19-3.19-3.19-1.597 0-3.19 1.418-3.19 3.19 0 1.165 0.611 2.176 1.533 2.733-1.171 0.349-2.237 1.072-3.101 2.115-1.203 1.459-1.866 3.382-1.866 5.421 0 0.63 0.509 1.139 1.139 1.139s1.139-0.509 1.139-1.139c0-1.437 0.438-2.749 1.155-3.728v4.035c0 0.838 0.682 1.52 1.52 1.52h3.344c0.010 0 0.022 0 0.032 0-0.413-0.496-0.666-1.133-0.666-1.827 0-2.435 0.803-4.746 2.259-6.509z"></path>
<path fill="#444444" d="M30.067 8.038c-0.864-1.043-1.93-1.766-3.101-2.115 0.922-0.557 1.533-1.568 1.533-2.733 0-1.773-1.418-3.19-3.19-3.19-1.597 0-3.19 1.418-3.19 3.19 0 1.165 0.611 2.176 1.533 2.733-0.624 0.186-1.222 0.48-1.773 0.874 0.045 0.051 0.090 0.102 0.131 0.154 1.456 1.763 2.259 4.074 2.259 6.509 0 0.694-0.25 1.331-0.666 1.827 0.010 0 0.019 0 0.032 0h3.344c0.838 0 1.52-0.682 1.52-1.52v-4.035c0.717 0.979 1.155 2.291 1.155 3.728 0 0.63 0.509 1.139 1.139 1.139s1.139-0.509 1.139-1.139c0.003-2.038-0.659-3.962-1.866-5.421z"></path>
<path fill="#444444" d="M21.901 10.058c-0.304-0.736-0.707-1.414-1.206-2.016-0.022-0.029-0.048-0.054-0.070-0.083-0.851-0.998-1.891-1.693-3.030-2.032 0.922-0.557 1.533-1.568 1.533-2.733 0-1.776-1.418-3.194-3.19-3.194-1.597 0-3.19 1.418-3.19 3.19 0 1.165 0.611 2.176 1.533 2.733-1.139 0.339-2.179 1.034-3.030 2.032-0.022 0.029-0.048 0.054-0.070 0.083-0.496 0.602-0.902 1.283-1.206 2.016-0.080 0.195-0.154 0.39-0.221 0.592-0.291 0.886-0.445 1.834-0.445 2.81 0 0.323 0.138 0.618 0.352 0.822 0.205 0.195 0.48 0.317 0.787 0.317 0.31 0 0.595-0.125 0.8-0.33 0.211-0.208 0.339-0.493 0.339-0.813 0-1.283 0.352-2.467 0.938-3.402 0.070-0.112 0.144-0.221 0.221-0.326v4.035c0 0.182 0.032 0.355 0.090 0.515 0.211 0.586 0.771 1.005 1.43 1.005h3.344c0.659 0 1.219-0.419 1.43-1.005 0.058-0.16 0.090-0.336 0.090-0.515v-4.035c0.077 0.106 0.15 0.214 0.221 0.326 0.586 0.938 0.938 2.118 0.938 3.402 0 0.317 0.131 0.605 0.339 0.813 0.205 0.202 0.486 0.33 0.8 0.33 0.304 0 0.582-0.122 0.787-0.317 0.218-0.208 0.352-0.499 0.352-0.822 0-0.976-0.154-1.926-0.445-2.81-0.067-0.198-0.138-0.397-0.218-0.589z"></path>
</svg>
