<?xml version="1.0" encoding="utf-8"?>
<!-- Generated by IcoMoon.io -->
<!DOCTYPE svg PUBLIC "-//W3C//DTD SVG 1.1//EN" "http://www.w3.org/Graphics/SVG/1.1/DTD/svg11.dtd">
<svg version="1.1" xmlns="http://www.w3.org/2000/svg" xmlns:xlink="http://www.w3.org/1999/xlink" width="32" height="32" viewBox="0 0 32 32">
<g id="icomoon-ignore">
	<line stroke-width="1" x1="" y1="" x2="" y2="" stroke="#449FDB" opacity=""></line>
</g>
	<path d="M0.793 9.846v-3.793c0.001-3.794 6.808-6.017 15.211-6.016 7.89-0.001 14.372 2.781 15.14 6.016l0.070-0.001 0.012 3.805-9.52 0.001 0.012-3.805 1.582-0.002c-0.826-0.78-3.433-1.804-7.297-1.803-4.713 0.011-7.6 1.804-7.6 1.804h1.885l0.012 3.806-9.507-0.012zM19.283 18.81c-0.532-0.266-1.31-0.914-2.469-1.125 0.286-0.341 0.518-0.88 0.757-1.5 0.116-0.375 0.096-0.682 0.096-1.125 0-0.327 0.068-0.846-0.021-1.146-0.252-0.975-0.893-1.241-1.65-1.241-0.764 0-1.405 0.266-1.657 1.241-0.075 0.3-0.021 0.825-0.021 1.146 0 0.443-0.020 0.75 0.123 1.125 0.225 0.621 0.443 1.166 0.737 1.5-1.146 0.225-1.93 0.866-2.441 1.125-1.091 0.511-1.091 1.084-1.091 1.084v0.211c0 0.375 0.402 0.75 0.798 0.75h7.126c0.498 0 0.804-0.409 0.804-0.784v-0.178c-0.001 0.001-0.014-0.572-1.091-1.083zM30.135 18.81c-0.532-0.266-1.31-0.914-2.469-1.125 0.286-0.341 0.518-0.88 0.757-1.5 0.116-0.375 0.096-0.682 0.096-1.125 0-0.327 0.068-0.846-0.021-1.146-0.252-0.975-0.893-1.241-1.65-1.241-0.764 0-1.405 0.266-1.657 1.241-0.075 0.3-0.021 0.825-0.021 1.146 0 0.443-0.020 0.75 0.123 1.125 0.225 0.621 0.443 1.166 0.737 1.5-1.146 0.225-1.93 0.866-2.441 1.125-1.091 0.511-1.091 1.084-1.091 1.084v0.211c0 0.375 0.402 0.75 0.798 0.75h7.126c0.498 0 0.804-0.409 0.804-0.784v-0.178c-0.001 0.001-0.014-0.572-1.091-1.083zM8.43 18.81c-0.532-0.266-1.31-0.914-2.469-1.125 0.286-0.341 0.518-0.88 0.757-1.5 0.116-0.375 0.096-0.682 0.096-1.125 0-0.327 0.068-0.846-0.021-1.146-0.252-0.975-0.893-1.241-1.65-1.241-0.764 0-1.405 0.266-1.657 1.241-0.075 0.3-0.021 0.825-0.021 1.146 0 0.443-0.020 0.75 0.123 1.125 0.225 0.621 0.443 1.166 0.737 1.5-1.146 0.225-1.93 0.866-2.441 1.125-1.091 0.511-1.091 1.084-1.091 1.084v0.211c0 0.375 0.402 0.75 0.798 0.75h7.126c0.498 0 0.804-0.409 0.804-0.784v-0.178c0 0.001-0.013-0.572-1.091-1.083zM19.283 29.99c-0.532-0.266-1.31-0.914-2.469-1.125 0.286-0.341 0.518-0.88 0.757-1.5 0.116-0.375 0.096-0.682 0.096-1.125 0-0.327 0.068-0.846-0.021-1.146-0.252-0.975-0.893-1.241-1.65-1.241-0.764 0-1.405 0.266-1.657 1.241-0.075 0.3-0.021 0.825-0.021 1.146 0 0.443-0.020 0.75 0.123 1.125 0.225 0.621 0.443 1.166 0.737 1.5-1.146 0.225-1.93 0.866-2.441 1.125-1.091 0.511-1.091 1.084-1.091 1.084v0.211c0 0.375 0.402 0.75 0.798 0.75h7.126c0.498 0 0.804-0.409 0.804-0.784v-0.178c-0.001 0.001-0.014-0.572-1.091-1.083zM30.135 29.99c-0.532-0.266-1.31-0.914-2.469-1.125 0.286-0.341 0.518-0.88 0.757-1.5 0.116-0.375 0.096-0.682 0.096-1.125 0-0.327 0.068-0.846-0.021-1.146-0.252-0.975-0.893-1.241-1.65-1.241-0.764 0-1.405 0.266-1.657 1.241-0.075 0.3-0.021 0.825-0.021 1.146 0 0.443-0.020 0.75 0.123 1.125 0.225 0.621 0.443 1.166 0.737 1.5-1.146 0.225-1.93 0.866-2.441 1.125-1.091 0.511-1.091 1.084-1.091 1.084v0.211c0 0.375 0.402 0.75 0.798 0.75h7.126c0.498 0 0.804-0.409 0.804-0.784v-0.178c-0.001 0.001-0.014-0.572-1.091-1.083zM8.43 29.99c-0.532-0.266-1.31-0.914-2.469-1.125 0.286-0.341 0.518-0.88 0.757-1.5 0.116-0.375 0.096-0.682 0.096-1.125 0-0.327 0.068-0.846-0.021-1.146-0.252-0.975-0.893-1.241-1.65-1.241-0.764 0-1.405 0.266-1.657 1.241-0.075 0.3-0.021 0.825-0.021 1.146 0 0.443-0.020 0.75 0.123 1.125 0.225 0.621 0.443 1.166 0.737 1.5-1.146 0.225-1.93 0.866-2.441 1.125-1.091 0.511-1.091 1.084-1.091 1.084v0.211c0 0.375 0.402 0.75 0.798 0.75h7.126c0.498 0 0.804-0.409 0.804-0.784v-0.178c0 0.001-0.013-0.572-1.091-1.083z" fill="#000000"></path>
</svg>
