<?xml version="1.0" encoding="utf-8"?>
<!-- Generated by IcoMoon.io -->
<!DOCTYPE svg PUBLIC "-//W3C//DTD SVG 1.1//EN" "http://www.w3.org/Graphics/SVG/1.1/DTD/svg11.dtd">
<svg version="1.1" xmlns="http://www.w3.org/2000/svg" xmlns:xlink="http://www.w3.org/1999/xlink" width="32" height="32" viewBox="0 0 32 32">
<g id="icomoon-ignore">
	<line stroke-width="1" x1="" y1="" x2="" y2="" stroke="#449FDB" opacity=""></line>
</g>
	<path d="M27.94 20.471v0.349c0 0.699-0.593 1.467-1.554 1.467h-2.358c-0.402-0.332-0.942-0.698-1.676-1.048-1.362-0.681-3.353-2.34-6.321-2.881 0.402-0.471 0.75-1.1 1.082-1.816 0.28-0.088 0.559-0.157 0.856-0.21-0.175-0.175-0.332-0.401-0.471-0.646l0.471-1.17c0.297-0.96 0.245-1.746 0.245-2.881 0-0.838 0.174-2.166-0.053-2.934-0.14-0.524-0.314-0.96-0.524-1.345 0.542-0.314 1.187-0.437 1.903-0.437 1.45 0 2.672 0.506 3.161 2.341 0.175 0.559 0.035 1.519 0.035 2.148 0 0.82 0.052 1.397-0.175 2.113-0.471 1.17-0.908 2.165-1.45 2.811 2.218 0.402 3.702 1.607 4.732 2.113 2.080 0.961 2.097 2.026 2.097 2.026zM19.558 21.239c-1.363-0.681-3.354-2.34-6.322-2.881 0.733-0.873 1.327-2.253 1.938-3.842 0.297-0.96 0.245-1.746 0.245-2.881 0-0.838 0.175-2.166-0.053-2.934-0.645-2.497-2.287-3.178-4.226-3.178-1.956 0-3.597 0.681-4.243 3.178-0.193 0.768-0.053 2.113-0.053 2.934 0 1.135-0.052 1.921 0.315 2.881 0.576 1.589 1.135 2.986 1.886 3.842-2.934 0.576-4.942 2.218-6.252 2.881-2.793 1.309-2.793 2.776-2.793 2.776v0.542c0 0.961 1.030 1.921 2.043 1.921h18.249c1.275 0 2.060-1.048 2.060-2.008v-0.455c0 0-0.035-1.467-2.794-2.776zM30.571 15.749c-0.702-0.345-1.714-1.167-3.227-1.441 0.369-0.441 0.667-1.119 0.988-1.917 0.155-0.488 0.119-0.881 0.119-1.441 0-0.429 0.095-1.084-0.024-1.464-0.333-1.25-1.167-1.596-2.155-1.596-0.488 0-0.928 0.084-1.298 0.298 0.143 0.262 0.262 0.56 0.357 0.917 0.155 0.524 0.036 1.429 0.036 2 0 0.774 0.035 1.31-0.167 1.964l-0.321 0.798c0.095 0.167 0.202 0.321 0.321 0.441-0.202 0.036-0.393 0.083-0.584 0.143-0.226 0.488-0.464 0.917-0.738 1.238 2.024 0.369 3.381 1.5 4.309 1.964 0.501 0.238 0.869 0.488 1.143 0.714h1.607c0.655 0 1.060-0.524 1.060-1v-0.237c0.003 0-0.009-0.726-1.426-1.381z" fill="#000000"></path>
</svg>
