<?xml version="1.0" encoding="utf-8"?>
<!-- Generated by IcoMoon.io -->
<!DOCTYPE svg PUBLIC "-//W3C//DTD SVG 1.1//EN" "http://www.w3.org/Graphics/SVG/1.1/DTD/svg11.dtd">
<svg version="1.1" xmlns="http://www.w3.org/2000/svg" xmlns:xlink="http://www.w3.org/1999/xlink" width="32" height="32" viewBox="0 0 32 32">
<path fill="#444444" d="M29.744 13.52c-1.043-1.261-2.33-2.131-3.744-2.554 1.114-0.672 1.853-1.894 1.853-3.299 0-2.141-1.712-3.853-3.853-3.853-1.584 0-3.168 1.158-3.68 2.762 1.030 1.098 1.597 2.528 1.597 4.051 0 0.096-0.003 0.189-0.006 0.285 0.029 0.019 0.058 0.038 0.090 0.054-0.032 0.010-0.061 0.019-0.093 0.029-0.048 0.794-0.256 1.568-0.605 2.275 0.742 0.525 1.427 1.158 2.035 1.894 1.61 1.946 2.557 4.445 2.707 7.104 1.002-0.013 1.811-0.829 1.811-1.834v-4.877c0.864 1.184 1.395 2.765 1.395 4.502 0 0.758 0.618 1.376 1.376 1.376s1.376-0.618 1.376-1.376c-0.003-2.458-0.803-4.784-2.259-6.541z"></path>
<path fill="#444444" d="M21.744 16.48c-1.043-1.261-2.33-2.131-3.744-2.554 0.634-0.381 1.142-0.941 1.466-1.61 0.224-0.461 0.358-0.976 0.381-1.52 0.003-0.058 0.003-0.112 0.003-0.17 0-0.134-0.006-0.266-0.019-0.394-0.067-0.666-0.301-1.28-0.659-1.798-0.288-0.419-0.656-0.774-1.085-1.050-0.602-0.387-1.318-0.611-2.090-0.611-1.584 0-3.168 1.158-3.68 2.762 1.030 1.098 1.597 2.528 1.597 4.051 0 0.096-0.003 0.189-0.006 0.285 0.029 0.019 0.058 0.038 0.090 0.054-0.032 0.010-0.061 0.019-0.093 0.029-0.048 0.794-0.256 1.568-0.605 2.275 0.346 0.243 0.675 0.509 0.992 0.8 0.304 0.275 0.592 0.573 0.867 0.89 0.061 0.067 0.118 0.138 0.176 0.205 0.253 0.307 0.49 0.627 0.707 0.957 0.483 0.73 0.886 1.52 1.2 2.349 0.128 0.336 0.24 0.678 0.339 1.027 0.093 0.333 0.173 0.669 0.24 1.011 0.112 0.573 0.186 1.162 0.221 1.754 0.906-0.013 1.651-0.678 1.789-1.546 0.016-0.093 0.022-0.192 0.022-0.288v-4.867c0.102 0.141 0.202 0.288 0.294 0.438 0.547 0.893 0.918 1.962 1.050 3.133 0.035 0.304 0.051 0.614 0.051 0.931 0 0.064 0.006 0.125 0.013 0.186 0.070 0.531 0.445 0.963 0.941 1.123 0.134 0.042 0.275 0.067 0.422 0.067s0.288-0.022 0.422-0.067c0.467-0.15 0.826-0.544 0.925-1.030 0.019-0.090 0.029-0.182 0.029-0.278 0-0.253-0.010-0.506-0.026-0.755-0.147-2.179-0.925-4.211-2.23-5.789z"></path>
<path fill="#444444" d="M15.59 23.002c-0.346-1.216-0.902-2.342-1.648-3.312-0.064-0.083-0.131-0.166-0.198-0.25-1.043-1.261-2.33-2.131-3.744-2.554 0.634-0.381 1.142-0.941 1.466-1.61 0.224-0.461 0.358-0.976 0.381-1.52 0.003-0.058 0.003-0.112 0.003-0.17 0-0.134-0.006-0.266-0.019-0.394-0.067-0.666-0.301-1.28-0.659-1.798-0.288-0.419-0.656-0.774-1.085-1.050-0.602-0.387-1.318-0.611-2.090-0.611-1.926 0-3.853 1.712-3.853 3.853 0 1.405 0.739 2.627 1.853 3.299-1.414 0.422-2.701 1.293-3.744 2.554-1.453 1.76-2.253 4.083-2.253 6.541 0 0.758 0.618 1.376 1.376 1.376s1.376-0.618 1.376-1.376c0-1.734 0.531-3.318 1.395-4.502v4.874c0 1.014 0.822 1.834 1.834 1.834h4.035c0.915 0 1.674-0.669 1.811-1.546 0.016-0.093 0.022-0.192 0.022-0.288v-4.87c0.102 0.141 0.202 0.288 0.294 0.438 0.547 0.893 0.918 1.962 1.050 3.133 0.035 0.304 0.051 0.614 0.051 0.931 0 0.064 0.006 0.125 0.013 0.186 0.070 0.531 0.445 0.963 0.941 1.123 0.134 0.042 0.275 0.067 0.422 0.067s0.288-0.022 0.422-0.067c0.467-0.15 0.826-0.544 0.925-1.030 0.019-0.090 0.029-0.182 0.029-0.278 0-0.253-0.010-0.506-0.026-0.755-0.048-0.765-0.179-1.514-0.381-2.227z"></path>
</svg>
