<?xml version="1.0" encoding="utf-8"?>
<!-- Generated by IcoMoon.io -->
<!DOCTYPE svg PUBLIC "-//W3C//DTD SVG 1.1//EN" "http://www.w3.org/Graphics/SVG/1.1/DTD/svg11.dtd">
<svg version="1.1" xmlns="http://www.w3.org/2000/svg" xmlns:xlink="http://www.w3.org/1999/xlink" width="32" height="32" viewBox="0 0 32 32">
<path fill="#444444" d="M15.533 4.067c-1.571 1.008-5.594 4.438-7.91 6.445h-6.8c-0.454 0-0.822 0.368-0.822 0.822v9.462c0 0.454 0.368 0.822 0.822 0.822h6.954c2.336 2.022 6.218 5.325 7.757 6.31 1.962 1.258 2.211-0.867 2.211-0.867v-22.128c0.003 0-0.25-2.125-2.211-0.867z"></path>
<path fill="#444444" d="M20.672 12.253c-0.595 0.090-0.963 0.493-0.822 0.896h-0.003c0.32 0.915 0.48 1.859 0.477 2.8 0.003 0.95-0.166 1.901-0.486 2.832-0.144 0.403 0.234 0.8 0.832 0.896 0.083 0.013 0.17 0.019 0.253 0.019 0.502 0 0.96-0.234 1.078-0.576 0.358-1.040 0.538-2.106 0.544-3.168-0.003-1.056-0.182-2.109-0.538-3.139-0.147-0.41-0.739-0.656-1.334-0.56z"></path>
<path fill="#444444" d="M27.174 5.533c-0.554 0.173-0.79 0.618-0.528 0.992h-0.006c2.093 2.989 3.136 6.205 3.136 9.43s-1.040 6.445-3.136 9.434c-0.262 0.374-0.026 0.819 0.534 0.995 0.154 0.048 0.31 0.070 0.467 0.070 0.419 0 0.819-0.16 1.008-0.429 2.23-3.19 3.35-6.63 3.35-10.070s-1.123-6.877-3.35-10.064c-0.262-0.378-0.925-0.534-1.475-0.358z"></path>
<path fill="#444444" d="M25.722 9.955c-0.205-0.39-0.835-0.595-1.411-0.461-0.576 0.131-0.883 0.557-0.682 0.947 0.912 1.766 1.363 3.632 1.363 5.501 0 1.878-0.464 3.76-1.379 5.542-0.202 0.387 0.106 0.816 0.688 0.947 0.118 0.026 0.24 0.038 0.362 0.038 0.461 0 0.896-0.192 1.056-0.502 0.989-1.942 1.494-3.984 1.494-6.029 0-2.029-0.493-4.058-1.491-5.984z"></path>
</svg>
