<?xml version="1.0" encoding="utf-8"?>
<!-- Generated by IcoMoon.io -->
<!DOCTYPE svg PUBLIC "-//W3C//DTD SVG 1.1//EN" "http://www.w3.org/Graphics/SVG/1.1/DTD/svg11.dtd">
<svg version="1.1" xmlns="http://www.w3.org/2000/svg" xmlns:xlink="http://www.w3.org/1999/xlink" width="32" height="32" viewBox="0 0 32 32">
<path fill="#444444" d="M20.211 1.232h-8.422c-6.512 0-11.789 5.277-11.789 11.789 0 5.075 3.206 9.398 7.702 11.059v5.386c0 0.531 0.323 1.011 0.816 1.21 0.157 0.064 0.323 0.093 0.486 0.093 0.349 0 0.691-0.141 0.944-0.403l5.325-5.558h4.941c6.509 0 11.789-5.277 11.789-11.789s-5.28-11.786-11.792-11.786zM11.789 17.184c-2.301 0-4.166-1.866-4.166-4.166s1.866-4.166 4.166-4.166 4.163 1.869 4.163 4.17c0 2.298-1.862 4.163-4.163 4.163zM25.587 13.146l-5.664 4.006c-0.102 0.070-0.24 0-0.24-0.125v-8.013c0-0.125 0.141-0.195 0.24-0.125l5.664 4.006c0.086 0.061 0.086 0.189 0 0.25z"></path>
</svg>
