<svg xmlns="http://www.w3.org/2000/svg" xmlns:xlink="http://www.w3.org/1999/xlink" width="32" height="32" viewBox="0 0 32 32">
  <defs>
    <path id="smartphone-secure-a" d="M16.8044376,7.87974261 L16.8044376,5.50379409 C16.8044376,2.87939382 18.9319343,0.751897046 21.5563346,0.751897046 C24.1807349,0.751897046 26.3082316,2.87939382 26.3082316,5.50379409 L26.3082316,7.87974261 L26.6841802,7.87974261 C27.7887497,7.87974261 28.6841802,8.77517311 28.6841802,9.87974261 L28.6841802,14.7594852 C28.6841802,17.520909 26.4456039,19.7594852 23.6841802,19.7594852 L19.428489,19.7594852 C16.6670653,19.7594852 14.428489,17.520909 14.428489,14.7594852 L14.428489,9.87974261 C14.428489,8.77517311 15.3239195,7.87974261 16.428489,7.87974261 L16.8044376,7.87974261 Z M12.8424949,-2.66453526e-15 C12.2093457,0.611435923 11.6326617,1.2809645 11.1210289,2 L11,2 C10.4477153,2 10,2.44771525 10,3 C10,3.20186414 10.0598128,3.38975825 10.1626825,3.54692647 C9.74724813,4.32440725 9.4017725,5.14490111 9.13466369,6 L6,6 L6,24 L18.9467551,24 C20.1558222,24.3333234 21.4292716,24.5113823 22.7443089,24.5113823 C23.1674312,24.5113823 23.586248,24.4929483 24,24.4568396 L24,30 C24,31.1045695 23.1045695,32 22,32 L6,32 C4.8954305,32 4,31.1045695 4,30 L4,2 C4,0.8954305 4.8954305,2.02906125e-16 6,0 L12.8424949,0 Z M14,30 C15.1045695,30 16,29.1045695 16,28 C16,26.8954305 15.1045695,26 14,26 C12.8954305,26 12,26.8954305 12,28 C12,29.1045695 12.8954305,30 14,30 Z M19.1803861,7.87974261 L23.9322831,7.87974261 L23.9322831,5.76778837 C23.9322831,4.30978822 22.8685347,3.12784557 21.5563346,3.12784557 C20.2441345,3.12784557 19.1803861,4.30978822 19.1803861,5.76778837 L19.1803861,7.87974261 Z M21.5563346,16.7895496 C23.1965848,16.7895496 24.5262703,15.4598641 24.5262703,13.8196139 C24.5262703,12.1793638 23.1965848,10.8496783 21.5563346,10.8496783 C19.9160844,10.8496783 18.5863989,12.1793638 18.5863989,13.8196139 C18.5863989,15.4598641 19.9160844,16.7895496 21.5563346,16.7895496 Z"/>
  </defs>
  <g fill="none" fill-rule="evenodd">
    <use fill="#2A3042" xlink:href="#smartphone-secure-a"/>
  </g>
</svg>
