<svg xmlns="http://www.w3.org/2000/svg" xmlns:xlink="http://www.w3.org/1999/xlink" width="32" height="32" viewBox="0 0 32 32">
  <defs>
    <path id="smartphone-a" d="M6,0 L22,0 C23.1045695,-2.02906125e-16 24,0.8954305 24,2 L24,30 C24,31.1045695 23.1045695,32 22,32 L6,32 C4.8954305,32 4,31.1045695 4,30 L4,2 C4,0.8954305 4.8954305,2.02906125e-16 6,0 Z M6,6 L6,24 L22,24 L22,6 L6,6 Z M11,2 C10.4477153,2 10,2.44771525 10,3 C10,3.55228475 10.4477153,4 11,4 L17,4 C17.5522847,4 18,3.55228475 18,3 C18,2.44771525 17.5522847,2 17,2 L11,2 Z M14,30 C15.1045695,30 16,29.1045695 16,28 C16,26.8954305 15.1045695,26 14,26 C12.8954305,26 12,26.8954305 12,28 C12,29.1045695 12.8954305,30 14,30 Z"/>
  </defs>
  <g fill="none" fill-rule="evenodd">
    <use fill="#2A3042" xlink:href="#smartphone-a"/>
  </g>
</svg>
