<?xml version="1.0" encoding="utf-8"?>
<!-- Generated by IcoMoon.io -->
<!DOCTYPE svg PUBLIC "-//W3C//DTD SVG 1.1//EN" "http://www.w3.org/Graphics/SVG/1.1/DTD/svg11.dtd">
<svg version="1.1" xmlns="http://www.w3.org/2000/svg" xmlns:xlink="http://www.w3.org/1999/xlink" width="32" height="32" viewBox="0 0 32 32">
<g id="icomoon-ignore">
	<line stroke-width="1" x1="" y1="" x2="" y2="" stroke="#449FDB" opacity=""></line>
</g>
	<path d="M25.326 12.953c0.219 0 0.406 0.179 0.406 0.406v10.156h-0.016c-0.13 0.812-1.349 2.031-2.827 2.031-1.568 0-2.844-0.999-2.844-2.234s1.275-2.234 2.844-2.234c0.439 0 1.219 0.073 1.219 0.211v-5.086h-5.688v7.312h-0.016c-0.13 0.812-1.349 2.031-2.827 2.031-1.568 0-2.844-0.999-2.844-2.234s1.275-2.234 2.844-2.234c0.439 0 1.219 0.073 1.219 0.211v-7.929c0-0.227 0.179-0.406 0.406-0.406h8.124zM6 23h-4v-21h21v4h2v-6h-25v25h6v-2zM30 9h-21v21h21v-21zM32 7v25h-25v-25h25z" fill="#000000"></path>
</svg>
