<?xml version="1.0" encoding="utf-8"?>
<!-- Generated by IcoMoon.io -->
<!DOCTYPE svg PUBLIC "-//W3C//DTD SVG 1.1//EN" "http://www.w3.org/Graphics/SVG/1.1/DTD/svg11.dtd">
<svg version="1.1" xmlns="http://www.w3.org/2000/svg" xmlns:xlink="http://www.w3.org/1999/xlink" width="32" height="32" viewBox="0 0 32 32">
<path fill="#444444" d="M16 32l-9.965-14.458c-1.123-1.824-1.683-3.93-1.683-5.894 0-6.454 5.19-11.648 11.648-11.648s11.648 5.194 11.648 11.648c0 2.106-0.56 4.070-1.542 5.754l-10.106 14.598zM16 2.806c-4.912 0-8.842 3.93-8.842 8.842 0 1.542 0.422 3.088 1.123 4.352l7.578 10.947 7.718-11.088c0.701-1.264 1.123-2.806 1.123-4.352 0-4.63-3.93-8.701-8.701-8.701zM16 16.141c-3.088 0-5.754-2.525-5.754-5.754 0-3.088 2.525-5.754 5.754-5.754 3.088 0 5.754 2.525 5.754 5.754-0.141 3.226-2.666 5.754-5.754 5.754zM16 7.578c-1.542 0-2.947 1.264-2.947 2.947 0 1.542 1.264 2.947 2.947 2.947 1.542 0 2.947-1.264 2.947-2.947-0.141-1.683-1.405-2.947-2.947-2.947z"></path>
</svg>
