<?xml version="1.0" encoding="utf-8"?>
<!-- Generated by IcoMoon.io -->
<!DOCTYPE svg PUBLIC "-//W3C//DTD SVG 1.1//EN" "http://www.w3.org/Graphics/SVG/1.1/DTD/svg11.dtd">
<svg version="1.1" xmlns="http://www.w3.org/2000/svg" xmlns:xlink="http://www.w3.org/1999/xlink" width="32" height="32" viewBox="0 0 32 32">
<path fill="#444444" d="M29.267 4.995h-7.024c0-2.81-2.186-4.995-4.995-4.995h-2.496c-2.81 0-4.995 2.186-4.995 4.995h-7.024c-0.938 0-1.562 0.624-1.562 1.562s0.624 1.562 1.562 1.562h0.938v22.323c0 0.938 0.624 1.562 1.562 1.562h21.542c0.938 0 1.562-0.624 1.562-1.562v-22.323h0.938c0.938 0 1.562-0.624 1.562-1.562s-0.63-1.562-1.568-1.562zM14.909 3.123h2.496c1.091 0 1.872 0.781 1.872 1.872h-6.243c0-1.091 0.781-1.872 1.875-1.872zM25.366 28.723h-18.419v-20.762h18.419v20.762z"></path>
<path fill="#444444" d="M11.318 9.99c-0.938 0-1.562 0.624-1.562 1.562v13.891c0 0.938 0.624 1.562 1.562 1.562s1.562-0.624 1.562-1.562v-13.891c-0.003-0.938-0.627-1.562-1.562-1.562z"></path>
<path fill="#444444" d="M20.682 9.99c-0.938 0-1.562 0.624-1.562 1.562v13.891c0 0.938 0.624 1.562 1.562 1.562s1.562-0.624 1.562-1.562v-13.891c0-0.938-0.624-1.562-1.562-1.562z"></path>
<path fill="#444444" d="M16 9.99c-0.938 0-1.562 0.624-1.562 1.562v13.891c0 0.938 0.624 1.562 1.562 1.562s1.562-0.624 1.562-1.562v-13.891c0-0.938-0.624-1.562-1.562-1.562z"></path>
</svg>
