<?xml version="1.0" encoding="UTF-8"?>
<svg width="18px" height="15px" viewBox="0 0 18 15" version="1.1" xmlns="http://www.w3.org/2000/svg" xmlns:xlink="http://www.w3.org/1999/xlink">
    <!-- Generator: Sketch 52.6 (67491) - http://www.bohemiancoding.com/sketch -->
    <title>Shape</title>
    <desc>Created with Sketch.</desc>
    <g id="Page-1" stroke="none" stroke-width="1" fill="none" fill-rule="evenodd">
        <g id="Option-1" transform="translate(-286.000000, -282.000000)" fill="#343B52" fill-rule="nonzero">
            <g id="timelapse-24px" transform="translate(311.829545, 289.500000) scale(-1, 1) translate(-311.829545, -289.500000) translate(286.829545, 280.000000)">
                <path d="M45.595377,6.85387034 C47.2525336,8.43966317 47.2525336,11.0148823 45.6024287,12.6006751 C43.9452721,14.1864679 41.2656146,14.1864679 39.6155097,12.6006751 L42.6054433,9.72727273 L42.6054433,5.66113727 C43.6914098,5.66113727 44.7703246,6.06097392 45.595377,6.85387034 Z M42.6842105,2.72727273 C46.6950876,2.72727273 49.9473683,5.86171717 49.9473683,9.72727273 C49.9473683,13.5928283 46.6950876,16.7272727 42.6842105,16.7272727 C40.6747368,16.7272727 38.8670175,15.9417172 37.5515789,14.6739394 L38.6975438,13.5694949 C39.7143859,14.5572727 41.1266666,15.1717172 42.6842105,15.1717172 C45.8073684,15.1717172 48.3333332,12.7372727 48.3333332,9.72727273 C48.3333332,6.71727273 45.8073684,4.28282828 42.6842105,4.28282828 C39.5610526,4.28282828 37.0350877,6.71727273 37.0350877,9.72727273 L39.4561403,9.72727273 L36.1957895,12.8617172 L36.1392982,12.7528283 L33,9.72727273 L35.4210526,9.72727273 C35.4210526,5.86171717 38.6733333,2.72727273 42.6842105,2.72727273 Z" id="Shape"></path>
            </g>
        </g>
    </g>
</svg>