<?xml version="1.0" encoding="utf-8"?>
<!-- Generated by IcoMoon.io -->
<!DOCTYPE svg PUBLIC "-//W3C//DTD SVG 1.1//EN" "http://www.w3.org/Graphics/SVG/1.1/DTD/svg11.dtd">
<svg version="1.1" xmlns="http://www.w3.org/2000/svg" xmlns:xlink="http://www.w3.org/1999/xlink" width="32" height="32" viewBox="0 0 32 32">
<path fill="#444444" d="M14.97 31.997c0.038 0 0.077 0.003 0.115 0.003z"></path>
<path fill="#444444" d="M24.198 24.378h-16.397c-1.002 0-1.818 0.819-1.818 1.818v1.357c0 1.002 0.819 1.818 1.818 1.818h16.4c0.998 0 1.818-0.819 1.818-1.818 0-0.307 0-0.781 0-1.357 0-0.998-0.819-1.818-1.821-1.818zM9.059 27.92c-0.576 0-1.046-0.467-1.046-1.046 0-0.576 0.467-1.046 1.046-1.046 0.576 0 1.046 0.467 1.046 1.046 0 0.576-0.467 1.046-1.046 1.046zM12.006 27.92c-0.579 0-1.046-0.467-1.046-1.046 0-0.576 0.467-1.046 1.046-1.046 0.576 0 1.046 0.467 1.046 1.046 0 0.576-0.467 1.046-1.046 1.046zM14.954 27.92c-0.579 0-1.046-0.467-1.046-1.046 0-0.576 0.467-1.046 1.046-1.046 0.576 0 1.046 0.467 1.046 1.046 0 0.576-0.467 1.046-1.046 1.046zM23.322 27.92c-0.576 0-1.046-0.467-1.046-1.046 0-0.576 0.467-1.046 1.046-1.046 0.576 0 1.046 0.467 1.046 1.046 0 0.576-0.47 1.046-1.046 1.046z"></path>
<path fill="#444444" d="M26.253 8.678c-0.317 0-0.634 0.026-0.947 0.077-0.515-1.533-1.965-2.614-3.642-2.614-0.317 0-0.627 0.038-0.928 0.112-0.349-0.918-0.938-1.741-1.706-2.368-0.995-0.81-2.25-1.258-3.533-1.258-2.25 0-4.253 1.344-5.13 3.354-0.448-0.166-0.922-0.25-1.405-0.25-1.85 0-3.437 1.248-3.904 2.986-1.293 0.154-2.486 0.736-3.411 1.677-1.062 1.085-1.648 2.515-1.648 4.032 0 3.168 2.579 5.747 5.747 5.747h0.909c-0.221 1.376-0.438 2.8-0.563 3.85 0.47-0.371 1.066-0.595 1.709-0.595h16.4c0.64 0 1.232 0.221 1.699 0.586-0.128-1.046-0.342-2.467-0.563-3.84h0.918c3.168 0 5.747-2.579 5.747-5.747s-2.582-5.747-5.75-5.747zM22.758 20.445c-0.035 0.093-0.090 0.176-0.163 0.246s-0.166 0.128-0.272 0.166c-0.106 0.038-0.224 0.061-0.352 0.061h-2.163c-0.147 0-0.288-0.026-0.416-0.070s-0.246-0.112-0.349-0.192c-0.099-0.080-0.182-0.176-0.243-0.282-0.058-0.106-0.096-0.221-0.102-0.339l-0.090-0.256c-0.032-0.093-0.083-0.176-0.144-0.25-0.064-0.074-0.141-0.141-0.227-0.195s-0.182-0.096-0.285-0.125c-0.102-0.029-0.211-0.045-0.323-0.045h-3.267c-0.112 0-0.221 0.016-0.323 0.045s-0.198 0.070-0.285 0.125c-0.086 0.054-0.163 0.118-0.227 0.195-0.064 0.074-0.112 0.16-0.144 0.25l-0.090 0.256c-0.006 0.122-0.042 0.237-0.102 0.339-0.058 0.106-0.141 0.202-0.243 0.282-0.099 0.080-0.218 0.147-0.349 0.192s-0.272 0.070-0.416 0.070h-2.166c-0.128 0-0.246-0.022-0.352-0.061s-0.198-0.096-0.272-0.166c-0.074-0.070-0.128-0.154-0.163-0.246-0.032-0.093-0.045-0.192-0.032-0.298l0.019-0.131c0.058-0.413 0.211-0.797 0.438-1.146 0.224-0.342 0.518-0.646 0.864-0.899 0.342-0.25 0.733-0.451 1.155-0.589 0.419-0.138 0.874-0.211 1.341-0.211h5.962c0.467 0 0.922 0.077 1.341 0.211 0.422 0.138 0.816 0.339 1.155 0.589 0.346 0.253 0.64 0.557 0.864 0.899 0.227 0.346 0.381 0.733 0.438 1.146l0.019 0.131c0.013 0.106 0 0.205-0.035 0.298zM26.253 18.749h-1.149c-0.237-1.43-0.445-2.621-0.509-3.002-0.179-1.043-0.701-1.558-1.558-1.558h-14.080c-0.858 0-1.379 0.515-1.558 1.558-0.064 0.381-0.272 1.571-0.509 3.002h-1.139c-2.384 0-4.323-1.939-4.323-4.323 0-1.142 0.442-2.218 1.242-3.030s1.866-1.27 3.005-1.293c0.355-0.006 0.653-0.275 0.694-0.627 0.154-1.322 1.274-2.317 2.605-2.317 0.506 0 0.998 0.144 1.424 0.419 0.192 0.125 0.432 0.147 0.643 0.067 0.211-0.083 0.371-0.262 0.432-0.483 0.483-1.83 2.144-3.107 4.038-3.107 0.957 0 1.894 0.333 2.634 0.938 0.733 0.595 1.245 1.427 1.443 2.342 0.048 0.214 0.189 0.394 0.387 0.49s0.429 0.093 0.624-0.003c0.336-0.166 0.698-0.253 1.075-0.253 1.226 0 2.256 0.915 2.403 2.131 0.026 0.208 0.141 0.397 0.317 0.512s0.397 0.147 0.595 0.083c0.41-0.125 0.838-0.189 1.27-0.189 2.384 0 4.323 1.939 4.323 4.323-0.003 2.381-1.946 4.32-4.33 4.32z"></path>
</svg>
