<?xml version="1.0" encoding="utf-8"?>
<!-- Generated by IcoMoon.io -->
<!DOCTYPE svg PUBLIC "-//W3C//DTD SVG 1.1//EN" "http://www.w3.org/Graphics/SVG/1.1/DTD/svg11.dtd">
<svg version="1.1" xmlns="http://www.w3.org/2000/svg" xmlns:xlink="http://www.w3.org/1999/xlink" width="32" height="32" viewBox="0 0 32 32">
<path fill="#444444" d="M25.962 16.829c-1.808-2.186-4.042-3.696-6.49-4.429 1.93-1.168 3.21-3.283 3.21-5.722 0-3.709-2.97-6.678-6.682-6.678-3.341 0-6.682 2.97-6.682 6.682 0 2.438 1.28 4.554 3.21 5.722-2.451 0.733-4.685 2.243-6.49 4.429-2.522 3.050-3.91 7.078-3.91 11.344 0 1.318 1.069 2.387 2.387 2.387s2.387-1.069 2.387-2.387c0-3.011 0.918-5.754 2.419-7.805v8.448c0 1.757 1.424 3.181 3.181 3.181h6.998c1.757 0 3.181-1.424 3.181-3.181v-8.448c1.501 2.054 2.419 4.797 2.419 7.805 0 1.318 1.069 2.387 2.387 2.387s2.387-1.069 2.387-2.387c-0.003-4.266-1.392-8.294-3.914-11.347z"></path>
</svg>
