<?xml version="1.0" encoding="utf-8"?>
<!-- Generated by IcoMoon.io -->
<!DOCTYPE svg PUBLIC "-//W3C//DTD SVG 1.1//EN" "http://www.w3.org/Graphics/SVG/1.1/DTD/svg11.dtd">
<svg version="1.1" xmlns="http://www.w3.org/2000/svg" xmlns:xlink="http://www.w3.org/1999/xlink" width="32" height="32" viewBox="0 0 32 32">
<path fill="#444444" d="M22.794 20.707c0.035 0.854-0.128 1.123-0.851 1.405-1.322 0.509-2.656 0.928-4.106 0.739-1.248-0.163-2.157-0.781-2.582-1.981-0.282-0.803-0.477-1.635-0.736-2.544-0.138 0.198-0.237 0.346-0.339 0.49-0.672 0.954-1.312 1.933-2.035 2.842-0.32 0.4-0.778 0.736-1.238 0.97-0.88 0.442-1.891 0.256-2.483-0.355-0.57-0.589-0.694-1.642-0.298-2.509 0.413-0.896 1.379-1.469 2.445-1.366 0.608 0.058 1.203 0.256 1.811 0.342 0.195 0.029 0.474-0.029 0.605-0.157 0.378-0.371 0.723-0.781 1.030-1.213 0.118-0.166 0.186-0.454 0.134-0.646-0.339-1.258-0.698-2.509-1.082-3.75-0.522-1.67-1.411-2.138-3.104-1.664-0.214 0.061-0.422 0.128-0.64 0.195-0.013-0.909 0.118-1.12 0.938-1.443 1.187-0.467 2.406-0.838 3.699-0.749 1.702 0.118 2.65 0.931 3.107 2.579 0.16 0.576 0.304 1.158 0.483 1.834 0.134-0.173 0.237-0.291 0.326-0.419 0.55-0.81 1.040-1.667 1.661-2.416 0.48-0.579 1.062-1.139 1.712-1.507 0.947-0.531 2.032-0.234 2.595 0.525 0.528 0.71 0.477 2.003-0.118 2.752-0.762 0.957-1.795 1.043-2.896 0.87-0.336-0.054-0.675-0.141-0.989-0.269-0.346-0.141-0.576-0.054-0.794 0.224-0.339 0.432-0.71 0.838-1.034 1.28-0.093 0.128-0.134 0.362-0.090 0.518 0.394 1.421 0.774 2.845 1.232 4.243 0.432 1.328 1.302 1.76 2.701 1.44 0.31-0.074 0.618-0.173 0.934-0.259z"></path>
<path fill="#444444" d="M26.358 25.12c3.402-6.013 3.581-12.058 0.627-18.237 0.758 0 1.475-0.010 2.189 0.010 0.122 0.003 0.278 0.118 0.349 0.227 2.086 3.194 2.797 6.685 2.349 10.461-0.323 2.726-1.558 5.053-2.989 7.312-0.064 0.099-0.198 0.218-0.304 0.218-0.698 0.019-1.395 0.010-2.221 0.010z"></path>
<path fill="#444444" d="M5.027 6.88c-2.944 6.202-2.771 12.23 0.63 18.237-0.829 0-1.539 0.006-2.246-0.010-0.090-0.003-0.211-0.109-0.266-0.198-0.912-1.53-1.92-3.014-2.426-4.749-1.334-4.592-0.851-8.95 1.754-13.014 0.077-0.122 0.256-0.25 0.39-0.253 0.701-0.026 1.402-0.013 2.163-0.013z"></path>
</svg>
