<?xml version="1.0" encoding="utf-8"?>
<!-- Generated by IcoMoon.io -->
<!DOCTYPE svg PUBLIC "-//W3C//DTD SVG 1.1//EN" "http://www.w3.org/Graphics/SVG/1.1/DTD/svg11.dtd">
<svg version="1.1" xmlns="http://www.w3.org/2000/svg" xmlns:xlink="http://www.w3.org/1999/xlink" width="32" height="32" viewBox="0 0 32 32">
<path fill="#444444" d="M21.251 22.394c0.006-0.134-0.048-0.266-0.147-0.358l-4.72-4.445c-0.093-0.090-0.221-0.134-0.352-0.125-0.128 0.010-0.25 0.070-0.33 0.173-0.243 0.307-1.091 1.181-1.766 1.181-0.186 0-0.339-0.067-0.49-0.208-1.187-1.136-3.696-3.699-3.712-3.712-0.032-0.038-0.784-0.931 0.602-2.723 0.131-0.173 0.128-0.413-0.010-0.579l-3.734-4.509c-0.147-0.176-0.397-0.221-0.595-0.102-0.099 0.061-2.432 1.466-2.864 4.038-0.291 1.738 0.355 3.552 1.923 5.392 0.010 0.010 0.016 0.019 0.026 0.029l5.997 5.997c0.083 0.090 2.048 2.23 5.082 2.23 0.262 0 0.525-0.022 0.787-0.054 0.099 0.502 0.128 1.638-1.123 2.89-0.541 0.541-1.178 0.64-1.622 0.627-0.822-0.022-1.706-0.445-2.294-1.104-0.006-0.006-0.013-0.016-0.022-0.022l-6.768-6.95c-0.022-0.022-0.045-0.042-0.067-0.061-0.717-0.579-2.48-1.293-4.019 0.154-1.514 1.421-1.037 3.254-0.576 4.022 0.032 0.054 0.070 0.106 0.115 0.15l2.752 2.752c0.304 0.301 0.794 0.301 1.094 0 0.304-0.301 0.304-0.79 0-1.094l-2.675-2.675c-0.134-0.266-0.515-1.219 0.346-2.029 0.858-0.806 1.731-0.269 1.958-0.102l6.72 6.896c0.88 0.973 2.147 1.574 3.395 1.606 0.038 0 0.077 0.003 0.115 0.003 1.021 0 1.933-0.374 2.643-1.082 1.773-1.773 1.712-3.504 1.533-4.349 0.886-0.32 1.766-0.822 2.627-1.514 0.106-0.083 0.17-0.208 0.173-0.342z"></path>
<path fill="#444444" d="M26.227 2.317h-5.146c-3.184 0-5.773 2.803-5.773 6.25 0 3.149 2.115 5.738 4.922 6.179v2.864c0 0.282 0.17 0.534 0.432 0.64 0.083 0.032 0.17 0.051 0.256 0.051 0.186 0 0.365-0.074 0.499-0.211l3.133-3.274h1.674c3.184 0 5.773-2.803 5.773-6.25 0.003-3.446-2.586-6.25-5.77-6.25zM18.714 9.754c-0.611 0-1.104-0.493-1.104-1.104s0.493-1.104 1.104-1.104 1.104 0.493 1.104 1.104c0 0.611-0.493 1.104-1.104 1.104zM22.006 9.754c-0.611 0-1.104-0.493-1.104-1.104s0.493-1.104 1.104-1.104 1.104 0.493 1.104 1.104c0 0.611-0.493 1.104-1.104 1.104zM25.299 9.754c-0.611 0-1.104-0.493-1.104-1.104s0.493-1.104 1.104-1.104 1.104 0.493 1.104 1.104c0 0.611-0.493 1.104-1.104 1.104zM28.592 9.754c-0.611 0-1.104-0.493-1.104-1.104s0.493-1.104 1.104-1.104 1.104 0.493 1.104 1.104c0 0.611-0.496 1.104-1.104 1.104z"></path>
</svg>
