<?xml version="1.0" encoding="utf-8"?>
<!-- Generated by IcoMoon.io -->
<!DOCTYPE svg PUBLIC "-//W3C//DTD SVG 1.1//EN" "http://www.w3.org/Graphics/SVG/1.1/DTD/svg11.dtd">
<svg version="1.1" xmlns="http://www.w3.org/2000/svg" xmlns:xlink="http://www.w3.org/1999/xlink" width="32" height="32" viewBox="0 0 32 32">
<path fill="#444444" d="M22.285 22.541h-1.27c-1.638 0-3.091-0.518-4.314-1.539-0.95-0.794-1.427-1.622-1.456-1.67-0.118-0.221-0.87-1.558-2.374-2.874-0.182-0.16-0.371-0.314-0.56-0.461 0.192-0.147 0.378-0.301 0.56-0.461 1.552-1.357 2.304-2.739 2.384-2.89 0.003-0.006 0.435-0.774 1.325-1.549 1.248-1.091 2.739-1.642 4.435-1.642h1.27v3.274l9.715-5.606-9.715-5.613v3.274h-1.27c-1.565 0-3.059 0.294-4.445 0.877-1.107 0.464-2.141 1.11-3.066 1.92-1.504 1.315-2.256 2.65-2.374 2.874-0.026 0.048-0.502 0.874-1.456 1.67-1.226 1.021-2.675 1.539-4.314 1.539 0 0 0 0 0 0h-5.36v4.672h5.36c0 0 0 0 0 0 1.638 0 3.091 0.518 4.314 1.539 0.95 0.794 1.427 1.622 1.456 1.67 0.118 0.221 0.87 1.558 2.374 2.874 0.925 0.81 1.958 1.456 3.066 1.92 1.382 0.582 2.88 0.877 4.445 0.877h1.27v3.274l9.715-5.613-9.715-5.61v3.274zM11.126 10.458c-0.003 0.006-0.006 0.013-0.010 0.016 0 0 0.003-0.006 0.010-0.016zM11.117 21.526v0c0.003 0.003 0.006 0.010 0.010 0.016-0.006-0.010-0.010-0.016-0.010-0.016zM15.245 19.334c0.006 0.010 0.010 0.016 0.010 0.016-0.003-0.003-0.006-0.010-0.010-0.016z"></path>
</svg>
