<?xml version="1.0" encoding="utf-8"?>
<!-- Generated by IcoMoon.io -->
<!DOCTYPE svg PUBLIC "-//W3C//DTD SVG 1.1//EN" "http://www.w3.org/Graphics/SVG/1.1/DTD/svg11.dtd">
<svg version="1.1" xmlns="http://www.w3.org/2000/svg" xmlns:xlink="http://www.w3.org/1999/xlink" width="32" height="32" viewBox="0 0 32 32">
<g id="icomoon-ignore">
	<line stroke-width="1" x1="" y1="" x2="" y2="" stroke="#449FDB" opacity=""></line>
</g>
	<path d="M24.488 32l-16.018-0.008c-3.306-0.171-5.942-2.914-5.942-6.262 0-3.457 2.813-6.27 6.27-6.27s6.27 2.813 6.27 6.27c0 1.576-0.585 3.018-1.548 4.121h5.859c-0.964-1.103-1.548-2.545-1.548-4.121 0-3.457 2.813-6.27 6.27-6.27s6.27 2.813 6.27 6.27c0 3.328-2.605 6.058-5.882 6.258v0.012zM24.101 29.851c2.272 0 4.12-1.848 4.12-4.121s-1.849-4.121-4.12-4.121c-2.272 0-4.121 1.848-4.121 4.121s1.848 4.121 4.121 4.121zM8.798 29.851c2.272 0 4.12-1.848 4.12-4.121s-1.849-4.121-4.12-4.121c-2.272 0-4.121 1.848-4.121 4.121s1.848 4.121 4.121 4.121zM11.225 8.963l0.004-3.481-1.725-0.007c0 0 2.648-1.628 6.959-1.621 3.534 0.014 5.915 0.961 6.668 1.677l-1.448-0.006-0.025 3.481 8.709 0.036 0.004-3.481h-0.064c-0.69-2.962-6.609-5.531-13.827-5.561-7.687-0.032-13.924 1.975-13.939 5.446l-0.015 3.47 8.699 0.047zM11.228 14.863l5.208 5.208 5.233-5.233h-3.466l-0.009-5.199h-3.518l-0.043 5.233-3.405-0.009z" fill="#000000"></path>
</svg>
