<?xml version="1.0" encoding="utf-8"?>
<!-- Generated by IcoMoon.io -->
<!DOCTYPE svg PUBLIC "-//W3C//DTD SVG 1.1//EN" "http://www.w3.org/Graphics/SVG/1.1/DTD/svg11.dtd">
<svg version="1.1" xmlns="http://www.w3.org/2000/svg" xmlns:xlink="http://www.w3.org/1999/xlink" width="32" height="32" viewBox="0 0 32 32">
<path fill="#444444" d="M22.803 10.445h-0.451c-1.43 0.115-2.557 1.312-2.557 2.774 0 1.536 1.245 2.781 2.784 2.781 1.536 0 2.784-1.245 2.784-2.781-0.003-1.462-1.13-2.659-2.56-2.774z"></path>
<path fill="#444444" d="M9.648 10.445h-0.451c-1.43 0.115-2.557 1.312-2.557 2.774 0 1.536 1.245 2.781 2.784 2.781s2.784-1.245 2.784-2.781c-0.003-1.462-1.13-2.659-2.56-2.774z"></path>
<path fill="#444444" d="M20.931 0.682h-9.862c-6.102 0-11.069 5.373-11.069 11.978 0 6.035 4.051 10.998 9.437 11.846v5.491c0 0.541 0.33 1.024 0.829 1.226 0.16 0.064 0.326 0.096 0.493 0.096 0.355 0 0.701-0.141 0.957-0.406l6.006-6.275h3.21c6.102 0 11.069-5.373 11.069-11.978s-4.966-11.978-11.069-11.978zM22.576 18.022c-2.653 0-4.806-2.15-4.806-4.806 0-1.034 0.326-1.99 0.88-2.774h-5.302c0.554 0.784 0.88 1.741 0.88 2.774 0 2.656-2.15 4.806-4.806 4.806s-4.803-2.15-4.803-4.806c0-2.541 1.974-4.624 4.47-4.794v-0.013h14.227v0.058c2.304 0.355 4.064 2.346 4.064 4.749 0.003 2.656-2.147 4.806-4.803 4.806z"></path>
</svg>
