<?xml version="1.0" encoding="utf-8"?>
<!-- Generated by IcoMoon.io -->
<!DOCTYPE svg PUBLIC "-//W3C//DTD SVG 1.1//EN" "http://www.w3.org/Graphics/SVG/1.1/DTD/svg11.dtd">
<svg version="1.1" xmlns="http://www.w3.org/2000/svg" xmlns:xlink="http://www.w3.org/1999/xlink" width="32" height="32" viewBox="0 0 32 32">
<g id="icomoon-ignore">
	<line stroke-width="1" x1="" y1="" x2="" y2="" stroke="#449FDB" opacity=""></line>
</g>
	<path d="M29.843 23.151l-0.738-0.74c0.274-0.114 0.518-0.282 0.734-0.508 1.118-1.171 1.247-3.535 1.22-4.104-0.127-3.665-4.63-3.802-4.822-3.806l-1.436-0.030 0.527-1.336c0.007-0.018 0.825-2.2-0.159-4.198-0.688-1.397-2.113-2.425-4.235-3.055-0.583-0.174-1.149-0.262-1.684-0.262-3.558 0-5.145 3.931-5.161 3.97l-0.926 2.356-0.933-2.344c-0.029-0.068-0.791-1.831-2.844-1.831-0.466 0-0.977 0.111-1.518 0.286-3.567 1.168-3.079 5.231-3.056 5.401l0.127 1.053-0.961 0.329c-0.294 0.050-2.917 0.929-2.917 3.664 0.015 4.252 2.406 5.004 2.882 6.004h12.552c0.283 0 0.582 0 0.891 1h-13.566c0 0-3.74-1.424-3.759-7.003 0-3.7 3.759-5.003 3.759-5.003s-0.66-4.999 3.74-6.44c0.68-0.22 1.287-0.313 1.826-0.313 2.791 0 3.773 2.473 3.773 2.473s1.811-4.602 6.090-4.603c0.607 0 1.262 0.092 1.97 0.303 7.539 2.239 5.040 8.579 5.040 8.579s5.639 0.119 5.799 4.759c0.016 0.348 0.012 4.106-2.215 5.399zM27.118 21.672l-1.95 1.963 0.969 0.969c0 0-2.405-0.563-4.834-2.98-1.986-1.986-2.8-3.853-2.824-4.678l0.814 0.813 1.962-1.95-4.894-4.894-1.95 1.962 0.036 0.036c-1.268 2.058 0.634 6.821 4.69 10.877 4.319 4.32 8.962 6.677 10.913 4.727l1.95-1.95-4.882-4.895z" fill="#000000"></path>
</svg>
