<?xml version="1.0" encoding="utf-8"?>
<!-- Generated by IcoMoon.io -->
<!DOCTYPE svg PUBLIC "-//W3C//DTD SVG 1.1//EN" "http://www.w3.org/Graphics/SVG/1.1/DTD/svg11.dtd">
<svg version="1.1" xmlns="http://www.w3.org/2000/svg" xmlns:xlink="http://www.w3.org/1999/xlink" width="32" height="32" viewBox="0 0 32 32">
<g id="icomoon-ignore">
	<line stroke-width="1" x1="" y1="" x2="" y2="" stroke="#449FDB" opacity=""></line>
</g>
	<path d="M30.292 20.768c-0.495 0.518-1.087 0.86-1.766 1.022l-0.293-1.127c0.472-0.109 0.875-0.34 1.218-0.7 1.336-1.397 1.273-4.174 1.272-4.202-0.133-3.832-4.781-3.99-4.978-3.995l-0.828-0.020 0.299-0.774c0.009-0.022 0.853-2.246-0.159-4.31-0.705-1.437-2.145-2.487-4.283-3.122-0.591-0.176-1.169-0.266-1.717-0.266-3.637 0-5.266 3.993-5.282 4.032l-0.541 1.362-0.541-1.361c-0.032-0.080-0.841-1.997-3.067-1.997-0.484 0-1.012 0.091-1.565 0.271-3.704 1.213-3.203 5.353-3.179 5.528l0.073 0.56-0.557 0.095c-0.126 0.022-3.105 0.558-3.105 3.543 0.016 4.752 2.999 5.439 3.125 5.465l6.157 0.022-0.3 1.206h-5.97c-0.15 0-4.156-0.905-4.176-6.653 0-2.834 2.107-4.203 3.567-4.621-0.026-1.379 0.272-5.031 4.004-6.253 0.672-0.217 1.319-0.327 1.926-0.327 1.836 0 2.955 0.963 3.561 1.746 0.814-1.399 2.668-3.782 5.871-3.782 0.661 0 1.349 0.106 2.049 0.314 2.468 0.733 4.151 1.99 5.002 3.739 0.852 1.748 0.638 3.528 0.41 4.496 2.134 0.273 5.245 1.552 5.367 5.056 0.001 0.025 0.126 3.253-1.594 5.053zM29 26.818v0.629c0 1.234-1.13 2.553-2.325 2.553h-14.3c-1.195 0-2.375-1.319-2.375-2.554v-0.629c0-1.234 1.18-1.817 2.375-1.817h14.3c1.195 0 2.325 0.583 2.325 1.818zM13.792 27.132c0-0.613-0.497-1.11-1.11-1.11s-1.11 0.497-1.11 1.11c0 0.613 0.497 1.11 1.11 1.11s1.11-0.497 1.11-1.11zM17.349 27.132c0-0.613-0.497-1.11-1.11-1.11s-1.11 0.497-1.11 1.11c0 0.613 0.497 1.11 1.11 1.11s1.11-0.497 1.11-1.11zM21.066 27.132c0-0.613-0.497-1.11-1.11-1.11s-1.11 0.497-1.11 1.11c0 0.613 0.497 1.11 1.11 1.11s1.11-0.497 1.11-1.11zM27.524 27.132c0-0.613-0.497-1.11-1.11-1.11s-1.11 0.497-1.11 1.11c0 0.613 0.497 1.11 1.11 1.11s1.11-0.497 1.11-1.11zM28.712 24.702c-1.224-0.611-1.942-0.768-2.231-0.768-0.1 0-0.149 0.065-0.149 0.065h-13.647c0 0-0.048-0.012-0.149-0.012-0.289 0-1.007 0.076-2.231 0.687l2.243-8.527c0 0 0.204-1.147 1.836-1.147s5.133 0 5.133 0 3.484 0 5.116 0c1.632 0 1.835 1.147 1.835 1.147l2.244 8.555zM24.868 21.098l-0.016-1.098h-0.025c-0.285-1-2.614-2.397-5.439-2.373-3.008 0.025-5.439 0.577-5.428 1.935l0.011 1.358 3.404-0.024-0.016-1.362-0.675 0.006c0 0 1.028-0.65 2.716-0.669 1.383-0.012 2.32 0.347 2.618 0.624l-0.567 0.005 0.007 1.362 3.41 0.236z" fill="#000000"></path>
</svg>
