<?xml version="1.0" encoding="utf-8"?>
<!-- Generated by IcoMoon.io -->
<!DOCTYPE svg PUBLIC "-//W3C//DTD SVG 1.1//EN" "http://www.w3.org/Graphics/SVG/1.1/DTD/svg11.dtd">

<svg version="1.1" xmlns="http://www.w3.org/2000/svg" xmlns:xlink="http://www.w3.org/1999/xlink" width="752" height="80" viewBox="0 0 752 80">
<defs>
<g id="icon-caller-id">
	<path class="path1" d="M31.54 13.447l-4.399-4.399c0.528-0.894 0.836-1.932 0.836-3.045 0.001-3.315-2.687-6.003-6.003-6.003-3.165 0-5.757 2.45-5.985 5.557 0.020-0.546 0.129-1.082 0.289-1.58h-16.259v28.023h19.986v-20.335c0.569 0.22 1.283 0.342 1.983 0.342 1.113 0 2.145-0.308 3.038-0.836l4.395 4.399c0.272 0.272 0.645 0.44 1.060 0.44 0.829 0 1.5-0.672 1.5-1.501 0-0.415-0.169-0.79-0.441-1.062zM7.203 28.302h-2.987v-3.058h2.987v3.058zM7.203 23.892h-2.987v-3.058h2.987v3.058zM7.203 19.482h-2.987v-3.058h2.987v3.058zM7.203 15.002h-2.987v-2.987h2.987v2.987zM7.203 10.592h-2.987v-2.987h2.987v2.987zM11.541 28.302h-3.058v-3.058h3.058v3.058zM11.541 23.892h-3.058v-3.058h3.058v3.058zM11.541 19.482h-3.058v-3.058h3.058v3.058zM11.541 15.002h-3.058v-2.987h3.058v2.987zM11.541 10.592h-3.058v-2.987h3.058v2.987zM15.809 28.302h-2.987v-3.058h2.987v3.058zM15.809 23.892h-2.987v-3.058h2.987v3.058zM15.809 19.482h-2.987v-3.058h2.987v3.058zM15.809 15.002h-2.987v-2.987h2.987v2.987zM15.809 10.592h-2.987v-2.987h2.987v2.987zM21.974 10.506c-2.487 0-4.503-2.016-4.503-4.503s2.016-4.503 4.503-4.503c2.487 0 4.503 2.016 4.503 4.503s-2.016 4.503-4.503 4.503z"></path>
</g>
<g id="icon-phonenumber">
	<path class="path1" d="M4.389 6.135v-6.154h6.154v6.154h-6.154zM19.158 6.135v-6.154h-6.154v6.154h6.154zM10.543 14.751v-6.154h-6.154v6.154h6.154zM19.158 14.751v-6.154h-6.154v6.154h6.154zM27.688 6.135v-6.154h-6.154v6.154h6.154zM27.688 14.751v-6.154h-6.154v6.154h6.154zM10.466 23.366v-6.154h-6.154v6.154h6.154zM19.081 23.366v-6.154h-6.154v6.154h6.154zM27.611 23.366v-6.154h-6.154v6.154h6.154zM19.086 31.981v-6.154h-6.154v6.154h6.154z"></path>
</g>
<g id="icon-voip-account">
	<path class="path1" d="M29.843 23.151l-0.738-0.74c0.274-0.114 0.518-0.282 0.734-0.508 1.118-1.171 1.247-3.535 1.22-4.104-0.127-3.665-4.63-3.802-4.822-3.806l-1.436-0.030 0.527-1.336c0.007-0.018 0.825-2.2-0.159-4.198-0.688-1.397-2.113-2.425-4.235-3.055-0.583-0.174-1.149-0.262-1.684-0.262-3.558 0-5.145 3.931-5.161 3.97l-0.926 2.356-0.933-2.344c-0.029-0.068-0.791-1.831-2.844-1.831-0.466 0-0.977 0.111-1.518 0.286-3.567 1.168-3.079 5.231-3.056 5.401l0.127 1.053-0.961 0.329c-0.294 0.050-2.917 0.929-2.917 3.664 0.015 4.252 2.406 5.004 2.882 6.004h12.552c0.283 0 0.582 0 0.891 1h-13.566c0 0-3.74-1.424-3.759-7.003 0-3.7 3.759-5.003 3.759-5.003s-0.66-4.999 3.74-6.44c0.68-0.22 1.287-0.313 1.826-0.313 2.791 0 3.773 2.473 3.773 2.473s1.811-4.602 6.090-4.603c0.607 0 1.262 0.092 1.97 0.303 7.539 2.239 5.040 8.579 5.040 8.579s5.639 0.119 5.799 4.759c0.016 0.348 0.012 4.106-2.215 5.399zM27.118 21.672l-1.95 1.963 0.969 0.969c0 0-2.405-0.563-4.834-2.98-1.986-1.986-2.8-3.853-2.824-4.678l0.814 0.813 1.962-1.95-4.894-4.894-1.95 1.962 0.036 0.036c-1.268 2.058 0.634 6.821 4.69 10.877 4.319 4.32 8.962 6.677 10.913 4.727l1.95-1.95-4.882-4.895z"></path>
</g>
<g id="icon-callgroup">
	<path class="path1" d="M32 20.221v0.329c0 0.66-0.56 1.385-1.467 1.385h-2.226c-0.379-0.313-0.89-0.659-1.583-0.989-1.286-0.643-3.165-2.209-5.967-2.72 0.379-0.445 0.708-1.038 1.021-1.715 0.035-0.011 0.285-0.105 0.808-0.198-0.165-0.165-0.313-0.379-0.445-0.61l0.445-1.104c0.28-0.906 0.231-1.649 0.231-2.72 0-0.791 0.164-2.045-0.050-2.77-0.132-0.494-0.296-0.906-0.494-1.269 0.511-0.296 1.121-0.412 1.797-0.412 1.369 0 2.523 0.478 2.984 2.21 0.165 0.527 0.033 1.434 0.033 2.028 0 0.774 0.049 1.319-0.165 1.995-0.445 1.104-0.857 2.044-1.369 2.654 2.094 0.379 3.495 1.517 4.468 1.995 1.963 0.905 1.979 1.911 1.979 1.911zM24.087 20.946c-1.286-0.643-3.166-2.209-5.968-2.72 0.692-0.824 1.252-2.127 1.83-3.627 0.28-0.906 0.231-1.649 0.231-2.72 0-0.791 0.165-2.045-0.050-2.77-0.609-2.357-2.159-3-3.99-3-1.847 0-3.396 0.643-4.006 3-0.182 0.725-0.050 1.995-0.050 2.77 0 1.071-0.049 1.814 0.297 2.72 0.544 1.501 1.071 2.819 1.781 3.627-2.77 0.544-4.666 2.094-5.902 2.72-2.638 1.236-2.638 2.621-2.638 2.621v0.511c0 0.907 0.972 1.814 1.929 1.814h17.229c1.204 0 1.945-0.989 1.945-1.896v-0.429c-0.001 0-0.034-1.385-2.638-2.621zM0 20.221v0.329c0 0.66 0.56 1.385 1.467 1.385h2.226c0.379-0.313 0.89-0.659 1.583-0.989 1.286-0.643 3.165-2.209 5.967-2.72-0.379-0.445-0.708-1.038-1.021-1.715-0.264-0.083-0.528-0.148-0.808-0.198 0.165-0.165 0.313-0.379 0.445-0.61l-0.445-1.104c-0.28-0.906-0.231-1.649-0.231-2.72 0-0.791-0.164-2.045 0.050-2.77 0.132-0.494 0.296-0.906 0.494-1.269-0.511-0.297-1.121-0.413-1.797-0.413-1.369 0-2.523 0.478-2.984 2.21-0.165 0.527-0.033 1.434-0.033 2.028 0 0.774-0.049 1.319 0.165 1.995 0.445 1.104 0.857 2.044 1.369 2.654-2.094 0.379-3.495 1.517-4.468 1.995-1.963 0.906-1.979 1.912-1.979 1.912z"></path>
</g>
<g id="icon-fixed-mobile">
	<path class="path1" d="M27.925 9.84h-13.637v15.341h13.637v-15.341zM24.516 6.431h-6.818v1.705h6.818v-1.705zM21.107 30.295c0.937 0 1.705-0.767 1.705-1.705s-0.767-1.705-1.705-1.705c-0.937 0-1.705 0.767-1.705 1.705s0.767 1.705 1.705 1.705zM26.22 32h-10.227c-1.875 0-3.409-1.534-3.409-3.409v-20.455c0-1.875 1.534-3.409 3.409-3.409h10.227c1.875 0 3.409 1.534 3.409 3.409v20.455c0.001 1.875-1.533 3.409-3.409 3.409z"></path>
	<path class="path2" d="M17.445 14.427l-2.617 2.154 1.063 1.3c0 0-2.863-0.98-5.528-4.223-2.179-2.664-2.943-5.039-2.871-6.048l0.893 1.091 2.631-2.137-5.368-6.564-2.617 2.154 0.040 0.048c-1.798 2.354-0.062 8.391 4.387 13.831 4.737 5.794 10.107 9.235 12.724 7.096l2.616-2.139-5.353-6.563z"></path>
</g>
<g id="icon-voicemail">
	<path class="path1" d="M24.488 32l-16.018-0.008c-3.306-0.171-5.942-2.914-5.942-6.262 0-3.457 2.813-6.27 6.27-6.27s6.27 2.813 6.27 6.27c0 1.576-0.585 3.018-1.548 4.121h5.859c-0.964-1.103-1.548-2.545-1.548-4.121 0-3.457 2.813-6.27 6.27-6.27s6.27 2.813 6.27 6.27c0 3.328-2.605 6.058-5.882 6.258v0.012zM24.101 29.851c2.272 0 4.12-1.848 4.12-4.121s-1.849-4.121-4.12-4.121c-2.272 0-4.121 1.848-4.121 4.121s1.848 4.121 4.121 4.121zM8.798 29.851c2.272 0 4.12-1.848 4.12-4.121s-1.849-4.121-4.12-4.121c-2.272 0-4.121 1.848-4.121 4.121s1.848 4.121 4.121 4.121zM11.225 8.963l0.004-3.481-1.725-0.007c0 0 2.648-1.628 6.959-1.621 3.534 0.014 5.915 0.961 6.668 1.677l-1.448-0.006-0.025 3.481 8.709 0.036 0.004-3.481h-0.064c-0.69-2.962-6.609-5.531-13.827-5.561-7.687-0.032-13.924 1.975-13.939 5.446l-0.015 3.47 8.699 0.047zM11.228 14.863l5.208 5.208 5.233-5.233h-3.466l-0.009-5.199h-3.518l-0.043 5.233-3.405-0.009z"></path>
</g>
<g id="icon-sounds">
	<path class="path1" d="M25.326 12.953c0.219 0 0.406 0.179 0.406 0.406v10.156h-0.016c-0.13 0.812-1.349 2.031-2.827 2.031-1.568 0-2.844-0.999-2.844-2.234s1.275-2.234 2.844-2.234c0.439 0 1.219 0.073 1.219 0.211v-5.086h-5.688v7.312h-0.016c-0.13 0.812-1.349 2.031-2.827 2.031-1.568 0-2.844-0.999-2.844-2.234s1.275-2.234 2.844-2.234c0.439 0 1.219 0.073 1.219 0.211v-7.929c0-0.227 0.179-0.406 0.406-0.406h8.124zM6 23h-4v-21h21v4h2v-6h-25v25h6v-2zM30 9h-21v21h21v-21zM32 7v25h-25v-25h25z"></path>
</g>
<g id="icon-opening-hours">
	<path class="path1" d="M16 8h-2v10h8v-2h-6v-8zM16 28c-6.62 0-12-5.38-12-12s5.38-12 12-12c6.62 0 12 5.38 12 12s-5.38 12-12 12zM16 0c-8.84 0-16 7.16-16 16s7.16 16 16 16c8.84 0 16-7.16 16-16s-7.16-16-16-16z"></path>
</g>
<g id="icon-messages">
	<path class="path1" d="M24.111 5.47v2.903c2.080 1.875 3.429 4.595 3.429 7.612s-1.348 5.737-3.429 7.612v2.903c3.429-2.24 5.714-6.103 5.714-10.515 0-4.413-2.285-8.275-5.714-10.515zM19.54 31.984v-32l-11.086 11.429h-7.2v9.051h7.2l11.086 11.52zM20.294 29.607h-0.115l0.115 0.091v-0.091z"></path>
</g>
<g id="icon-music-on-hold">
	<path class="path1" d="M26.663 28.325l-2.718 2.718c-2.719 2.718-9.188-0.567-15.207-6.587-5.653-5.652-8.303-12.288-6.536-15.157l-0.050-0.049 2.718-2.735 6.82 6.819-2.735 2.718-1.134-1.133c0.033 1.151 1.168 3.752 3.936 6.519 3.385 3.368 6.737 4.152 6.737 4.152l-1.351-1.351 2.718-2.735 6.802 6.821zM28.956 9.097v0l-0.273-0.519-3.905-7.437c-0.15-0.287-0.505-0.397-0.791-0.246l-6.1 5.189c0 0-0.457 0.39-0.246 0.791l3.692 7.032c-0.298 0.064-0.613 0.176-0.925 0.34-1.051 0.552-1.658 1.464-1.358 2.037s1.397 0.59 2.447 0.039c1.051-0.552 1.658-1.464 1.358-2.037l-2.895-5.513 5.207-4.37 2.266 4.315c-0.298 0.064-0.613 0.176-0.925 0.34-1.051 0.552-1.658 1.464-1.357 2.037s1.397 0.59 2.447 0.039c1.051-0.552 1.658-1.464 1.358-2.037v0zM11.287 0.007c0 0-1.116 0.735-0.905 1.136l3.692 7.032c-0.298 0.064-0.613 0.176-0.925 0.34-1.051 0.552-1.658 1.464-1.358 2.037 0.301 0.573 1.397 0.59 2.447 0.039 1.051-0.552 1.658-1.464 1.358-2.037l-4.309-8.547z"></path>
</g>
<g id="icon-fax-inbound">
	<path class="path1" d="M31.521 28.047c0 2.166-1.756 3.922-3.922 3.922h-18.303c-2.166 0-3.922-1.756-3.922-3.922v-8.498c0-2.166 1.756-3.922 3.922-3.922h18.303c2.166 0 3.922 1.756 3.922 3.922v8.498zM4.313 19.953c0-1.174-0.952-2.125-2.125-2.125v0c-1.174 0-2.125 0.952-2.125 2.125v8.147c0 1.174 0.952 2.125 2.125 2.125v0c1.174 0 2.125-0.952 2.125-2.125v-8.147zM9.296 22.872c0.767 0 1.389-0.622 1.389-1.389s-0.622-1.389-1.389-1.389-1.389 0.622-1.389 1.389 0.622 1.389 1.389 1.389zM9.296 27.202c0.767 0 1.389-0.622 1.389-1.389s-0.622-1.389-1.389-1.389-1.389 0.622-1.389 1.389 0.622 1.389 1.389 1.389zM14.851 23.591l3.58 3.595 3.613-3.597-2.387-0.005-0.015-3.599-2.407 0.013-0.015 3.581-2.369 0.012zM10.603 15.627v-15.658h7.844l7.844 7.857v7.801h-2.615v-6.507h-6.536v-6.537h-3.922v13.043h-2.615zM18.447 7.813h5.229l-5.229-5.217v5.217zM14.525 14.35h7.844v-1.307h-7.844v1.307zM22.369 10.428h-7.844v1.307h7.844v-1.307z"></path>
</g>
<g id="icon-fax-outbound">
	<path class="path1" d="M31.458 28.078c0 2.166-1.756 3.922-3.922 3.922h-18.303c-2.166 0-3.922-1.756-3.922-3.922v-8.498c0-2.166 1.756-3.922 3.922-3.922h18.303c2.166 0 3.922 1.756 3.922 3.922v8.498zM4.251 19.984c0-1.174-0.952-2.125-2.125-2.125v0c-1.174 0-2.126 0.952-2.126 2.125v8.147c0 1.174 0.952 2.125 2.125 2.125v0c1.174 0 2.125-0.952 2.125-2.125v-8.147zM9.233 22.903c0.767 0 1.389-0.622 1.389-1.389s-0.622-1.389-1.389-1.389-1.389 0.622-1.389 1.389 0.622 1.389 1.389 1.389zM9.233 27.234c0.767 0 1.389-0.622 1.389-1.389s-0.622-1.389-1.389-1.389-1.389 0.622-1.389 1.389c0 0.767 0.622 1.389 1.389 1.389zM21.965 23.54l-3.58-3.595-3.613 3.597 2.387 0.005-0.002 3.581 2.466-0.004v-3.604l2.342 0.020zM10.541 15.658v-15.658h7.844l7.844 7.857v7.801h-2.615v-6.507h-6.537v-6.536h-3.922v13.043h-2.614zM18.385 7.844h5.229l-5.229-5.217v5.217zM22.307 10.459h-7.844v1.307h7.844v-1.307zM14.463 14.381h7.844v-1.307h-7.844v1.307z"></path>
</g>
<g id="icon-ivr">
	<path class="path1" d="M16.807 15.316h-1.368v-11.789h1.368v11.789zM24 15.316h-16v1.368h16v-1.368zM24.574 3.527h-7.767v1.368h7.767v-1.368zM24.574 27.105h-9.109v1.368h9.109v-1.368zM32 0h-8v8h8v-8zM32 24h-8v8h8v-8zM32 12h-8v8h8v-8zM8 12h-8v8h8v-8zM16.807 16.684h-1.368v10.421h1.368v-10.421z"></path>
</g>
<g id="icon-queue">
	<path class="path1" d="M27.94 20.471v0.349c0 0.699-0.593 1.467-1.554 1.467h-2.358c-0.402-0.332-0.942-0.698-1.676-1.048-1.362-0.681-3.353-2.34-6.321-2.881 0.402-0.471 0.75-1.1 1.082-1.816 0.28-0.088 0.559-0.157 0.856-0.21-0.175-0.175-0.332-0.401-0.471-0.646l0.471-1.17c0.297-0.96 0.245-1.746 0.245-2.881 0-0.838 0.174-2.166-0.053-2.934-0.14-0.524-0.314-0.96-0.524-1.345 0.542-0.314 1.187-0.437 1.903-0.437 1.45 0 2.672 0.506 3.161 2.341 0.175 0.559 0.035 1.519 0.035 2.148 0 0.82 0.052 1.397-0.175 2.113-0.471 1.17-0.908 2.165-1.45 2.811 2.218 0.402 3.702 1.607 4.732 2.113 2.080 0.961 2.097 2.026 2.097 2.026zM19.558 21.239c-1.363-0.681-3.354-2.34-6.322-2.881 0.733-0.873 1.327-2.253 1.938-3.842 0.297-0.96 0.245-1.746 0.245-2.881 0-0.838 0.175-2.166-0.053-2.934-0.645-2.497-2.287-3.178-4.226-3.178-1.956 0-3.597 0.681-4.243 3.178-0.193 0.768-0.053 2.113-0.053 2.934 0 1.135-0.052 1.921 0.315 2.881 0.576 1.589 1.135 2.986 1.886 3.842-2.934 0.576-4.942 2.218-6.252 2.881-2.793 1.309-2.793 2.776-2.793 2.776v0.542c0 0.961 1.030 1.921 2.043 1.921h18.249c1.275 0 2.060-1.048 2.060-2.008v-0.455c0 0-0.035-1.467-2.794-2.776zM30.571 15.749c-0.702-0.345-1.714-1.167-3.227-1.441 0.369-0.441 0.667-1.119 0.988-1.917 0.155-0.488 0.119-0.881 0.119-1.441 0-0.429 0.095-1.084-0.024-1.464-0.333-1.25-1.167-1.596-2.155-1.596-0.488 0-0.928 0.084-1.298 0.298 0.143 0.262 0.262 0.56 0.357 0.917 0.155 0.524 0.036 1.429 0.036 2 0 0.774 0.035 1.31-0.167 1.964l-0.321 0.798c0.095 0.167 0.202 0.321 0.321 0.441-0.202 0.036-0.393 0.083-0.584 0.143-0.226 0.488-0.464 0.917-0.738 1.238 2.024 0.369 3.381 1.5 4.309 1.964 0.501 0.238 0.869 0.488 1.143 0.714h1.607c0.655 0 1.060-0.524 1.060-1v-0.237c0.003 0-0.009-0.726-1.426-1.381z"></path>
</g>
<g id="icon-conference-call">
	<path class="path1" d="M22.666 13.14v0.271c0 0.572-0.468 1.197-1.228 1.197h-10.879c-0.604 0-1.218-0.572-1.218-1.145v-0.323c0 0 0-0.874 1.666-1.655 0.781-0.395 1.978-1.374 3.727-1.718-0.448-0.51-0.781-1.343-1.124-2.29-0.219-0.572-0.188-1.041-0.188-1.718 0-0.489-0.083-1.291 0.032-1.749 0.385-1.488 1.363-1.894 2.529-1.894 1.156 0 2.134 0.406 2.519 1.894 0.136 0.458 0.032 1.249 0.032 1.749 0 0.677 0.031 1.145-0.146 1.718-0.364 0.948-0.718 1.77-1.155 2.29 1.769 0.323 2.956 1.311 3.769 1.718 1.643 0.781 1.664 1.655 1.664 1.655zM30.335 26.605c-0.812-0.406-1.999-1.395-3.769-1.718 0.437-0.521 0.791-1.343 1.155-2.29 0.177-0.572 0.146-1.041 0.146-1.718 0-0.5 0.104-1.291-0.032-1.749-0.385-1.488-1.363-1.894-2.519-1.894-1.166 0-2.145 0.406-2.529 1.894-0.115 0.458-0.032 1.26-0.032 1.749 0 0.677-0.031 1.145 0.188 1.718 0.344 0.948 0.677 1.78 1.124 2.29-1.749 0.344-2.946 1.322-3.727 1.718-1.666 0.781-1.666 1.655-1.666 1.655v0.323c0 0.573 0.614 1.145 1.218 1.145h10.879c0.76 0 1.228-0.625 1.228-1.197v-0.271c0.001 0-0.020-0.875-1.664-1.655zM11.66 26.605c-0.812-0.406-1.999-1.395-3.769-1.718 0.437-0.521 0.791-1.343 1.155-2.29 0.177-0.572 0.146-1.041 0.146-1.718 0-0.5 0.104-1.291-0.032-1.749-0.385-1.488-1.363-1.894-2.519-1.894-1.166 0-2.145 0.406-2.529 1.894-0.115 0.458-0.032 1.26-0.032 1.749 0 0.677-0.031 1.145 0.188 1.718 0.344 0.948 0.677 1.78 1.124 2.29-1.749 0.344-2.946 1.322-3.727 1.718-1.665 0.78-1.665 1.655-1.665 1.655v0.323c0 0.573 0.614 1.145 1.218 1.145h10.879c0.76 0 1.228-0.625 1.228-1.197v-0.271c0 0-0.021-0.875-1.665-1.655zM20.207 24.213l-3.207-3.289v-3.924h-2v3.924l-3.205 3.289 1.22 1.178 2.967-2.944 2.996 2.944 1.229-1.178z"></path>
</g>
<g id="icon-pickup-group">
	<path class="path1" d="M0.793 9.846v-3.793c0.001-3.794 6.808-6.017 15.211-6.016 7.89-0.001 14.372 2.781 15.14 6.016l0.070-0.001 0.012 3.805-9.52 0.001 0.012-3.805 1.582-0.002c-0.826-0.78-3.433-1.804-7.297-1.803-4.713 0.011-7.6 1.804-7.6 1.804h1.885l0.012 3.806-9.507-0.012zM19.283 18.81c-0.532-0.266-1.31-0.914-2.469-1.125 0.286-0.341 0.518-0.88 0.757-1.5 0.116-0.375 0.096-0.682 0.096-1.125 0-0.327 0.068-0.846-0.021-1.146-0.252-0.975-0.893-1.241-1.65-1.241-0.764 0-1.405 0.266-1.657 1.241-0.075 0.3-0.021 0.825-0.021 1.146 0 0.443-0.020 0.75 0.123 1.125 0.225 0.621 0.443 1.166 0.737 1.5-1.146 0.225-1.93 0.866-2.441 1.125-1.091 0.511-1.091 1.084-1.091 1.084v0.211c0 0.375 0.402 0.75 0.798 0.75h7.126c0.498 0 0.804-0.409 0.804-0.784v-0.178c-0.001 0.001-0.014-0.572-1.091-1.083zM30.135 18.81c-0.532-0.266-1.31-0.914-2.469-1.125 0.286-0.341 0.518-0.88 0.757-1.5 0.116-0.375 0.096-0.682 0.096-1.125 0-0.327 0.068-0.846-0.021-1.146-0.252-0.975-0.893-1.241-1.65-1.241-0.764 0-1.405 0.266-1.657 1.241-0.075 0.3-0.021 0.825-0.021 1.146 0 0.443-0.020 0.75 0.123 1.125 0.225 0.621 0.443 1.166 0.737 1.5-1.146 0.225-1.93 0.866-2.441 1.125-1.091 0.511-1.091 1.084-1.091 1.084v0.211c0 0.375 0.402 0.75 0.798 0.75h7.126c0.498 0 0.804-0.409 0.804-0.784v-0.178c-0.001 0.001-0.014-0.572-1.091-1.083zM8.43 18.81c-0.532-0.266-1.31-0.914-2.469-1.125 0.286-0.341 0.518-0.88 0.757-1.5 0.116-0.375 0.096-0.682 0.096-1.125 0-0.327 0.068-0.846-0.021-1.146-0.252-0.975-0.893-1.241-1.65-1.241-0.764 0-1.405 0.266-1.657 1.241-0.075 0.3-0.021 0.825-0.021 1.146 0 0.443-0.020 0.75 0.123 1.125 0.225 0.621 0.443 1.166 0.737 1.5-1.146 0.225-1.93 0.866-2.441 1.125-1.091 0.511-1.091 1.084-1.091 1.084v0.211c0 0.375 0.402 0.75 0.798 0.75h7.126c0.498 0 0.804-0.409 0.804-0.784v-0.178c0 0.001-0.013-0.572-1.091-1.083zM19.283 29.99c-0.532-0.266-1.31-0.914-2.469-1.125 0.286-0.341 0.518-0.88 0.757-1.5 0.116-0.375 0.096-0.682 0.096-1.125 0-0.327 0.068-0.846-0.021-1.146-0.252-0.975-0.893-1.241-1.65-1.241-0.764 0-1.405 0.266-1.657 1.241-0.075 0.3-0.021 0.825-0.021 1.146 0 0.443-0.020 0.75 0.123 1.125 0.225 0.621 0.443 1.166 0.737 1.5-1.146 0.225-1.93 0.866-2.441 1.125-1.091 0.511-1.091 1.084-1.091 1.084v0.211c0 0.375 0.402 0.75 0.798 0.75h7.126c0.498 0 0.804-0.409 0.804-0.784v-0.178c-0.001 0.001-0.014-0.572-1.091-1.083zM30.135 29.99c-0.532-0.266-1.31-0.914-2.469-1.125 0.286-0.341 0.518-0.88 0.757-1.5 0.116-0.375 0.096-0.682 0.096-1.125 0-0.327 0.068-0.846-0.021-1.146-0.252-0.975-0.893-1.241-1.65-1.241-0.764 0-1.405 0.266-1.657 1.241-0.075 0.3-0.021 0.825-0.021 1.146 0 0.443-0.020 0.75 0.123 1.125 0.225 0.621 0.443 1.166 0.737 1.5-1.146 0.225-1.93 0.866-2.441 1.125-1.091 0.511-1.091 1.084-1.091 1.084v0.211c0 0.375 0.402 0.75 0.798 0.75h7.126c0.498 0 0.804-0.409 0.804-0.784v-0.178c-0.001 0.001-0.014-0.572-1.091-1.083zM8.43 29.99c-0.532-0.266-1.31-0.914-2.469-1.125 0.286-0.341 0.518-0.88 0.757-1.5 0.116-0.375 0.096-0.682 0.096-1.125 0-0.327 0.068-0.846-0.021-1.146-0.252-0.975-0.893-1.241-1.65-1.241-0.764 0-1.405 0.266-1.657 1.241-0.075 0.3-0.021 0.825-0.021 1.146 0 0.443-0.020 0.75 0.123 1.125 0.225 0.621 0.443 1.166 0.737 1.5-1.146 0.225-1.93 0.866-2.441 1.125-1.091 0.511-1.091 1.084-1.091 1.084v0.211c0 0.375 0.402 0.75 0.798 0.75h7.126c0.498 0 0.804-0.409 0.804-0.784v-0.178c0 0.001-0.013-0.572-1.091-1.083z"></path>
</g>
<g id="icon-listen-in">
	<path class="path1" d="M28.073 14.354c-0.179 0.676-0.322 1.365-0.545 2.027-0.951 2.83-2.722 5.017-5.243 6.609-0.421 0.266-0.843 0.554-1.194 0.903-0.494 0.49-0.664 1.143-0.729 1.829-0.314 3.32-2.849 5.932-6.155 6.242-2.463 0.232-4.517-0.645-6.088-2.576-0.719-0.883-0.591-2.099 0.257-2.783 0.861-0.695 2.046-0.575 2.781 0.303 0.779 0.931 1.757 1.325 2.947 1.098 1.345-0.257 2.231-1.356 2.374-2.799 0.226-2.293 1.303-4.092 3.287-5.279 1.576-0.944 2.853-2.145 3.643-3.819 2.461-5.216-0.716-11.192-6.416-12.078-3.836-0.596-7.646 1.607-9.102 5.284-0.294 0.741-0.752 1.263-1.553 1.415-1.497 0.285-2.726-1.137-2.208-2.572 0.892-2.472 2.434-4.453 4.594-5.948 1.811-1.254 3.819-1.966 6.016-2.147 0.086-0.007 0.17-0.041 0.255-0.063 0.492 0 0.984 0 1.476 0 0.085 0.021 0.17 0.055 0.257 0.061 1.19 0.079 2.345 0.33 3.451 0.766 3.487 1.374 5.907 3.822 7.232 7.325 0.29 0.767 0.446 1.584 0.664 2.378-0.001 1.275-0.001 2.549-0.001 3.824zM15.469 6.389c-0.189 0.015-0.379 0.030-0.566 0.062-2.442 0.424-4.105 1.801-4.982 4.114-0.255 0.672 0.104 1.379 0.77 1.64 0.64 0.25 1.354-0.046 1.654-0.689 0.056-0.121 0.099-0.249 0.154-0.371 1.052-2.372 4.218-2.89 5.97-0.975 0.656 0.717 0.952 1.568 0.964 2.535 0.009 0.736 0.594 1.302 1.305 1.297 0.725-0.005 1.282-0.563 1.293-1.303 0.004-0.245 0.009-0.494-0.021-0.736-0.395-3.231-2.967-5.54-6.206-5.576-0.111 0-0.224-0.007-0.335 0.002zM11.612 18.256c-0.979 0-1.772 0.794-1.772 1.772s0.794 1.772 1.772 1.772 1.772-0.794 1.772-1.772-0.793-1.772-1.772-1.772z"></path>
</g>
<g id="icon-filter">
	<path class="path1" d="M16.153 0c-14.015 0-14.931 3.055-14.931 3.055l12.22 17.795v7.408l5.422 3.742v-11.15l11.914-17.642c0 0-0.611-3.208-14.625-3.208zM16 5.422c-6.77 0-12.258-0.821-12.258-1.833s5.488-1.832 12.258-1.832c6.77 0 12.258 0.821 12.258 1.833s-5.488 1.832-12.258 1.832z"></path>
</g>
<g id="icon-area-group">
	<path class="path1" d="M8.5 19.033c-1.482 2.99-3.214 5.848-3.214 5.848s-5.286-8.712-5.286-11.629c0-2.918 2.368-5.286 5.286-5.286 1.209 0 2.311 0.423 3.202 1.107-0.39 0.613-0.685 1.282-0.917 1.984-0.577-0.6-1.384-0.977-2.285-0.977-1.755 0-3.172 1.416-3.172 3.172s1.416 3.172 3.172 3.172c0.798 0 1.518-0.303 2.075-0.788 0.245 1.001 0.633 2.149 1.139 3.397zM20.546 13.464c0-2.516-2.030-4.546-4.546-4.546s-4.546 2.030-4.546 4.546c0 2.516 2.030 4.546 4.546 4.546s4.546-2.030 4.546-4.546zM23.576 13.464c0 4.182-7.576 16.667-7.576 16.667s-7.576-12.485-7.576-16.667c0-4.182 3.394-7.576 7.576-7.576s7.576 3.394 7.576 7.576zM26.714 7.966c-1.189 0-2.275 0.408-3.158 1.071 0.383 0.616 0.675 1.285 0.9 1.988 0.575-0.583 1.373-0.945 2.258-0.945 1.755 0 3.172 1.416 3.172 3.172s-1.416 3.172-3.172 3.172c-0.809 0-1.538-0.31-2.098-0.807-0.251 0.996-0.642 2.133-1.143 3.362 1.488 3.010 3.241 5.902 3.241 5.902s5.286-8.712 5.286-11.629-2.368-5.286-5.286-5.286z"></path>
</g>
<g id="icon-area-routing">
	<path class="path1" d="M30.412 0v5.109l-1.709-1.683-2.546 2.547-1.726-1.726 2.546-2.572-1.674-1.675h5.109zM4.932 30.331l2.55-2.575-1.728-1.728-2.558 2.55-1.703-1.703v5.125h5.117l-1.678-1.669zM7.465 4.254l-2.539-2.548 1.678-1.696h-5.094v5.104l1.67-1.67 2.556 2.539 1.729-1.729zM24.547 27.759l2.543 2.543-1.682 1.698h5.102v-5.094l-1.672 1.664-2.56-2.543-1.731 1.732zM21.134 13.229c0-2.833-2.286-5.119-5.119-5.119s-5.119 2.286-5.119 5.119c0 2.833 2.286 5.119 5.119 5.119s5.119-2.286 5.119-5.119zM24.547 13.229c0 4.709-8.532 18.771-8.532 18.771s-8.533-14.061-8.533-18.771c0-4.709 3.823-8.532 8.532-8.532s8.533 3.823 8.533 8.532z"></path>
</g>
<g id="icon-voip-trunk">
	<path class="path1" d="M30.292 20.768c-0.495 0.518-1.087 0.86-1.766 1.022l-0.293-1.127c0.472-0.109 0.875-0.34 1.218-0.7 1.336-1.397 1.273-4.174 1.272-4.202-0.133-3.832-4.781-3.99-4.978-3.995l-0.828-0.020 0.299-0.774c0.009-0.022 0.853-2.246-0.159-4.31-0.705-1.437-2.145-2.487-4.283-3.122-0.591-0.176-1.169-0.266-1.717-0.266-3.637 0-5.266 3.993-5.282 4.032l-0.541 1.362-0.541-1.361c-0.032-0.080-0.841-1.997-3.067-1.997-0.484 0-1.012 0.091-1.565 0.271-3.704 1.213-3.203 5.353-3.179 5.528l0.073 0.56-0.557 0.095c-0.126 0.022-3.105 0.558-3.105 3.543 0.016 4.752 2.999 5.439 3.125 5.465l6.157 0.022-0.3 1.206h-5.97c-0.15 0-4.156-0.905-4.176-6.653 0-2.834 2.107-4.203 3.567-4.621-0.026-1.379 0.272-5.031 4.004-6.253 0.672-0.217 1.319-0.327 1.926-0.327 1.836 0 2.955 0.963 3.561 1.746 0.814-1.399 2.668-3.782 5.871-3.782 0.661 0 1.349 0.106 2.049 0.314 2.468 0.733 4.151 1.99 5.002 3.739 0.852 1.748 0.638 3.528 0.41 4.496 2.134 0.273 5.245 1.552 5.367 5.056 0.001 0.025 0.126 3.253-1.594 5.053zM29 26.818v0.629c0 1.234-1.13 2.553-2.325 2.553h-14.3c-1.195 0-2.375-1.319-2.375-2.554v-0.629c0-1.234 1.18-1.817 2.375-1.817h14.3c1.195 0 2.325 0.583 2.325 1.818zM13.792 27.132c0-0.613-0.497-1.11-1.11-1.11s-1.11 0.497-1.11 1.11c0 0.613 0.497 1.11 1.11 1.11s1.11-0.497 1.11-1.11zM17.349 27.132c0-0.613-0.497-1.11-1.11-1.11s-1.11 0.497-1.11 1.11c0 0.613 0.497 1.11 1.11 1.11s1.11-0.497 1.11-1.11zM21.066 27.132c0-0.613-0.497-1.11-1.11-1.11s-1.11 0.497-1.11 1.11c0 0.613 0.497 1.11 1.11 1.11s1.11-0.497 1.11-1.11zM27.524 27.132c0-0.613-0.497-1.11-1.11-1.11s-1.11 0.497-1.11 1.11c0 0.613 0.497 1.11 1.11 1.11s1.11-0.497 1.11-1.11zM28.712 24.702c-1.224-0.611-1.942-0.768-2.231-0.768-0.1 0-0.149 0.065-0.149 0.065h-13.647c0 0-0.048-0.012-0.149-0.012-0.289 0-1.007 0.076-2.231 0.687l2.243-8.527c0 0 0.204-1.147 1.836-1.147s5.133 0 5.133 0 3.484 0 5.116 0c1.632 0 1.835 1.147 1.835 1.147l2.244 8.555zM24.868 21.098l-0.016-1.098h-0.025c-0.285-1-2.614-2.397-5.439-2.373-3.008 0.025-5.439 0.577-5.428 1.935l0.011 1.358 3.404-0.024-0.016-1.362-0.675 0.006c0 0 1.028-0.65 2.716-0.669 1.383-0.012 2.32 0.347 2.618 0.624l-0.567 0.005 0.007 1.362 3.41 0.236z"></path>
</g>
<g id="icon-sip-analysis">
	<path class="path1" d="M4 28v-28h-4v32h32v-4h-28zM17.5 24.1l10.62-19.62-1.74-0.96-8.88 16.38-6.84-12.64-2.64 10.5 1.961 0.48 1.359-5.5 6.16 11.36z"></path>
</g>
<g id="icon-call-me-now">
	<path class="path1" d="M16.133 13.015v0c0.191 0 0.385 0.021 0.575 0.062 1.443 0.315 2.361 1.745 2.047 3.188-0.266 1.222-1.365 2.109-2.613 2.109-0.191 0-0.385-0.021-0.575-0.062-1.443-0.315-2.361-1.745-2.047-3.188 0.267-1.222 1.366-2.109 2.613-2.109zM16.133 11.408c-1.972 0-3.746 1.369-4.183 3.374-0.504 2.313 0.962 4.596 3.275 5.1 0.308 0.067 0.615 0.099 0.917 0.099 1.972 0 3.746-1.369 4.183-3.374 0.504-2.313-0.962-4.596-3.275-5.1-0.307-0.067-0.614-0.099-0.917-0.099v0zM12.616 14.623h-9.396v2.143h9.396v-2.143zM4.291 14.632h-2.143v8.572h2.143v-8.572zM3.904 22.743c-1.734-0.378-3.447 0.721-3.825 2.455s0.721 3.447 2.455 3.825c1.734 0.378 3.447-0.721 3.825-2.455s-0.721-3.447-2.455-3.825zM19.394 17.023h9.396v-2.143h-9.396v2.143zM27.719 17.014h2.143v-8.572h-2.143v8.572zM28.106 8.904c1.734 0.378 3.447-0.721 3.825-2.455s-0.721-3.447-2.455-3.825c-1.734-0.378-3.447 0.721-3.825 2.455s0.721 3.446 2.455 3.825z"></path>
</g>
<g id="icon-http-routing">
	<path class="path1" d="M10.201 3.983c0.149 0.034 0.298 0.046 0.445 0.046l0.207 0.892c0.054 0.232 0.262 0.39 0.491 0.39 0.037 0 0.076-0.004 0.114-0.013 0.271-0.063 0.44-0.334 0.377-0.605l-0.214-0.923c0.483-0.27 0.857-0.729 0.988-1.312 0.244-1.086-0.439-2.164-1.525-2.408-1.086-0.245-2.164 0.438-2.408 1.524-0.244 1.087 0.439 2.165 1.525 2.409z"></path>
	<path class="path2" d="M25.445 24.777c-0.512-0.112-1.018-0.012-1.438 0.232l-1.197-1.19c-0.199-0.193-0.516-0.193-0.715 0.002-0.195 0.199-0.195 0.518 0.002 0.715l1.193 1.186c-0.108 0.182-0.197 0.378-0.244 0.596-0.237 1.088 0.452 2.162 1.54 2.399s2.162-0.452 2.399-1.54c0.237-1.089-0.453-2.163-1.54-2.4z"></path>
	<path class="path3" d="M28.352 3.556c-0.217-0.047-0.434-0.070-0.647-0.070-1.391 0-2.643 0.966-2.951 2.38-0.163 0.747-0.023 1.485 0.321 2.105l-8.095 5.703c-0.56-0.749-1.369-1.319-2.355-1.534-0.289-0.063-0.578-0.093-0.863-0.093-0.074 0-0.144 0.015-0.217 0.019l-0.343-1.483c-0.062-0.271-0.333-0.44-0.605-0.377s-0.44 0.334-0.377 0.605l0.332 1.433c-1.329 0.423-2.405 1.516-2.724 2.976-0.138 0.633-0.103 1.258 0.046 1.845l-1.281 0.375c-0.267 0.079-0.42 0.358-0.341 0.626 0.064 0.22 0.265 0.362 0.483 0.362 0.046 0 0.094-0.006 0.142-0.020l1.37-0.401c0.541 0.987 1.476 1.751 2.662 2.010 0.167 0.036 0.332 0.039 0.497 0.054l0.122 5.926c-1.173 0.206-2.162 1.099-2.432 2.334-0.356 1.632 0.679 3.242 2.31 3.598 0.217 0.047 0.434 0.070 0.647 0.070 1.391 0 2.643-0.966 2.951-2.38 0.356-1.631-0.679-3.242-2.31-3.598-0.053-0.012-0.105-0.008-0.158-0.017l-0.122-5.949c0.799-0.13 1.528-0.506 2.109-1.053l1.262 1.253c0.098 0.096 0.227 0.146 0.355 0.146 0.13 0 0.26-0.049 0.358-0.15 0.195-0.197 0.195-0.516-0.004-0.713l-1.317-1.309c0.244-0.386 0.425-0.821 0.528-1.292 0.181-0.832 0.088-1.658-0.214-2.39l8.216-5.789c0.376 0.335 0.831 0.591 1.357 0.706 0.217 0.047 0.434 0.070 0.647 0.070 1.391 0 2.643-0.966 2.951-2.38 0.356-1.631-0.679-3.242-2.31-3.598zM15.745 27.887c0.291 0.453 0.388 0.992 0.273 1.518-0.2 0.92-1.028 1.587-1.966 1.587-0.144 0-0.29-0.016-0.432-0.047-1.086-0.237-1.777-1.313-1.54-2.399 0.2-0.92 1.027-1.587 1.966-1.587 0.144 0 0.29 0.016 0.432 0.047 0.526 0.115 0.976 0.428 1.267 0.881zM13.77 18.599c-0.18 0-0.362-0.020-0.541-0.059-1.357-0.296-2.221-1.641-1.925-2.998 0.251-1.149 1.284-1.984 2.458-1.984 0.18 0 0.362 0.020 0.541 0.059 1.357 0.296 2.221 1.641 1.925 2.998-0.251 1.15-1.285 1.984-2.458 1.984zM29.677 6.939c-0.2 0.92-1.027 1.587-1.966 1.587-0.144 0-0.289-0.016-0.432-0.047-0.526-0.115-0.976-0.427-1.267-0.88s-0.388-0.992-0.273-1.518c0.201-0.92 1.027-1.587 1.966-1.587 0.144 0 0.29 0.016 0.432 0.047 1.086 0.236 1.777 1.313 1.54 2.398z"></path>
	<path class="path4" d="M19.932 20.964c-0.197-0.195-0.516-0.195-0.713 0.004-0.195 0.197-0.195 0.516 0.004 0.713l1.437 1.427c0.098 0.096 0.226 0.146 0.354 0.146 0.13 0 0.26-0.049 0.358-0.15 0.195-0.197 0.195-0.516-0.004-0.713l-1.436-1.427z"></path>
	<path class="path5" d="M6.658 18.006l-1.604 0.47c-0.267-0.509-0.742-0.906-1.348-1.038-1.088-0.237-2.162 0.452-2.399 1.54s0.452 2.162 1.54 2.399c1.088 0.237 2.162-0.452 2.399-1.54 0.028-0.127 0.040-0.253 0.043-0.379l1.651-0.484c0.267-0.079 0.42-0.358 0.342-0.626-0.077-0.267-0.356-0.419-0.624-0.342z"></path>
	<path class="path6" d="M11.685 6.279c-0.271 0.063-0.44 0.334-0.377 0.605l0.456 1.964c0.054 0.232 0.262 0.39 0.491 0.39 0.037 0 0.076-0.004 0.114-0.013 0.271-0.063 0.44-0.334 0.377-0.605l-0.456-1.964c-0.062-0.27-0.327-0.437-0.605-0.377z"></path>
</g>
<g id="icon-klik-en-bel">
	<path class="path1" d="M23.464 31.984c-1.024 0-2.048 0.015-3.072-0.005-0.894-0.018-1.207-0.621-0.757-1.407 0.21-0.367 0.448-0.724 0.616-1.11 0.744-1.712-0.442-3.253-1.611-3.933-1.757-1.022-4.616-0.988-6.222 0.423-1.274 1.118-1.612 2.572-0.777 4.062 0.186 0.331 0.335 0.689 0.454 1.051 0.154 0.469-0.107 0.89-0.591 0.894-2.221 0.017-4.45 0.104-6.662-0.037-1.328-0.084-2.374-1.344-2.446-2.786-0.099-1.956-0.045-3.92-0.005-5.88 0.007-0.321 0.212-0.819 0.449-0.909 0.328-0.124 0.879-0.074 1.15 0.138 2.028 1.579 4.353 0.476 5.194-1.733 0.648-1.702 0.596-3.368-0.297-4.955-0.973-1.729-2.78-2.33-4.569-1.35-0.465 0.254-0.911 0.732-1.482 0.417-0.593-0.327-0.467-0.971-0.469-1.53-0.002-0.937 0.043-1.876-0.009-2.81-0.097-1.731 1.45-3.385 3.313-3.301 1.762 0.077 3.529 0.015 5.294 0.017 0.44 0 0.841-0.011 1.118-0.472 0.291-0.484-0.056-0.819-0.195-1.192-0.186-0.499-0.545-0.949-0.653-1.458-0.279-1.322 0.665-2.83 1.897-3.439 1.306-0.645 2.631-0.86 4.034-0.515 1.688 0.416 2.912 1.265 3.304 3.104 0.176 0.827-0.286 1.521-0.646 2.235-0.189 0.375-0.387 0.881-0.281 1.239 0.149 0.502 0.732 0.507 1.224 0.504 1.721-0.008 3.444 0.042 5.162-0.019 2.108-0.074 3.357 1.572 3.356 3.372-0.001 0.98 0.055 1.964-0.014 2.939-0.033 0.462-0.176 1.050-0.492 1.324-0.417 0.361-0.93-0.007-1.353-0.301-1.504-1.047-3.431-0.713-4.538 1.009-1.311 2.040-1.228 4.713 0.487 6.599 1.062 1.167 2.58 1.397 3.927 0.566 0.49-0.302 1.070-0.742 1.532-0.358 0.333 0.276 0.424 0.966 0.441 1.478 0.050 1.589-0.004 3.18 0.015 4.77 0.022 1.753-1.215 3.505-3.345 3.369-0.823-0.054-1.653-0.010-2.481-0.010z"></path>
</g>
<g id="icon-call-record">
	<path class="path1" d="M8.137 13.241h-1.799v2.302h1.751c0.084 0 0.324 0 0.563-0.084 0.684-0.228 0.708-0.875 0.708-1.091 0.001-1.103-0.851-1.127-1.223-1.127zM16 0c-8.837 0-16 7.163-16 16s7.163 16 16 16 16-7.163 16-16-7.163-16-16-16zM9.361 20.137l-1.691-3.022h-1.32v3.022h-2.134v-8.467h3.814c0.239 0 0.479 0 0.72 0.012 0.384 0.024 1.727 0.108 2.387 1.319 0.119 0.228 0.335 0.72 0.335 1.416 0 0.947-0.371 1.451-0.659 1.727-0.12 0.12-0.264 0.229-0.396 0.312-0.156 0.084-0.336 0.168-0.684 0.3l1.955 3.381h-2.327zM19.536 20.137h-6.644v-8.467h6.26v1.631h-4.149v1.547h3.873v1.607h-3.873v2.014h4.533v1.668zM24.418 20.389c-0.3 0-0.995-0.036-1.727-0.36-2.23-1.007-2.339-3.465-2.339-4.137 0-0.516 0.060-1.847 1.031-3.022 0.384-0.479 1.344-1.463 3.070-1.463 1.14 0 2.243 0.468 2.986 1.319 0.312 0.36 0.504 0.732 0.588 0.875l-1.667 0.828c-0.12-0.24-0.204-0.372-0.276-0.468-0.155-0.228-0.671-0.815-1.535-0.815-0.239 0-0.803 0.048-1.283 0.504-0.348 0.324-0.804 1.031-0.804 2.194 0 0.108 0 0.312 0.036 0.576 0.145 1.163 0.647 1.69 1.115 1.955 0.156 0.096 0.48 0.239 0.936 0.239 1.188 0 1.644-0.923 1.835-1.247l1.68 0.852c-0.252 0.384-0.432 0.636-0.552 0.779-0.383 0.431-1.439 1.391-3.094 1.391z"></path>
</g>
</defs>

<g fill="#000000">
	<use xlink:href="#icon-caller-id" transform="translate(0 0)"></use>
	<use xlink:href="#icon-phonenumber" transform="translate(48 0)"></use>
	<use xlink:href="#icon-voip-account" transform="translate(96 0)"></use>
	<use xlink:href="#icon-callgroup" transform="translate(144 0)"></use>
	<use xlink:href="#icon-fixed-mobile" transform="translate(192 0)"></use>
	<use xlink:href="#icon-voicemail" transform="translate(240 0)"></use>
	<use xlink:href="#icon-sounds" transform="translate(288 0)"></use>
	<use xlink:href="#icon-opening-hours" transform="translate(336 0)"></use>
	<use xlink:href="#icon-messages" transform="translate(384 0)"></use>
	<use xlink:href="#icon-music-on-hold" transform="translate(432 0)"></use>
	<use xlink:href="#icon-fax-inbound" transform="translate(480 0)"></use>
	<use xlink:href="#icon-fax-outbound" transform="translate(528 0)"></use>
	<use xlink:href="#icon-ivr" transform="translate(576 0)"></use>
	<use xlink:href="#icon-queue" transform="translate(624 0)"></use>
	<use xlink:href="#icon-conference-call" transform="translate(672 0)"></use>
	<use xlink:href="#icon-pickup-group" transform="translate(720 0)"></use>
	<use xlink:href="#icon-listen-in" transform="translate(0 48)"></use>
	<use xlink:href="#icon-filter" transform="translate(48 48)"></use>
	<use xlink:href="#icon-area-group" transform="translate(96 48)"></use>
	<use xlink:href="#icon-area-routing" transform="translate(144 48)"></use>
	<use xlink:href="#icon-voip-trunk" transform="translate(192 48)"></use>
	<use xlink:href="#icon-sip-analysis" transform="translate(240 48)"></use>
	<use xlink:href="#icon-call-me-now" transform="translate(288 48)"></use>
	<use xlink:href="#icon-http-routing" transform="translate(336 48)"></use>
	<use xlink:href="#icon-klik-en-bel" transform="translate(384 48)"></use>
	<use xlink:href="#icon-call-record" transform="translate(432 48)"></use>
</g>

</svg>
